<!DOCTYPE svg PUBLIC "-//W3C//DTD SVG 20010904//EN" "http://www.w3.org/TR/2001/REC-SVG-20010904/DTD/svg10.dtd">
<svg version="1.0" xmlns="http://www.w3.org/2000/svg" width="253px" height="253px" viewBox="0 0 2530 2530" preserveAspectRatio="xMidYMid meet">
  <g id="layer101" fill="#3d3e40" stroke="none">
   <path d="M1225 2373 c-11 -3 -32 -14 -47 -24 -31 -23 -41 -23 -93 -4 -65 23 -88 19 -139 -26 -44 -39 -49 -41 -104 -38 -57 4 -57 3 -102 -44 -40 -42 -52 -49 -108 -58 -56 -10 -66 -15 -87 -47 -14 -20 -25 -42 -25 -48 0 -17 -32 -42 -65 -50 -53 -13 -74 -34 -92 -93 -17 -56 -38 -91 -56 -91 -5 0 -23 -15 -40 -32 -27 -29 -31 -39 -28 -78 2 -42 -1 -50 -49 -104 l-52 -60 6 -68 c7 -63 5 -70 -19 -103 -24 -31 -26 -40 -21 -92 9 -73 9 -133 1 -203 -6 -51 -4 -58 20 -84 26 -28 27 -32 20 -106 l-7 -77 52 -59 c50 -57 52 -61 47 -107 -4 -47 -4 -48 54 -98 44 -38 61 -61 70 -92 13 -48 43 -83 82 -92 24 -6 39 -21 119 -116 22 -27 33 -32 70 -31 55 0 98 -36 98 -84 0 -39 26 -51 121 -56 59 -3 70 -7 98 -36 40 -39 71 -48 121 -33 54 16 84 14 125 -9 45 -25 85 -25 130 0 41 23 71 25 125 9 50 -15 81 -6 120 33 29 29 40 32 109 37 87 7 101 13 101 45 0 12 16 37 38 57 29 28 45 36 76 37 31 0 44 7 65 31 14 18 41 49 58 70 18 21 47 42 65 47 27 8 39 21 66 76 23 45 50 81 86 112 53 45 53 46 49 93 -5 46 -3 50 47 107 l52 59 -7 73 c-6 69 -5 75 20 108 24 32 26 41 20 88 -6 53 -7 101 -2 211 2 49 -1 61 -18 73 -18 13 -20 25 -18 99 l3 84 -51 58 c-47 53 -50 61 -48 103 3 39 -1 49 -28 78 -17 17 -35 32 -40 32 -19 0 -41 35 -57 89 -20 68 -29 78 -80 92 -43 11 -76 34 -76 53 0 6 -11 28 -25 48 -21 32 -31 37 -87 47 -56 9 -68 16 -108 58 -45 47 -45 48 -102 44 -55 -3 -60 -1 -107 39 -54 46 -59 46 -152 20 -43 -12 -48 -12 -75 7 -32 23 -87 35 -119 26z"/>
   </g>
  <g id="layer102" fill="#375859" stroke="none">
   <path d="M1225 2373 c-11 -3 -32 -14 -47 -24 -31 -23 -41 -23 -93 -4 -65 23 -88 19 -139 -26 -44 -39 -48 -41 -105 -37 -33 1 -63 0 -67 -5 -4 -4 26 -7 68 -7 71 0 77 2 121 36 49 38 46 38 159 18 28 -5 45 -1 71 15 44 27 86 27 132 0 29 -17 44 -20 78 -14 112 18 105 19 151 -19 43 -34 48 -36 122 -36 42 0 74 3 70 7 -4 5 -34 6 -66 5 -57 -4 -61 -2 -109 38 -54 46 -59 46 -152 20 -43 -12 -48 -12 -75 7 -32 23 -87 35 -119 26z"/>
   <path d="M1165 2208 c-233 -19 -465 -134 -636 -315 -78 -83 -114 -133 -162 -228 -80 -158 -113 -316 -104 -504 7 -143 34 -257 91 -376 199 -419 660 -646 1116 -550 338 72 626 326 736 649 87 254 69 537 -48 770 -53 107 -88 156 -177 248 -216 227 -497 332 -816 306z m282 -82 c294 -63 560 -282 672 -555 56 -134 66 -192 65 -366 -1 -143 -3 -169 -27 -248 -139 -454 -574 -734 -1034 -663 -234 35 -432 148 -583 329 -210 252 -268 619 -149 929 106 274 381 509 672 572 85 19 299 20 384 2z"/>
   <path d="M1170 2110 c-141 -14 -302 -73 -427 -158 -73 -50 -207 -191 -251 -265 -93 -156 -134 -300 -134 -477 -1 -433 308 -804 737 -885 114 -22 287 -16 395 14 426 115 715 528 670 958 -13 116 -32 189 -80 291 -165 352 -526 559 -910 522z m301 -44 c349 -97 606 -379 660 -726 14 -91 6 -249 -17 -340 -9 -36 -33 -102 -54 -146 -150 -325 -447 -516 -800 -516 -345 0 -640 186 -795 502 -62 123 -78 203 -78 375 0 134 2 159 26 238 101 331 364 565 705 627 68 13 288 4 353 -14z"/>
   <path d="M1182 1916 c4 -32 2 -46 -6 -46 -9 0 -12 -20 -10 -65 1 -36 -1 -65 -5 -65 -4 0 -18 11 -31 25 -22 23 -23 29 -12 58 16 46 16 130 0 125 -7 -3 -14 -17 -16 -31 -4 -32 -20 -34 -55 -7 -39 31 -46 4 -7 -28 25 -22 31 -33 28 -57 -2 -23 -8 -30 -25 -30 -35 -1 -32 -18 6 -37 54 -27 84 -64 97 -116 7 -26 15 -57 19 -69 7 -21 6 -21 -24 -10 -23 8 -34 22 -46 56 -8 24 -15 60 -15 78 0 31 -1 32 -21 21 -17 -11 -22 -10 -35 7 -23 31 -28 65 -15 100 13 37 -1 85 -26 85 -16 0 -17 -32 -1 -48 9 -9 9 -15 -1 -24 -10 -11 -16 -8 -33 15 -11 15 -28 27 -39 27 -25 0 -24 -10 5 -38 29 -27 43 -77 26 -97 -9 -11 -5 -17 19 -29 26 -14 71 -64 71 -80 0 -19 -44 0 -85 37 -38 35 -46 48 -40 65 9 29 -3 62 -22 62 -9 0 -13 -6 -9 -15 3 -8 1 -15 -4 -15 -6 0 -10 12 -10 26 0 16 -5 24 -12 21 -14 -4 -16 -38 -4 -77 6 -23 4 -22 -24 10 l-32 35 6 -35 c6 -32 22 -53 50 -63 23 -9 -4 -19 -33 -12 -25 5 -33 14 -41 46 -12 42 -30 44 -30 4 0 -15 -7 -26 -20 -30 -24 -7 -17 -25 9 -25 10 0 33 -7 50 -16 24 -12 46 -15 79 -10 38 5 50 2 77 -18 18 -14 45 -28 61 -33 27 -7 26 -8 -20 -14 -58 -9 -66 -6 -66 27 0 13 -4 24 -10 24 -5 0 -10 -7 -10 -16 0 -11 -8 -14 -32 -12 -18 2 -33 -2 -35 -9 -3 -7 2 -13 11 -13 8 0 18 -5 21 -11 15 -24 -71 5 -96 33 -15 15 -34 28 -43 28 -8 0 -19 8 -25 17 -5 10 -13 15 -16 11 -14 -13 5 -39 35 -49 39 -14 42 -44 3 -34 -58 14 -93 17 -93 7 0 -5 10 -13 23 -16 22 -6 22 -7 -8 -31 -27 -22 -28 -25 -9 -25 11 0 29 6 40 14 24 18 175 11 216 -10 18 -10 66 -14 152 -14 121 0 156 -4 156 -20 0 -11 -282 1 -305 13 -33 18 -176 26 -205 12 -29 -15 -72 -60 -89 -92 -8 -17 -8 -22 5 -27 25 -9 1317 -7 1333 3 24 16 -16 58 -77 82 -51 20 -74 22 -227 22 -121 -1 -163 2 -145 9 14 5 50 7 80 5 33 -3 76 1 108 10 47 13 59 13 105 -1 103 -30 175 -28 120 3 -14 7 -15 12 -5 24 20 23 -1 29 -43 11 -31 -13 -46 -13 -86 -4 -36 9 -57 9 -81 1 -51 -18 -45 -3 8 20 46 20 51 20 77 5 36 -20 77 -21 77 -1 0 9 -9 15 -24 15 -14 0 -28 5 -31 10 -3 6 3 10 15 10 30 0 60 18 60 35 0 17 -16 20 -25 5 -10 -17 -115 -12 -121 5 -9 22 -24 8 -24 -23 0 -23 -9 -31 -59 -54 -62 -29 -136 -38 -129 -15 3 6 35 29 73 50 38 21 76 44 85 52 9 8 35 15 57 15 27 0 46 6 57 19 20 22 4 40 -19 21 -12 -10 -15 -9 -15 4 0 19 -13 20 -40 4 -10 -7 -23 -9 -27 -4 -4 5 0 13 11 20 10 6 28 19 40 29 l21 18 -25 -4 c-14 -2 -34 -8 -44 -12 -16 -7 -18 -5 -13 8 4 9 10 24 14 33 11 29 -20 10 -45 -26 -22 -32 -23 -33 -29 -12 -6 25 -18 29 -27 7 -6 -18 -46 -20 -46 -3 0 7 16 29 36 49 20 20 31 39 26 43 -5 3 -15 -1 -22 -9 -18 -21 -32 -18 -25 5 4 14 2 20 -9 20 -24 0 -46 -53 -46 -110 0 -27 -3 -50 -6 -50 -15 0 -33 37 -34 68 0 34 -14 43 -24 16 -10 -27 -7 -48 15 -88 l21 -39 -53 -53 c-29 -30 -57 -54 -61 -54 -16 0 -7 35 16 59 42 46 58 129 35 173 -10 19 -7 26 30 57 23 20 41 42 41 49 0 17 -17 15 -24 -3 -3 -8 -10 -15 -17 -15 -6 0 -8 7 -5 16 4 11 1 14 -12 12 -11 -2 -18 -14 -20 -36 -5 -46 -22 -40 -22 8 0 22 -4 40 -10 40 -13 0 -29 -63 -23 -94 7 -33 -21 -36 -46 -4 -11 13 -23 18 -30 14 -10 -6 -9 -12 2 -24 8 -10 17 -33 21 -53 3 -20 17 -46 31 -59 30 -28 31 -41 5 -65 -10 -9 -24 -33 -30 -51 -7 -19 -17 -34 -24 -34 -19 0 -46 34 -46 58 0 18 6 22 29 22 37 0 44 10 28 44 -14 29 -25 33 -33 11 -10 -26 -20 -16 -22 22 -2 20 -5 40 -8 45 -3 4 11 47 30 95 20 48 34 88 32 90 -8 8 -36 -10 -41 -28 -8 -26 -23 -24 -27 3 -2 12 -9 24 -17 26 -11 4 -13 -5 -9 -42z m188 -157 c0 -19 -5 -29 -14 -29 -22 0 -28 17 -21 51 6 24 9 28 21 18 8 -6 14 -24 14 -40z m260 -37 c0 -13 -23 -38 -52 -57 -23 -14 -28 -15 -28 -3 0 20 45 68 65 68 8 0 15 -4 15 -8z m-124 -68 c-3 -9 -6 -19 -6 -24 0 -12 -68 -52 -81 -48 -6 2 8 23 32 46 46 44 65 53 55 26z"/>
   <path d="M680 1333 c0 -7 14 -76 30 -153 17 -77 30 -142 30 -143 0 -1 43 -2 96 -2 83 0 97 3 110 19 8 11 11 29 8 39 -4 12 9 4 34 -21 70 -70 164 -66 188 8 6 19 16 36 22 38 5 1 30 -17 54 -42 50 -50 100 -66 147 -46 28 11 51 46 51 75 0 8 6 15 14 15 18 0 33 -43 17 -48 -16 -5 -13 -42 4 -42 8 0 17 -12 21 -27 3 -16 7 -34 10 -40 5 -17 1 -16 -38 6 -58 34 -138 32 -175 -5 -21 -21 -30 -24 -42 -15 -67 47 -149 58 -197 26 -22 -14 -31 -15 -53 -5 -40 20 -103 21 -124 2 -16 -15 -20 -14 -48 2 -48 29 -96 24 -130 -13 -26 -29 -28 -36 -25 -100 2 -38 11 -83 21 -102 41 -79 112 -125 175 -112 28 5 29 4 40 -55 12 -59 13 -60 50 -66 43 -7 70 0 70 18 0 6 -16 83 -36 171 -45 206 -43 190 -15 190 23 0 26 -6 36 -60 21 -110 78 -187 150 -201 48 -9 82 2 101 31 35 54 -10 138 -91 172 -39 15 -45 22 -43 43 3 21 9 25 41 28 30 3 43 -2 67 -27 19 -19 30 -40 30 -58 0 -43 44 -128 82 -156 50 -38 109 -45 147 -17 62 43 28 135 -66 180 -45 21 -52 29 -50 50 2 21 8 25 39 28 29 2 43 -3 70 -26 30 -27 35 -42 58 -149 l25 -118 54 -3 c50 -3 53 -2 48 17 -4 18 -2 20 21 14 49 -14 85 -7 108 20 20 23 22 36 20 105 -4 90 -22 138 -72 182 -33 29 -58 35 -116 31 -22 -2 -28 2 -28 18 0 12 7 21 15 21 24 0 18 30 -8 39 -20 8 -26 23 -42 105 -10 52 -16 98 -13 101 10 11 34 -6 46 -33 6 -15 22 -42 34 -61 12 -19 32 -61 44 -95 20 -58 24 -61 62 -70 66 -14 74 -6 71 68 -2 36 0 68 4 72 10 11 9 98 -3 128 -16 44 -66 68 -130 61 -72 -7 -96 -7 -150 1 -73 9 -95 -29 -77 -133 6 -34 4 -43 -7 -43 -8 0 -17 14 -21 33 -11 50 -53 115 -85 132 -45 23 -104 19 -137 -9 -26 -22 -28 -30 -27 -90 1 -72 -10 -88 -20 -28 -7 47 -48 107 -86 127 -42 22 -102 19 -133 -5 -35 -28 -44 -78 -25 -146 l15 -54 -33 0 c-20 0 -37 -6 -42 -17 -20 -35 -38 -5 -61 98 -12 57 -24 111 -27 119 -5 19 -104 22 -104 3z m1038 -55 c14 -14 17 -118 3 -118 -13 0 -21 26 -21 67 0 26 -5 36 -20 40 -11 3 -17 9 -14 14 8 13 38 11 52 -3z m-628 -35 c15 -40 21 -163 9 -163 -16 0 -46 51 -64 109 -15 49 -16 63 -5 76 22 26 45 18 60 -22z m252 20 c22 -25 31 -59 33 -125 1 -49 -1 -58 -15 -58 -10 0 -20 8 -23 18 -3 9 -14 40 -25 68 -30 81 -11 143 30 97z m341 -351 c28 -31 47 -90 47 -147 0 -55 0 -56 -27 -53 -26 3 -28 8 -46 96 -23 116 -15 149 26 104z m-834 -15 c11 -14 41 -143 41 -178 0 -30 -30 -20 -57 19 -25 37 -49 132 -40 156 8 19 40 21 56 3z m332 -107 c19 -10 49 -59 49 -80 0 -5 -9 -10 -19 -10 -13 0 -26 15 -40 43 -29 60 -28 67 10 47z m268 -16 c24 -31 28 -74 7 -74 -12 0 -56 73 -56 93 0 17 30 5 49 -19z"/>
   <path d="M545 2133 c-14 -21 -25 -43 -25 -49 0 -17 -32 -42 -65 -50 -16 -4 -40 -14 -52 -21 -29 -19 -73 -146 -44 -129 5 3 14 26 20 50 11 45 41 76 72 76 17 0 99 75 99 90 0 5 12 22 26 39 20 24 22 31 10 31 -8 0 -27 -17 -41 -37z"/>
   <path d="M1937 2148 c11 -13 29 -39 41 -58 23 -40 73 -80 98 -80 9 0 29 -14 45 -31 16 -18 29 -25 29 -17 0 28 -32 58 -73 69 -44 11 -77 34 -77 53 0 21 -51 86 -67 86 -14 0 -14 -3 4 -22z"/>
   <path d="M2146 1918 c15 -49 73 -103 90 -85 4 4 -4 11 -18 16 -30 11 -44 29 -53 64 -4 15 -11 27 -17 27 -5 0 -6 -10 -2 -22z"/>
   <path d="M265 1817 c-25 -27 -29 -39 -26 -77 2 -42 -1 -50 -48 -103 -28 -32 -51 -66 -51 -75 1 -15 2 -15 15 2 8 11 15 24 15 30 0 5 18 27 40 47 37 35 40 41 40 92 0 52 2 58 37 86 21 17 31 31 23 31 -8 -1 -28 -15 -45 -33z"/>
   <path d="M2270 1745 c0 -63 14 -97 60 -140 31 -30 32 -31 25 -100 -6 -67 -5 -72 25 -112 18 -24 33 -43 36 -43 8 0 -10 36 -25 48 -13 10 -16 30 -14 97 l3 84 -51 58 c-49 55 -51 60 -46 106 2 26 0 50 -4 53 -5 3 -9 -20 -9 -51z"/>
   <path d="M146 1493 c6 -46 4 -55 -21 -87 -15 -19 -25 -41 -23 -47 2 -6 17 6 33 27 24 31 30 49 29 87 0 26 -6 53 -13 60 -10 9 -11 1 -5 -40z"/>
   <path d="M106 1280 c10 -33 9 -109 -1 -139 -6 -17 -5 -22 3 -17 34 21 38 123 6 162 -15 18 -15 18 -8 -6z"/>
   <path d="M2396 1268 c-9 -21 -16 -47 -16 -58 0 -28 31 -98 37 -83 2 7 0 21 -6 32 -6 11 -11 34 -11 51 0 17 5 40 11 51 6 11 8 25 6 32 -3 7 -12 -5 -21 -25z"/>
   <path d="M2398 1050 c-10 -9 -18 -21 -18 -27 0 -6 -7 -16 -16 -24 -13 -10 -14 -25 -9 -80 l7 -66 -46 -52 c-43 -48 -46 -56 -46 -105 0 -54 -1 -55 -60 -106 -50 -43 -60 -57 -60 -83 l1 -32 13 30 c7 17 38 51 68 77 55 47 55 47 51 95 -5 46 -3 50 47 107 l52 59 -7 73 c-6 69 -5 75 21 109 29 38 30 53 2 25z"/>
   <path d="M140 861 c0 -11 23 -46 51 -78 49 -55 51 -60 46 -106 -4 -47 -4 -48 55 -98 46 -41 61 -60 69 -95 6 -25 16 -47 22 -51 7 -4 8 0 2 13 -4 10 -10 36 -13 57 -3 31 -14 46 -63 89 -58 50 -59 52 -59 105 0 50 -3 57 -45 102 -25 26 -45 53 -45 59 0 6 -4 14 -10 17 -5 3 -10 -3 -10 -14z"/>
   <path d="M403 412 c4 -6 20 -13 37 -17 27 -6 41 -19 122 -116 22 -27 33 -32 70 -31 33 0 50 -6 71 -26 20 -19 27 -22 27 -10 0 25 -32 45 -83 51 -47 5 -97 36 -97 62 0 18 -63 72 -90 77 -14 3 -34 9 -44 13 -13 6 -17 5 -13 -3z"/>
   <path d="M2090 410 c-8 -5 -24 -10 -36 -10 -22 0 -61 -38 -90 -87 -18 -32 -57 -53 -100 -53 -25 0 -84 -45 -84 -64 0 -7 -9 -22 -20 -34 -18 -19 -32 -22 -89 -22 -65 0 -72 -2 -112 -36 -45 -37 -68 -40 -153 -19 -21 6 -43 1 -87 -20 l-59 -29 -59 29 c-44 21 -66 26 -87 20 -85 -21 -108 -18 -153 19 -40 34 -47 36 -112 36 -63 0 -72 3 -94 26 l-25 27 0 -30 c0 -38 27 -50 121 -55 59 -3 70 -7 98 -36 40 -39 71 -48 121 -33 54 16 84 14 125 -9 45 -25 85 -25 130 0 41 23 71 25 125 9 50 -15 81 -6 120 33 29 29 40 32 109 37 87 7 101 13 101 45 0 12 16 37 38 57 29 28 45 36 76 37 31 0 44 7 65 31 80 96 95 110 121 116 17 4 32 11 35 16 8 12 -6 11 -25 -1z"/>
   </g>
  <g id="layer103" fill="#595857" stroke="none">
   <path d="M1225 2373 c-11 -3 -32 -14 -47 -24 -31 -23 -41 -23 -93 -4 -65 23 -88 19 -139 -26 -44 -39 -48 -41 -105 -37 -33 1 -63 0 -67 -5 -4 -4 26 -7 68 -7 71 0 77 2 121 36 49 38 46 38 159 18 28 -5 45 -1 71 15 44 27 86 27 132 0 29 -17 44 -20 78 -14 112 18 105 19 151 -19 43 -34 48 -36 122 -36 42 0 74 3 70 7 -4 5 -34 6 -66 5 -57 -4 -61 -2 -109 38 -54 46 -59 46 -152 20 -43 -12 -48 -12 -75 7 -32 23 -87 35 -119 26z"/>
   <path d="M1165 2198 c-217 -17 -423 -110 -588 -267 -153 -146 -255 -333 -297 -544 -17 -85 -14 -278 5 -372 95 -462 504 -795 975 -795 396 0 755 236 910 599 65 149 75 205 75 396 0 200 -15 266 -94 430 -184 378 -556 586 -986 553z m280 -67 c121 -25 232 -71 330 -136 496 -330 568 -1022 151 -1441 -364 -365 -929 -377 -1307 -26 -130 121 -224 282 -276 472 -26 99 -24 338 6 445 113 417 479 702 906 704 61 1 135 -7 190 -18z"/>
   <path d="M1186 1938 c-4 -9 -2 -27 4 -39 10 -18 10 -25 -1 -33 -10 -8 -14 -34 -14 -83 0 -40 -1 -73 -2 -73 -2 0 -19 17 -38 38 -25 26 -33 43 -29 57 3 11 9 46 13 78 7 60 -3 79 -14 27 -7 -33 -21 -37 -51 -15 -33 25 -36 16 -3 -13 29 -26 31 -32 25 -66 -7 -35 -10 -38 -34 -33 -25 5 -25 4 -7 -9 10 -8 24 -14 31 -14 25 0 81 -76 88 -119 3 -23 14 -53 23 -67 21 -32 12 -39 -31 -24 -42 13 -49 25 -67 101 -10 45 -16 55 -30 52 -12 -4 -25 6 -38 28 -24 38 -26 67 -10 103 9 19 8 29 -5 47 -19 27 -22 18 -4 -11 10 -16 10 -23 -5 -37 -16 -16 -18 -15 -47 12 -16 16 -33 25 -37 22 -3 -4 -1 -7 6 -7 7 0 24 -25 38 -56 20 -45 23 -58 12 -64 -10 -7 -7 -12 12 -20 25 -12 64 -56 75 -84 5 -13 -1 -16 -28 -16 -27 0 -43 9 -81 48 -39 40 -47 53 -43 77 2 17 1 24 -1 18 -9 -26 -36 -7 -46 32 -4 16 -5 15 -6 -6 0 -14 6 -34 14 -45 31 -41 8 -48 -31 -9 -20 20 -25 22 -22 8 2 -10 18 -27 35 -38 43 -27 41 -35 -10 -35 -45 0 -60 14 -70 65 -2 12 -5 5 -8 -17 -5 -35 -2 -39 30 -54 24 -12 48 -15 84 -11 43 6 54 3 79 -18 16 -13 47 -30 69 -36 25 -8 38 -17 35 -25 -3 -7 4 -16 15 -19 10 -4 19 -11 19 -16 0 -14 -157 -7 -235 10 -34 8 -67 22 -77 33 -18 20 -18 20 -18 -2 0 -19 -4 -22 -35 -18 -19 2 -35 1 -35 -3 0 -10 56 -19 119 -19 38 0 66 -6 89 -20 28 -17 50 -20 167 -20 123 0 161 -7 141 -27 -10 -10 -277 -2 -304 9 -47 20 -183 27 -214 12 -31 -16 -89 -84 -82 -96 7 -11 1321 -10 1328 1 12 19 -46 59 -107 74 -68 16 -319 16 -410 -2 -50 -9 -87 -5 -87 9 0 10 37 23 47 17 5 -3 35 0 68 5 33 6 94 11 135 13 41 1 98 6 127 10 34 5 63 3 85 -5 46 -17 118 -29 118 -19 0 5 -11 11 -25 15 -27 7 -33 20 -12 27 6 2 1 2 -13 -2 -14 -3 -43 -4 -65 -3 -79 6 -101 5 -132 -3 -54 -13 -39 12 23 40 51 23 58 24 84 10 16 -8 39 -15 52 -14 14 0 5 6 -24 15 -56 17 -62 31 -15 37 28 3 27 4 -10 5 -28 1 -45 8 -52 20 -8 14 -10 10 -11 -20 0 -25 -5 -38 -13 -38 -8 0 -36 -11 -63 -25 -34 -17 -65 -25 -103 -25 l-54 0 24 26 c13 14 47 37 74 51 28 14 63 36 78 49 20 17 41 24 72 24 27 0 47 6 56 16 12 15 11 16 -10 9 -15 -4 -26 -3 -31 5 -6 9 -13 9 -28 1 -52 -28 -59 10 -7 40 43 26 46 35 4 13 -37 -18 -61 -6 -39 21 8 10 9 15 2 15 -19 0 -34 -40 -27 -70 5 -25 1 -35 -27 -60 -33 -31 -65 -46 -75 -36 -8 8 24 57 53 81 22 19 23 23 9 40 -13 19 -14 19 -15 2 0 -14 -5 -17 -22 -11 -21 6 -21 5 -9 -10 12 -15 11 -21 -9 -48 -12 -17 -25 -42 -29 -57 -5 -17 -25 -37 -61 -58 -101 -62 -97 -41 14 66 44 43 49 53 54 101 4 43 11 58 36 82 30 28 30 29 3 12 -32 -20 -47 -12 -29 16 7 11 8 20 2 20 -16 0 -30 -37 -37 -100 -3 -33 -9 -60 -13 -60 -16 0 -42 53 -37 76 2 13 0 24 -4 24 -15 0 -10 -65 6 -86 8 -10 14 -28 14 -39 1 -20 -101 -135 -119 -135 -20 0 -9 48 19 83 37 47 57 117 42 145 -18 34 -13 55 22 87 18 17 28 27 23 23 -19 -15 -38 -9 -31 10 4 11 3 14 -4 7 -5 -5 -11 -21 -13 -35 -2 -15 -11 -26 -22 -28 -16 -3 -18 1 -14 37 2 24 0 37 -5 32 -15 -15 -10 -89 7 -113 33 -47 9 -110 -29 -78 -11 9 -14 23 -9 47 5 26 3 32 -8 28 -9 -4 -19 4 -26 20 -6 14 -17 25 -23 25 -8 0 -6 -7 4 -18 10 -10 17 -26 17 -36 0 -22 17 -55 42 -83 20 -21 18 -63 -3 -63 -5 0 -18 -20 -29 -45 -22 -52 -45 -58 -73 -19 -27 37 -19 67 23 81 19 7 29 12 23 12 -7 1 -13 9 -13 19 -1 16 -1 16 -11 0 -16 -28 -36 -21 -37 12 0 17 -3 39 -7 50 -3 11 7 51 25 96 17 42 29 82 27 87 -2 6 -9 -4 -16 -21 -17 -41 -28 -40 -39 1 -7 25 -11 28 -16 15z"/>
   <path d="M680 1333 c0 -7 14 -76 30 -153 17 -77 30 -142 30 -143 0 -1 43 -2 96 -2 83 0 97 3 110 19 8 11 11 29 8 39 -4 12 9 4 34 -21 70 -70 164 -66 188 8 6 19 16 36 22 38 5 1 30 -17 54 -42 50 -50 100 -66 147 -46 28 11 51 46 51 75 0 8 6 15 14 15 18 0 33 -43 17 -48 -16 -5 -13 -42 4 -42 8 0 17 -12 21 -27 3 -16 7 -34 10 -40 5 -17 1 -16 -38 6 -58 34 -138 32 -175 -5 -21 -21 -30 -24 -42 -15 -67 47 -149 58 -197 26 -22 -14 -31 -15 -53 -5 -40 20 -103 21 -124 2 -16 -15 -20 -14 -48 2 -48 29 -96 24 -130 -13 -26 -29 -28 -36 -25 -100 2 -38 11 -83 21 -102 41 -79 112 -125 175 -112 28 5 29 4 40 -55 12 -59 13 -60 50 -66 43 -7 70 0 70 18 0 6 -16 83 -36 171 -45 206 -43 190 -15 190 23 0 26 -6 36 -60 21 -110 78 -187 150 -201 48 -9 82 2 101 31 35 54 -10 138 -91 172 -39 15 -45 22 -43 43 3 21 9 25 41 28 30 3 43 -2 67 -27 19 -19 30 -40 30 -58 0 -43 44 -128 82 -156 50 -38 109 -45 147 -17 62 43 28 135 -66 180 -45 21 -52 29 -50 50 2 21 8 25 39 28 29 2 43 -3 70 -26 30 -27 35 -42 58 -149 l25 -118 54 -3 c50 -3 53 -2 48 17 -4 18 -2 20 21 14 49 -14 85 -7 108 20 20 23 22 36 20 105 -4 90 -22 138 -72 182 -33 29 -58 35 -116 31 -22 -2 -28 2 -28 18 0 12 7 21 15 21 24 0 18 30 -8 39 -20 8 -26 23 -42 105 -10 52 -16 98 -13 101 10 11 34 -6 46 -33 6 -15 22 -42 34 -61 12 -19 32 -61 44 -95 20 -58 24 -61 62 -70 66 -14 74 -6 71 68 -2 36 0 68 4 72 10 11 9 98 -3 128 -16 44 -66 68 -130 61 -72 -7 -96 -7 -150 1 -73 9 -95 -29 -77 -133 6 -34 4 -43 -7 -43 -8 0 -17 14 -21 33 -11 50 -53 115 -85 132 -45 23 -104 19 -137 -9 -26 -22 -28 -30 -27 -90 1 -72 -10 -88 -20 -28 -7 47 -48 107 -86 127 -42 22 -102 19 -133 -5 -35 -28 -44 -78 -25 -146 l15 -54 -33 0 c-20 0 -37 -6 -42 -17 -20 -35 -38 -5 -61 98 -12 57 -24 111 -27 119 -5 19 -104 22 -104 3z m1038 -55 c14 -14 17 -118 3 -118 -13 0 -21 26 -21 67 0 26 -5 36 -20 40 -11 3 -17 9 -14 14 8 13 38 11 52 -3z m-628 -35 c15 -40 21 -163 9 -163 -16 0 -46 51 -64 109 -15 49 -16 63 -5 76 22 26 45 18 60 -22z m252 20 c22 -25 31 -59 33 -125 1 -49 -1 -58 -15 -58 -10 0 -20 8 -23 18 -3 9 -14 40 -25 68 -30 81 -11 143 30 97z m341 -351 c28 -31 47 -90 47 -147 0 -55 0 -56 -27 -53 -26 3 -28 8 -46 96 -23 116 -15 149 26 104z m-834 -15 c11 -14 41 -143 41 -178 0 -30 -30 -20 -57 19 -25 37 -49 132 -40 156 8 19 40 21 56 3z m332 -107 c19 -10 49 -59 49 -80 0 -5 -9 -10 -19 -10 -13 0 -26 15 -40 43 -29 60 -28 67 10 47z m268 -16 c24 -31 28 -74 7 -74 -12 0 -56 73 -56 93 0 17 30 5 49 -19z"/>
   <path d="M545 2133 c-14 -21 -25 -43 -25 -49 0 -17 -32 -42 -65 -50 -16 -4 -40 -14 -52 -21 -29 -19 -73 -146 -44 -129 5 3 14 26 20 50 11 45 41 76 72 76 17 0 99 75 99 90 0 5 12 22 26 39 20 24 22 31 10 31 -8 0 -27 -17 -41 -37z"/>
   <path d="M1937 2148 c11 -13 29 -39 41 -58 23 -40 73 -80 98 -80 9 0 29 -14 45 -31 16 -18 29 -25 29 -17 0 28 -32 58 -73 69 -44 11 -77 34 -77 53 0 21 -51 86 -67 86 -14 0 -14 -3 4 -22z"/>
   <path d="M2146 1918 c15 -49 73 -103 90 -85 4 4 -4 11 -18 16 -30 11 -44 29 -53 64 -4 15 -11 27 -17 27 -5 0 -6 -10 -2 -22z"/>
   <path d="M265 1817 c-25 -27 -29 -39 -26 -77 2 -42 -1 -50 -48 -103 -28 -32 -51 -66 -51 -75 1 -15 2 -15 15 2 8 11 15 24 15 30 0 5 18 27 40 47 37 35 40 41 40 92 0 52 2 58 37 86 21 17 31 31 23 31 -8 -1 -28 -15 -45 -33z"/>
   <path d="M2270 1745 c0 -63 14 -97 60 -140 31 -30 32 -31 25 -100 -6 -67 -5 -72 25 -112 18 -24 33 -43 36 -43 8 0 -10 36 -25 48 -13 10 -16 30 -14 97 l3 84 -51 58 c-49 55 -51 60 -46 106 2 26 0 50 -4 53 -5 3 -9 -20 -9 -51z"/>
   <path d="M146 1493 c6 -46 4 -55 -21 -87 -15 -19 -25 -41 -23 -47 2 -6 17 6 33 27 24 31 30 49 29 87 0 26 -6 53 -13 60 -10 9 -11 1 -5 -40z"/>
   <path d="M106 1280 c10 -33 9 -109 -1 -139 -6 -17 -5 -22 3 -17 34 21 38 123 6 162 -15 18 -15 18 -8 -6z"/>
   <path d="M2396 1268 c-9 -21 -16 -47 -16 -58 0 -28 31 -98 37 -83 2 7 0 21 -6 32 -6 11 -11 34 -11 51 0 17 5 40 11 51 6 11 8 25 6 32 -3 7 -12 -5 -21 -25z"/>
   <path d="M2398 1050 c-10 -9 -18 -21 -18 -27 0 -6 -7 -16 -16 -24 -13 -10 -14 -25 -9 -80 l7 -66 -46 -52 c-43 -48 -46 -56 -46 -105 0 -54 -1 -55 -60 -106 -50 -43 -60 -57 -60 -83 l1 -32 13 30 c7 17 38 51 68 77 55 47 55 47 51 95 -5 46 -3 50 47 107 l52 59 -7 73 c-6 69 -5 75 21 109 29 38 30 53 2 25z"/>
   <path d="M140 861 c0 -11 23 -46 51 -78 49 -55 51 -60 46 -106 -4 -47 -4 -48 55 -98 46 -41 61 -60 69 -95 6 -25 16 -47 22 -51 7 -4 8 0 2 13 -4 10 -10 36 -13 57 -3 31 -14 46 -63 89 -58 50 -59 52 -59 105 0 50 -3 57 -45 102 -25 26 -45 53 -45 59 0 6 -4 14 -10 17 -5 3 -10 -3 -10 -14z"/>
   <path d="M403 412 c4 -6 20 -13 37 -17 27 -6 41 -19 122 -116 22 -27 33 -32 70 -31 33 0 50 -6 71 -26 20 -19 27 -22 27 -10 0 25 -32 45 -83 51 -47 5 -97 36 -97 62 0 18 -63 72 -90 77 -14 3 -34 9 -44 13 -13 6 -17 5 -13 -3z"/>
   <path d="M2090 410 c-8 -5 -24 -10 -36 -10 -22 0 -61 -38 -90 -87 -18 -32 -57 -53 -100 -53 -27 0 -84 -46 -84 -68 0 -11 11 -6 38 19 29 28 45 36 76 37 31 0 44 7 65 31 80 96 95 110 121 116 17 4 32 11 35 16 8 12 -6 11 -25 -1z"/>
   <path d="M940 76 c0 -2 16 -14 36 -26 37 -23 38 -23 149 1 36 7 35 8 -10 2 -90 -10 -123 -8 -143 10 -18 16 -32 22 -32 13z"/>
   <path d="M1547 63 c-18 -18 -55 -20 -142 -8 -38 5 -55 3 -70 -9 -11 -8 -15 -16 -8 -16 6 0 15 5 18 10 8 13 59 13 105 -1 21 -7 49 -9 62 -5 26 7 79 45 63 46 -6 0 -18 -8 -28 -17z"/>
   </g>
  <g id="layer104" fill="#23aeaf" stroke="none">
   <path d="M1165 2198 c-217 -17 -423 -110 -588 -267 -153 -146 -255 -333 -297 -544 -17 -85 -14 -278 5 -372 95 -462 504 -795 975 -795 396 0 755 236 910 599 65 149 75 205 75 396 0 200 -15 266 -94 430 -184 378 -556 586 -986 553z m280 -67 c121 -25 232 -71 330 -136 496 -330 568 -1022 151 -1441 -364 -365 -929 -377 -1307 -26 -130 121 -224 282 -276 472 -26 99 -24 338 6 445 113 417 479 702 906 704 61 1 135 -7 190 -18z"/>
   <path d="M1186 1938 c-4 -9 -2 -27 4 -39 10 -18 10 -25 -1 -33 -10 -8 -14 -34 -14 -83 0 -40 -1 -73 -2 -73 -2 0 -19 17 -38 38 -25 26 -33 43 -29 57 3 11 9 46 13 78 7 60 -3 79 -14 27 -7 -33 -21 -37 -51 -15 -33 25 -36 16 -3 -13 29 -26 31 -32 25 -66 -7 -35 -10 -38 -34 -33 -25 5 -25 4 -7 -9 10 -8 24 -14 31 -14 25 0 81 -76 88 -119 3 -23 14 -53 23 -67 21 -32 12 -39 -31 -24 -42 13 -49 25 -67 101 -10 45 -16 55 -30 52 -12 -4 -25 6 -38 28 -24 38 -26 67 -10 103 9 19 8 29 -5 47 -19 27 -22 18 -4 -11 10 -16 10 -23 -5 -37 -16 -16 -18 -15 -47 12 -16 16 -33 25 -37 22 -3 -4 -1 -7 6 -7 7 0 24 -25 38 -56 20 -45 23 -58 12 -64 -10 -7 -7 -12 12 -20 25 -12 64 -56 75 -84 5 -13 -1 -16 -28 -16 -27 0 -43 9 -81 48 -39 40 -47 53 -43 77 2 17 1 24 -1 18 -9 -26 -36 -7 -46 32 -4 16 -5 15 -6 -6 0 -14 6 -34 14 -45 31 -41 8 -48 -31 -9 -20 20 -25 22 -22 8 2 -10 18 -27 35 -38 43 -27 41 -35 -10 -35 -45 0 -60 14 -70 65 -2 12 -5 5 -8 -17 -5 -35 -2 -39 30 -54 24 -12 48 -15 84 -11 43 6 54 3 79 -18 16 -13 47 -30 69 -36 25 -8 38 -17 35 -25 -3 -7 4 -16 15 -19 10 -4 19 -11 19 -16 0 -14 -157 -7 -235 10 -34 8 -67 22 -77 33 -18 20 -18 20 -18 -2 0 -19 -4 -22 -35 -18 -19 2 -35 1 -35 -3 0 -10 56 -19 119 -19 38 0 66 -6 89 -20 28 -17 50 -20 167 -20 123 0 161 -7 141 -27 -10 -10 -277 -2 -304 9 -47 20 -183 27 -214 12 -31 -16 -89 -84 -82 -96 7 -11 1321 -10 1328 1 12 19 -46 59 -107 74 -68 16 -319 16 -410 -2 -50 -9 -87 -5 -87 9 0 10 37 23 47 17 5 -3 35 0 68 5 33 6 94 11 135 13 41 1 98 6 127 10 34 5 63 3 85 -5 46 -17 118 -29 118 -19 0 5 -11 11 -25 15 -27 7 -33 20 -12 27 6 2 1 2 -13 -2 -14 -3 -43 -4 -65 -3 -79 6 -101 5 -132 -3 -54 -13 -39 12 23 40 51 23 58 24 84 10 16 -8 39 -15 52 -14 14 0 5 6 -24 15 -56 17 -62 31 -15 37 28 3 27 4 -10 5 -28 1 -45 8 -52 20 -8 14 -10 10 -11 -20 0 -25 -5 -38 -13 -38 -8 0 -36 -11 -63 -25 -34 -17 -65 -25 -103 -25 l-54 0 24 26 c13 14 47 37 74 51 28 14 63 36 78 49 20 17 41 24 72 24 27 0 47 6 56 16 12 15 11 16 -10 9 -15 -4 -26 -3 -31 5 -6 9 -13 9 -28 1 -52 -28 -59 10 -7 40 43 26 46 35 4 13 -37 -18 -61 -6 -39 21 8 10 9 15 2 15 -19 0 -34 -40 -27 -70 5 -25 1 -35 -27 -60 -33 -31 -65 -46 -75 -36 -8 8 24 57 53 81 22 19 23 23 9 40 -13 19 -14 19 -15 2 0 -14 -5 -17 -22 -11 -21 6 -21 5 -9 -10 12 -15 11 -21 -9 -48 -12 -17 -25 -42 -29 -57 -5 -17 -25 -37 -61 -58 -101 -62 -97 -41 14 66 44 43 49 53 54 101 4 43 11 58 36 82 30 28 30 29 3 12 -32 -20 -47 -12 -29 16 7 11 8 20 2 20 -16 0 -30 -37 -37 -100 -3 -33 -9 -60 -13 -60 -16 0 -42 53 -37 76 2 13 0 24 -4 24 -15 0 -10 -65 6 -86 8 -10 14 -28 14 -39 1 -20 -101 -135 -119 -135 -20 0 -9 48 19 83 37 47 57 117 42 145 -18 34 -13 55 22 87 18 17 28 27 23 23 -19 -15 -38 -9 -31 10 4 11 3 14 -4 7 -5 -5 -11 -21 -13 -35 -2 -15 -11 -26 -22 -28 -16 -3 -18 1 -14 37 2 24 0 37 -5 32 -15 -15 -10 -89 7 -113 33 -47 9 -110 -29 -78 -11 9 -14 23 -9 47 5 26 3 32 -8 28 -9 -4 -19 4 -26 20 -6 14 -17 25 -23 25 -8 0 -6 -7 4 -18 10 -10 17 -26 17 -36 0 -22 17 -55 42 -83 20 -21 18 -63 -3 -63 -5 0 -18 -20 -29 -45 -22 -52 -45 -58 -73 -19 -27 37 -19 67 23 81 19 7 29 12 23 12 -7 1 -13 9 -13 19 -1 16 -1 16 -11 0 -16 -28 -36 -21 -37 12 0 17 -3 39 -7 50 -3 11 7 51 25 96 17 42 29 82 27 87 -2 6 -9 -4 -16 -21 -17 -41 -28 -40 -39 1 -7 25 -11 28 -16 15z"/>
   <path d="M982 1335 c-103 -45 -37 -273 88 -300 44 -10 89 11 96 44 3 14 7 32 10 39 6 22 36 13 68 -23 32 -35 90 -65 124 -65 30 0 70 37 74 68 2 19 9 27 23 27 17 0 20 -7 20 -40 0 -22 5 -44 12 -50 13 -10 30 -95 20 -95 -3 0 -27 11 -53 25 -26 14 -60 25 -76 25 -30 0 -88 -25 -88 -38 0 -4 -4 -13 -9 -20 -6 -11 -18 -7 -53 18 -55 39 -113 48 -156 26 -18 -9 -32 -21 -32 -26 0 -16 -20 -12 -47 10 -35 27 -97 27 -116 -1 -15 -20 -15 -20 -52 5 -49 34 -80 33 -116 -3 -24 -25 -29 -38 -29 -79 0 -90 49 -185 111 -218 17 -8 48 -14 71 -12 l40 3 14 -54 c19 -71 19 -71 70 -71 38 0 45 3 40 18 -18 63 -75 355 -71 363 9 13 41 11 53 -3 5 -7 13 -33 17 -58 17 -112 76 -187 155 -197 125 -17 119 133 -8 182 -44 17 -52 24 -52 46 0 52 53 65 110 27 26 -18 37 -36 50 -84 33 -122 94 -181 177 -171 25 3 49 11 54 18 15 24 10 73 -11 106 -19 32 -84 73 -115 73 -20 0 -20 53 0 70 23 19 84 5 116 -26 22 -21 32 -47 49 -123 31 -141 32 -143 83 -139 35 2 41 6 39 22 -3 15 0 17 15 11 47 -21 81 -17 109 10 25 25 26 31 22 104 -8 133 -76 219 -165 207 -31 -4 -42 -2 -47 10 -10 27 -7 44 9 44 8 0 15 5 15 10 0 6 -8 10 -18 10 -15 0 -23 17 -40 90 -29 118 -28 130 3 130 19 0 28 -8 36 -27 6 -16 19 -37 29 -48 11 -11 31 -52 45 -90 15 -39 30 -73 33 -77 4 -4 25 -10 48 -14 l41 -6 7 121 c8 144 -1 169 -64 195 -53 21 -72 20 -104 -5 l-28 -22 -39 23 c-48 26 -81 21 -106 -16 -15 -23 -15 -35 -5 -92 6 -37 10 -67 9 -69 -2 -1 -13 0 -25 4 -14 3 -22 13 -22 27 0 12 -12 45 -26 73 -20 41 -35 56 -69 73 -39 19 -49 20 -80 10 -52 -17 -68 -48 -63 -120 4 -50 2 -60 -11 -60 -11 0 -20 16 -28 49 -16 66 -38 98 -84 122 -45 22 -53 23 -97 4z m83 -51 c28 -11 48 -66 50 -141 3 -79 -7 -91 -43 -53 -34 36 -62 161 -42 185 14 17 13 17 35 9z m270 0 c28 -11 48 -66 50 -142 3 -69 2 -73 -19 -70 -43 6 -95 168 -66 203 14 17 13 17 35 9z m393 -6 c13 -13 15 -101 3 -133 -7 -18 -10 -17 -25 14 -10 18 -16 45 -13 58 3 17 -2 28 -14 36 -11 7 -19 17 -19 24 0 17 52 17 68 1z m-33 -372 c29 -29 47 -92 43 -154 -3 -51 -19 -63 -52 -39 -18 13 -61 190 -50 208 9 16 34 10 59 -15z m-841 -8 c12 -19 46 -159 46 -189 0 -16 -46 -9 -63 9 -27 30 -47 89 -47 140 0 27 3 52 7 55 14 14 43 6 57 -15z m329 -98 c49 -38 59 -124 12 -106 -17 6 -54 80 -55 109 0 22 11 22 43 -3z m257 -7 c20 -18 33 -41 37 -66 5 -36 4 -39 -17 -35 -15 2 -30 16 -41 38 -24 48 -34 90 -20 90 6 0 24 -12 41 -27z"/>
   <path d="M690 1335 c0 -3 14 -69 30 -147 17 -77 30 -143 30 -145 0 -10 89 -1 93 10 4 10 7 10 18 0 21 -21 67 -16 79 8 9 16 8 26 -5 45 -19 29 -41 31 -55 4 -12 -23 -33 -26 -48 -7 -6 6 -20 63 -33 125 l-22 112 -44 0 c-24 0 -43 -2 -43 -5z"/>
   <path d="M2328 803 c-27 -29 -48 -58 -48 -65 0 -10 76 70 93 99 19 31 0 17 -45 -34z"/>
   <path d="M230 640 c0 -4 27 -31 60 -60 48 -42 63 -61 71 -96 6 -25 15 -47 20 -50 12 -7 12 -7 -11 56 -12 33 -30 63 -47 75 -15 11 -42 34 -60 52 -18 17 -33 27 -33 23z"/>
   <path d="M2272 630 c-7 -11 -30 -31 -52 -45 -40 -25 -75 -77 -66 -98 2 -7 5 -3 5 8 1 10 31 47 68 82 37 34 65 64 62 67 -2 3 -10 -4 -17 -14z"/>
   <path d="M405 411 c3 -5 18 -12 35 -16 26 -6 75 -51 108 -101 10 -16 11 -15 1 6 -24 51 -50 78 -94 99 -50 23 -59 25 -50 12z"/>
   <path d="M2066 400 c-52 -26 -58 -32 -84 -82 -13 -24 -17 -34 -10 -24 34 50 82 95 108 101 17 4 32 11 35 16 9 14 -6 10 -49 -11z"/>
   <path d="M940 76 c0 -2 16 -14 36 -26 37 -23 38 -23 149 1 36 7 35 8 -10 2 -90 -10 -123 -8 -143 10 -18 16 -32 22 -32 13z"/>
   <path d="M1547 63 c-18 -18 -55 -20 -142 -8 -38 5 -55 3 -70 -9 -11 -8 -15 -16 -8 -16 6 0 15 5 18 10 8 13 59 13 105 -1 21 -7 49 -9 62 -5 26 7 79 45 63 46 -6 0 -18 -8 -28 -17z"/>
   </g>
  <g id="layer105" fill="#d9cdb8" stroke="none">
   <path d="M982 1335 c-103 -45 -37 -273 88 -300 44 -10 89 11 96 44 3 14 7 32 10 39 6 22 36 13 68 -23 32 -35 90 -65 124 -65 30 0 70 37 74 68 2 19 9 27 23 27 17 0 20 -7 20 -40 0 -22 5 -44 12 -50 13 -10 30 -95 20 -95 -3 0 -27 11 -53 25 -26 14 -60 25 -76 25 -30 0 -88 -25 -88 -38 0 -4 -4 -13 -9 -20 -6 -11 -18 -7 -53 18 -55 39 -113 48 -156 26 -18 -9 -32 -21 -32 -26 0 -16 -20 -12 -47 10 -35 27 -97 27 -116 -1 -15 -20 -15 -20 -52 5 -49 34 -80 33 -116 -3 -24 -25 -29 -38 -29 -79 0 -90 49 -185 111 -218 17 -8 48 -14 71 -12 l40 3 14 -54 c19 -71 19 -71 70 -71 38 0 45 3 40 18 -18 63 -75 355 -71 363 9 13 41 11 53 -3 5 -7 13 -33 17 -58 17 -112 76 -187 155 -197 125 -17 119 133 -8 182 -44 17 -52 24 -52 46 0 52 53 65 110 27 26 -18 37 -36 50 -84 33 -122 94 -181 177 -171 25 3 49 11 54 18 15 24 10 73 -11 106 -19 32 -84 73 -115 73 -20 0 -20 53 0 70 23 19 84 5 116 -26 22 -21 32 -47 49 -123 31 -141 32 -143 83 -139 35 2 41 6 39 22 -3 15 0 17 15 11 47 -21 81 -17 109 10 25 25 26 31 22 104 -8 133 -76 219 -165 207 -31 -4 -42 -2 -47 10 -10 27 -7 44 9 44 8 0 15 5 15 10 0 6 -8 10 -18 10 -15 0 -23 17 -40 90 -29 118 -28 130 3 130 19 0 28 -8 36 -27 6 -16 19 -37 29 -48 11 -11 31 -52 45 -90 15 -39 30 -73 33 -77 4 -4 25 -10 48 -14 l41 -6 7 121 c8 144 -1 169 -64 195 -53 21 -72 20 -104 -5 l-28 -22 -39 23 c-48 26 -81 21 -106 -16 -15 -23 -15 -35 -5 -92 6 -37 10 -67 9 -69 -2 -1 -13 0 -25 4 -14 3 -22 13 -22 27 0 12 -12 45 -26 73 -20 41 -35 56 -69 73 -39 19 -49 20 -80 10 -52 -17 -68 -48 -63 -120 4 -50 2 -60 -11 -60 -11 0 -20 16 -28 49 -16 66 -38 98 -84 122 -45 22 -53 23 -97 4z m83 -51 c28 -11 48 -66 50 -141 3 -79 -7 -91 -43 -53 -34 36 -62 161 -42 185 14 17 13 17 35 9z m270 0 c28 -11 48 -66 50 -142 3 -69 2 -73 -19 -70 -43 6 -95 168 -66 203 14 17 13 17 35 9z m393 -6 c13 -13 15 -101 3 -133 -7 -18 -10 -17 -25 14 -10 18 -16 45 -13 58 3 17 -2 28 -14 36 -11 7 -19 17 -19 24 0 17 52 17 68 1z m-33 -372 c29 -29 47 -92 43 -154 -3 -51 -19 -63 -52 -39 -18 13 -61 190 -50 208 9 16 34 10 59 -15z m-841 -8 c12 -19 46 -159 46 -189 0 -16 -46 -9 -63 9 -27 30 -47 89 -47 140 0 27 3 52 7 55 14 14 43 6 57 -15z m329 -98 c49 -38 59 -124 12 -106 -17 6 -54 80 -55 109 0 22 11 22 43 -3z m257 -7 c20 -18 33 -41 37 -66 5 -36 4 -39 -17 -35 -15 2 -30 16 -41 38 -24 48 -34 90 -20 90 6 0 24 -12 41 -27z"/>
   <path d="M690 1335 c0 -3 14 -69 30 -147 17 -77 30 -143 30 -145 0 -10 89 -1 93 10 4 10 7 10 18 0 21 -21 67 -16 79 8 9 16 8 26 -5 45 -19 29 -41 31 -55 4 -12 -23 -33 -26 -48 -7 -6 6 -20 63 -33 125 l-22 112 -44 0 c-24 0 -43 -2 -43 -5z"/>
   <path d="M2328 803 c-27 -29 -48 -58 -48 -65 0 -10 76 70 93 99 19 31 0 17 -45 -34z"/>
   <path d="M230 640 c0 -4 27 -31 60 -60 48 -42 63 -61 71 -96 6 -25 15 -47 20 -50 12 -7 12 -7 -11 56 -12 33 -30 63 -47 75 -15 11 -42 34 -60 52 -18 17 -33 27 -33 23z"/>
   <path d="M2272 630 c-7 -11 -30 -31 -52 -45 -40 -25 -75 -77 -66 -98 2 -7 5 -3 5 8 1 10 31 47 68 82 37 34 65 64 62 67 -2 3 -10 -4 -17 -14z"/>
   <path d="M405 411 c3 -5 18 -12 35 -16 26 -6 75 -51 108 -101 10 -16 11 -15 1 6 -24 51 -50 78 -94 99 -50 23 -59 25 -50 12z"/>
   <path d="M2066 400 c-52 -26 -58 -32 -84 -82 -13 -24 -17 -34 -10 -24 34 50 82 95 108 101 17 4 32 11 35 16 9 14 -6 10 -49 -11z"/>
   <path d="M940 76 c0 -2 16 -14 36 -26 37 -23 38 -23 149 1 36 7 35 8 -10 2 -90 -10 -123 -8 -143 10 -18 16 -32 22 -32 13z"/>
   <path d="M1547 63 c-18 -18 -55 -20 -142 -8 -38 5 -55 3 -70 -9 -11 -8 -15 -16 -8 -16 6 0 15 5 18 10 8 13 59 13 105 -1 21 -7 49 -9 62 -5 26 7 79 45 63 46 -6 0 -18 -8 -28 -17z"/>
   </g>

</svg>

<svg id="logo" version="1.0" xmlns="http://www.w3.org/2000/svg" width="253px" height="253px" viewBox="0 0 2530 2530" preserveAspectRatio="xMidYMid meet">
        <g id="layer101" fill="#3d3e40" stroke="none">
         <path d="M1225 2373 c-11 -3 -32 -14 -47 -24 -31 -23 -41 -23 -93 -4 -65 23 -88 19 -139 -26 -44 -39 -49 -41 -104 -38 -57 4 -57 3 -102 -44 -40 -42 -52 -49 -108 -58 -56 -10 -66 -15 -87 -47 -14 -20 -25 -42 -25 -48 0 -17 -32 -42 -65 -50 -53 -13 -74 -34 -92 -93 -17 -56 -38 -91 -56 -91 -5 0 -23 -15 -40 -32 -27 -29 -31 -39 -28 -78 2 -42 -1 -50 -49 -104 l-52 -60 6 -68 c7 -63 5 -70 -19 -103 -24 -31 -26 -40 -21 -92 9 -73 9 -133 1 -203 -6 -51 -4 -58 20 -84 26 -28 27 -32 20 -106 l-7 -77 52 -59 c50 -57 52 -61 47 -107 -4 -47 -4 -48 54 -98 44 -38 61 -61 70 -92 13 -48 43 -83 82 -92 24 -6 39 -21 119 -116 22 -27 33 -32 70 -31 55 0 98 -36 98 -84 0 -39 26 -51 121 -56 59 -3 70 -7 98 -36 40 -39 71 -48 121 -33 54 16 84 14 125 -9 45 -25 85 -25 130 0 41 23 71 25 125 9 50 -15 81 -6 120 33 29 29 40 32 109 37 87 7 101 13 101 45 0 12 16 37 38 57 29 28 45 36 76 37 31 0 44 7 65 31 14 18 41 49 58 70 18 21 47 42 65 47 27 8 39 21 66 76 23 45 50 81 86 112 53 45 53 46 49 93 -5 46 -3 50 47 107 l52 59 -7 73 c-6 69 -5 75 20 108 24 32 26 41 20 88 -6 53 -7 101 -2 211 2 49 -1 61 -18 73 -18 13 -20 25 -18 99 l3 84 -51 58 c-47 53 -50 61 -48 103 3 39 -1 49 -28 78 -17 17 -35 32 -40 32 -19 0 -41 35 -57 89 -20 68 -29 78 -80 92 -43 11 -76 34 -76 53 0 6 -11 28 -25 48 -21 32 -31 37 -87 47 -56 9 -68 16 -108 58 -45 47 -45 48 -102 44 -55 -3 -60 -1 -107 39 -54 46 -59 46 -152 20 -43 -12 -48 -12 -75 7 -32 23 -87 35 -119 26z"/>
         </g>
        <g id="layer102" fill="#375859" stroke="none">
         <path d="M1165 2208 c-233 -19 -465 -134 -636 -315 -78 -83 -114 -133 -162 -228 -80 -158 -113 -316 -104 -504 7 -143 34 -257 91 -376 199 -419 660 -646 1116 -550 338 72 626 326 736 649 87 254 69 537 -48 770 -53 107 -88 156 -177 248 -216 227 -497 332 -816 306z m282 -82 c294 -63 560 -282 672 -555 56 -134 66 -192 65 -366 -1 -143 -3 -169 -27 -248 -139 -454 -574 -734 -1034 -663 -234 35 -432 148 -583 329 -210 252 -268 619 -149 929 106 274 381 509 672 572 85 19 299 20 384 2z"/>
         <path d="M1170 2110 c-141 -14 -302 -73 -427 -158 -73 -50 -207 -191 -251 -265 -93 -156 -134 -300 -134 -477 -1 -433 308 -804 737 -885 114 -22 287 -16 395 14 426 115 715 528 670 958 -13 116 -32 189 -80 291 -165 352 -526 559 -910 522z m301 -44 c349 -97 606 -379 660 -726 14 -91 6 -249 -17 -340 -9 -36 -33 -102 -54 -146 -150 -325 -447 -516 -800 -516 -345 0 -640 186 -795 502 -62 123 -78 203 -78 375 0 134 2 159 26 238 101 331 364 565 705 627 68 13 288 4 353 -14z"/>
         <path id="roots" d="M1182 1916 c4 -32 2 -46 -6 -46 -9 0 -12 -20 -10 -65 1 -36 -1 -65 -5 -65 -4 0 -18 11 -31 25 -22 23 -23 29 -12 58 16 46 16 130 0 125 -7 -3 -14 -17 -16 -31 -4 -32 -20 -34 -55 -7 -39 31 -46 4 -7 -28 25 -22 31 -33 28 -57 -2 -23 -8 -30 -25 -30 -35 -1 -32 -18 6 -37 54 -27 84 -64 97 -116 7 -26 15 -57 19 -69 7 -21 6 -21 -24 -10 -23 8 -34 22 -46 56 -8 24 -15 60 -15 78 0 31 -1 32 -21 21 -17 -11 -22 -10 -35 7 -23 31 -28 65 -15 100 13 37 -1 85 -26 85 -16 0 -17 -32 -1 -48 9 -9 9 -15 -1 -24 -10 -11 -16 -8 -33 15 -11 15 -28 27 -39 27 -25 0 -24 -10 5 -38 29 -27 43 -77 26 -97 -9 -11 -5 -17 19 -29 26 -14 71 -64 71 -80 0 -19 -44 0 -85 37 -38 35 -46 48 -40 65 9 29 -3 62 -22 62 -9 0 -13 -6 -9 -15 3 -8 1 -15 -4 -15 -6 0 -10 12 -10 26 0 16 -5 24 -12 21 -14 -4 -16 -38 -4 -77 6 -23 4 -22 -24 10 l-32 35 6 -35 c6 -32 22 -53 50 -63 23 -9 -4 -19 -33 -12 -25 5 -33 14 -41 46 -12 42 -30 44 -30 4 0 -15 -7 -26 -20 -30 -24 -7 -17 -25 9 -25 10 0 33 -7 50 -16 24 -12 46 -15 79 -10 38 5 50 2 77 -18 18 -14 45 -28 61 -33 27 -7 26 -8 -20 -14 -58 -9 -66 -6 -66 27 0 13 -4 24 -10 24 -5 0 -10 -7 -10 -16 0 -11 -8 -14 -32 -12 -18 2 -33 -2 -35 -9 -3 -7 2 -13 11 -13 8 0 18 -5 21 -11 15 -24 -71 5 -96 33 -15 15 -34 28 -43 28 -8 0 -19 8 -25 17 -5 10 -13 15 -16 11 -14 -13 5 -39 35 -49 39 -14 42 -44 3 -34 -58 14 -93 17 -93 7 0 -5 10 -13 23 -16 22 -6 22 -7 -8 -31 -27 -22 -28 -25 -9 -25 11 0 29 6 40 14 24 18 175 11 216 -10 18 -10 66 -14 152 -14 121 0 156 -4 156 -20 0 -11 -282 1 -305 13 -33 18 -176 26 -205 12 -29 -15 -72 -60 -89 -92 -8 -17 -8 -22 5 -27 25 -9 1317 -7 1333 3 24 16 -16 58 -77 82 -51 20 -74 22 -227 22 -121 -1 -163 2 -145 9 14 5 50 7 80 5 33 -3 76 1 108 10 47 13 59 13 105 -1 103 -30 175 -28 120 3 -14 7 -15 12 -5 24 20 23 -1 29 -43 11 -31 -13 -46 -13 -86 -4 -36 9 -57 9 -81 1 -51 -18 -45 -3 8 20 46 20 51 20 77 5 36 -20 77 -21 77 -1 0 9 -9 15 -24 15 -14 0 -28 5 -31 10 -3 6 3 10 15 10 30 0 60 18 60 35 0 17 -16 20 -25 5 -10 -17 -115 -12 -121 5 -9 22 -24 8 -24 -23 0 -23 -9 -31 -59 -54 -62 -29 -136 -38 -129 -15 3 6 35 29 73 50 38 21 76 44 85 52 9 8 35 15 57 15 27 0 46 6 57 19 20 22 4 40 -19 21 -12 -10 -15 -9 -15 4 0 19 -13 20 -40 4 -10 -7 -23 -9 -27 -4 -4 5 0 13 11 20 10 6 28 19 40 29 l21 18 -25 -4 c-14 -2 -34 -8 -44 -12 -16 -7 -18 -5 -13 8 4 9 10 24 14 33 11 29 -20 10 -45 -26 -22 -32 -23 -33 -29 -12 -6 25 -18 29 -27 7 -6 -18 -46 -20 -46 -3 0 7 16 29 36 49 20 20 31 39 26 43 -5 3 -15 -1 -22 -9 -18 -21 -32 -18 -25 5 4 14 2 20 -9 20 -24 0 -46 -53 -46 -110 0 -27 -3 -50 -6 -50 -15 0 -33 37 -34 68 0 34 -14 43 -24 16 -10 -27 -7 -48 15 -88 l21 -39 -53 -53 c-29 -30 -57 -54 -61 -54 -16 0 -7 35 16 59 42 46 58 129 35 173 -10 19 -7 26 30 57 23 20 41 42 41 49 0 17 -17 15 -24 -3 -3 -8 -10 -15 -17 -15 -6 0 -8 7 -5 16 4 11 1 14 -12 12 -11 -2 -18 -14 -20 -36 -5 -46 -22 -40 -22 8 0 22 -4 40 -10 40 -13 0 -29 -63 -23 -94 7 -33 -21 -36 -46 -4 -11 13 -23 18 -30 14 -10 -6 -9 -12 2 -24 8 -10 17 -33 21 -53 3 -20 17 -46 31 -59 30 -28 31 -41 5 -65 -10 -9 -24 -33 -30 -51 -7 -19 -17 -34 -24 -34 -19 0 -46 34 -46 58 0 18 6 22 29 22 37 0 44 10 28 44 -14 29 -25 33 -33 11 -10 -26 -20 -16 -22 22 -2 20 -5 40 -8 45 -3 4 11 47 30 95 20 48 34 88 32 90 -8 8 -36 -10 -41 -28 -8 -26 -23 -24 -27 3 -2 12 -9 24 -17 26 -11 4 -13 -5 -9 -42z m188 -157 c0 -19 -5 -29 -14 -29 -22 0 -28 17 -21 51 6 24 9 28 21 18 8 -6 14 -24 14 -40z m260 -37 c0 -13 -23 -38 -52 -57 -23 -14 -28 -15 -28 -3 0 20 45 68 65 68 8 0 15 -4 15 -8z m-124 -68 c-3 -9 -6 -19 -6 -24 0 -12 -68 -52 -81 -48 -6 2 8 23 32 46 46 44 65 53 55 26z"/>
         <path d="M680 1333 c0 -7 14 -76 30 -153 17 -77 30 -142 30 -143 0 -1 43 -2 96 -2 83 0 97 3 110 19 8 11 11 29 8 39 -4 12 9 4 34 -21 70 -70 164 -66 188 8 6 19 16 36 22 38 5 1 30 -17 54 -42 50 -50 100 -66 147 -46 28 11 51 46 51 75 0 8 6 15 14 15 18 0 33 -43 17 -48 -16 -5 -13 -42 4 -42 8 0 17 -12 21 -27 3 -16 7 -34 10 -40 5 -17 1 -16 -38 6 -58 34 -138 32 -175 -5 -21 -21 -30 -24 -42 -15 -67 47 -149 58 -197 26 -22 -14 -31 -15 -53 -5 -40 20 -103 21 -124 2 -16 -15 -20 -14 -48 2 -48 29 -96 24 -130 -13 -26 -29 -28 -36 -25 -100 2 -38 11 -83 21 -102 41 -79 112 -125 175 -112 28 5 29 4 40 -55 12 -59 13 -60 50 -66 43 -7 70 0 70 18 0 6 -16 83 -36 171 -45 206 -43 190 -15 190 23 0 26 -6 36 -60 21 -110 78 -187 150 -201 48 -9 82 2 101 31 35 54 -10 138 -91 172 -39 15 -45 22 -43 43 3 21 9 25 41 28 30 3 43 -2 67 -27 19 -19 30 -40 30 -58 0 -43 44 -128 82 -156 50 -38 109 -45 147 -17 62 43 28 135 -66 180 -45 21 -52 29 -50 50 2 21 8 25 39 28 29 2 43 -3 70 -26 30 -27 35 -42 58 -149 l25 -118 54 -3 c50 -3 53 -2 48 17 -4 18 -2 20 21 14 49 -14 85 -7 108 20 20 23 22 36 20 105 -4 90 -22 138 -72 182 -33 29 -58 35 -116 31 -22 -2 -28 2 -28 18 0 12 7 21 15 21 24 0 18 30 -8 39 -20 8 -26 23 -42 105 -10 52 -16 98 -13 101 10 11 34 -6 46 -33 6 -15 22 -42 34 -61 12 -19 32 -61 44 -95 20 -58 24 -61 62 -70 66 -14 74 -6 71 68 -2 36 0 68 4 72 10 11 9 98 -3 128 -16 44 -66 68 -130 61 -72 -7 -96 -7 -150 1 -73 9 -95 -29 -77 -133 6 -34 4 -43 -7 -43 -8 0 -17 14 -21 33 -11 50 -53 115 -85 132 -45 23 -104 19 -137 -9 -26 -22 -28 -30 -27 -90 1 -72 -10 -88 -20 -28 -7 47 -48 107 -86 127 -42 22 -102 19 -133 -5 -35 -28 -44 -78 -25 -146 l15 -54 -33 0 c-20 0 -37 -6 -42 -17 -20 -35 -38 -5 -61 98 -12 57 -24 111 -27 119 -5 19 -104 22 -104 3z m1038 -55 c14 -14 17 -118 3 -118 -13 0 -21 26 -21 67 0 26 -5 36 -20 40 -11 3 -17 9 -14 14 8 13 38 11 52 -3z m-628 -35 c15 -40 21 -163 9 -163 -16 0 -46 51 -64 109 -15 49 -16 63 -5 76 22 26 45 18 60 -22z m252 20 c22 -25 31 -59 33 -125 1 -49 -1 -58 -15 -58 -10 0 -20 8 -23 18 -3 9 -14 40 -25 68 -30 81 -11 143 30 97z m341 -351 c28 -31 47 -90 47 -147 0 -55 0 -56 -27 -53 -26 3 -28 8 -46 96 -23 116 -15 149 26 104z m-834 -15 c11 -14 41 -143 41 -178 0 -30 -30 -20 -57 19 -25 37 -49 132 -40 156 8 19 40 21 56 3z m332 -107 c19 -10 49 -59 49 -80 0 -5 -9 -10 -19 -10 -13 0 -26 15 -40 43 -29 60 -28 67 10 47z m268 -16 c24 -31 28 -74 7 -74 -12 0 -56 73 -56 93 0 17 30 5 49 -19z"/>
        </g>
        <g id="layer103" fill="#595857" stroke="none">
         <path d="M1186 1938 c-4 -9 -2 -27 4 -39 10 -18 10 -25 -1 -33 -10 -8 -14 -34 -14 -83 0 -40 -1 -73 -2 -73 -2 0 -19 17 -38 38 -25 26 -33 43 -29 57 3 11 9 46 13 78 7 60 -3 79 -14 27 -7 -33 -21 -37 -51 -15 -33 25 -36 16 -3 -13 29 -26 31 -32 25 -66 -7 -35 -10 -38 -34 -33 -25 5 -25 4 -7 -9 10 -8 24 -14 31 -14 25 0 81 -76 88 -119 3 -23 14 -53 23 -67 21 -32 12 -39 -31 -24 -42 13 -49 25 -67 101 -10 45 -16 55 -30 52 -12 -4 -25 6 -38 28 -24 38 -26 67 -10 103 9 19 8 29 -5 47 -19 27 -22 18 -4 -11 10 -16 10 -23 -5 -37 -16 -16 -18 -15 -47 12 -16 16 -33 25 -37 22 -3 -4 -1 -7 6 -7 7 0 24 -25 38 -56 20 -45 23 -58 12 -64 -10 -7 -7 -12 12 -20 25 -12 64 -56 75 -84 5 -13 -1 -16 -28 -16 -27 0 -43 9 -81 48 -39 40 -47 53 -43 77 2 17 1 24 -1 18 -9 -26 -36 -7 -46 32 -4 16 -5 15 -6 -6 0 -14 6 -34 14 -45 31 -41 8 -48 -31 -9 -20 20 -25 22 -22 8 2 -10 18 -27 35 -38 43 -27 41 -35 -10 -35 -45 0 -60 14 -70 65 -2 12 -5 5 -8 -17 -5 -35 -2 -39 30 -54 24 -12 48 -15 84 -11 43 6 54 3 79 -18 16 -13 47 -30 69 -36 25 -8 38 -17 35 -25 -3 -7 4 -16 15 -19 10 -4 19 -11 19 -16 0 -14 -157 -7 -235 10 -34 8 -67 22 -77 33 -18 20 -18 20 -18 -2 0 -19 -4 -22 -35 -18 -19 2 -35 1 -35 -3 0 -10 56 -19 119 -19 38 0 66 -6 89 -20 28 -17 50 -20 167 -20 123 0 161 -7 141 -27 -10 -10 -277 -2 -304 9 -47 20 -183 27 -214 12 -31 -16 -89 -84 -82 -96 7 -11 1321 -10 1328 1 12 19 -46 59 -107 74 -68 16 -319 16 -410 -2 -50 -9 -87 -5 -87 9 0 10 37 23 47 17 5 -3 35 0 68 5 33 6 94 11 135 13 41 1 98 6 127 10 34 5 63 3 85 -5 46 -17 118 -29 118 -19 0 5 -11 11 -25 15 -27 7 -33 20 -12 27 6 2 1 2 -13 -2 -14 -3 -43 -4 -65 -3 -79 6 -101 5 -132 -3 -54 -13 -39 12 23 40 51 23 58 24 84 10 16 -8 39 -15 52 -14 14 0 5 6 -24 15 -56 17 -62 31 -15 37 28 3 27 4 -10 5 -28 1 -45 8 -52 20 -8 14 -10 10 -11 -20 0 -25 -5 -38 -13 -38 -8 0 -36 -11 -63 -25 -34 -17 -65 -25 -103 -25 l-54 0 24 26 c13 14 47 37 74 51 28 14 63 36 78 49 20 17 41 24 72 24 27 0 47 6 56 16 12 15 11 16 -10 9 -15 -4 -26 -3 -31 5 -6 9 -13 9 -28 1 -52 -28 -59 10 -7 40 43 26 46 35 4 13 -37 -18 -61 -6 -39 21 8 10 9 15 2 15 -19 0 -34 -40 -27 -70 5 -25 1 -35 -27 -60 -33 -31 -65 -46 -75 -36 -8 8 24 57 53 81 22 19 23 23 9 40 -13 19 -14 19 -15 2 0 -14 -5 -17 -22 -11 -21 6 -21 5 -9 -10 12 -15 11 -21 -9 -48 -12 -17 -25 -42 -29 -57 -5 -17 -25 -37 -61 -58 -101 -62 -97 -41 14 66 44 43 49 53 54 101 4 43 11 58 36 82 30 28 30 29 3 12 -32 -20 -47 -12 -29 16 7 11 8 20 2 20 -16 0 -30 -37 -37 -100 -3 -33 -9 -60 -13 -60 -16 0 -42 53 -37 76 2 13 0 24 -4 24 -15 0 -10 -65 6 -86 8 -10 14 -28 14 -39 1 -20 -101 -135 -119 -135 -20 0 -9 48 19 83 37 47 57 117 42 145 -18 34 -13 55 22 87 18 17 28 27 23 23 -19 -15 -38 -9 -31 10 4 11 3 14 -4 7 -5 -5 -11 -21 -13 -35 -2 -15 -11 -26 -22 -28 -16 -3 -18 1 -14 37 2 24 0 37 -5 32 -15 -15 -10 -89 7 -113 33 -47 9 -110 -29 -78 -11 9 -14 23 -9 47 5 26 3 32 -8 28 -9 -4 -19 4 -26 20 -6 14 -17 25 -23 25 -8 0 -6 -7 4 -18 10 -10 17 -26 17 -36 0 -22 17 -55 42 -83 20 -21 18 -63 -3 -63 -5 0 -18 -20 -29 -45 -22 -52 -45 -58 -73 -19 -27 37 -19 67 23 81 19 7 29 12 23 12 -7 1 -13 9 -13 19 -1 16 -1 16 -11 0 -16 -28 -36 -21 -37 12 0 17 -3 39 -7 50 -3 11 7 51 25 96 17 42 29 82 27 87 -2 6 -9 -4 -16 -21 -17 -41 -28 -40 -39 1 -7 25 -11 28 -16 15z"/>
         <path d="M680 1333 c0 -7 14 -76 30 -153 17 -77 30 -142 30 -143 0 -1 43 -2 96 -2 83 0 97 3 110 19 8 11 11 29 8 39 -4 12 9 4 34 -21 70 -70 164 -66 188 8 6 19 16 36 22 38 5 1 30 -17 54 -42 50 -50 100 -66 147 -46 28 11 51 46 51 75 0 8 6 15 14 15 18 0 33 -43 17 -48 -16 -5 -13 -42 4 -42 8 0 17 -12 21 -27 3 -16 7 -34 10 -40 5 -17 1 -16 -38 6 -58 34 -138 32 -175 -5 -21 -21 -30 -24 -42 -15 -67 47 -149 58 -197 26 -22 -14 -31 -15 -53 -5 -40 20 -103 21 -124 2 -16 -15 -20 -14 -48 2 -48 29 -96 24 -130 -13 -26 -29 -28 -36 -25 -100 2 -38 11 -83 21 -102 41 -79 112 -125 175 -112 28 5 29 4 40 -55 12 -59 13 -60 50 -66 43 -7 70 0 70 18 0 6 -16 83 -36 171 -45 206 -43 190 -15 190 23 0 26 -6 36 -60 21 -110 78 -187 150 -201 48 -9 82 2 101 31 35 54 -10 138 -91 172 -39 15 -45 22 -43 43 3 21 9 25 41 28 30 3 43 -2 67 -27 19 -19 30 -40 30 -58 0 -43 44 -128 82 -156 50 -38 109 -45 147 -17 62 43 28 135 -66 180 -45 21 -52 29 -50 50 2 21 8 25 39 28 29 2 43 -3 70 -26 30 -27 35 -42 58 -149 l25 -118 54 -3 c50 -3 53 -2 48 17 -4 18 -2 20 21 14 49 -14 85 -7 108 20 20 23 22 36 20 105 -4 90 -22 138 -72 182 -33 29 -58 35 -116 31 -22 -2 -28 2 -28 18 0 12 7 21 15 21 24 0 18 30 -8 39 -20 8 -26 23 -42 105 -10 52 -16 98 -13 101 10 11 34 -6 46 -33 6 -15 22 -42 34 -61 12 -19 32 -61 44 -95 20 -58 24 -61 62 -70 66 -14 74 -6 71 68 -2 36 0 68 4 72 10 11 9 98 -3 128 -16 44 -66 68 -130 61 -72 -7 -96 -7 -150 1 -73 9 -95 -29 -77 -133 6 -34 4 -43 -7 -43 -8 0 -17 14 -21 33 -11 50 -53 115 -85 132 -45 23 -104 19 -137 -9 -26 -22 -28 -30 -27 -90 1 -72 -10 -88 -20 -28 -7 47 -48 107 -86 127 -42 22 -102 19 -133 -5 -35 -28 -44 -78 -25 -146 l15 -54 -33 0 c-20 0 -37 -6 -42 -17 -20 -35 -38 -5 -61 98 -12 57 -24 111 -27 119 -5 19 -104 22 -104 3z m1038 -55 c14 -14 17 -118 3 -118 -13 0 -21 26 -21 67 0 26 -5 36 -20 40 -11 3 -17 9 -14 14 8 13 38 11 52 -3z m-628 -35 c15 -40 21 -163 9 -163 -16 0 -46 51 -64 109 -15 49 -16 63 -5 76 22 26 45 18 60 -22z m252 20 c22 -25 31 -59 33 -125 1 -49 -1 -58 -15 -58 -10 0 -20 8 -23 18 -3 9 -14 40 -25 68 -30 81 -11 143 30 97z m341 -351 c28 -31 47 -90 47 -147 0 -55 0 -56 -27 -53 -26 3 -28 8 -46 96 -23 116 -15 149 26 104z m-834 -15 c11 -14 41 -143 41 -178 0 -30 -30 -20 -57 19 -25 37 -49 132 -40 156 8 19 40 21 56 3z m332 -107 c19 -10 49 -59 49 -80 0 -5 -9 -10 -19 -10 -13 0 -26 15 -40 43 -29 60 -28 67 10 47z m268 -16 c24 -31 28 -74 7 -74 -12 0 -56 73 -56 93 0 17 30 5 49 -19z"/>
        </g>
        <g id="layer104" fill="#23aeaf" stroke="none">
         <path d="M1165 2198 c-217 -17 -423 -110 -588 -267 -153 -146 -255 -333 -297 -544 -17 -85 -14 -278 5 -372 95 -462 504 -795 975 -795 396 0 755 236 910 599 65 149 75 205 75 396 0 200 -15 266 -94 430 -184 378 -556 586 -986 553z m280 -67 c121 -25 232 -71 330 -136 496 -330 568 -1022 151 -1441 -364 -365 -929 -377 -1307 -26 -130 121 -224 282 -276 472 -26 99 -24 338 6 445 113 417 479 702 906 704 61 1 135 -7 190 -18z"/>
         <path d="M1186 1938 c-4 -9 -2 -27 4 -39 10 -18 10 -25 -1 -33 -10 -8 -14 -34 -14 -83 0 -40 -1 -73 -2 -73 -2 0 -19 17 -38 38 -25 26 -33 43 -29 57 3 11 9 46 13 78 7 60 -3 79 -14 27 -7 -33 -21 -37 -51 -15 -33 25 -36 16 -3 -13 29 -26 31 -32 25 -66 -7 -35 -10 -38 -34 -33 -25 5 -25 4 -7 -9 10 -8 24 -14 31 -14 25 0 81 -76 88 -119 3 -23 14 -53 23 -67 21 -32 12 -39 -31 -24 -42 13 -49 25 -67 101 -10 45 -16 55 -30 52 -12 -4 -25 6 -38 28 -24 38 -26 67 -10 103 9 19 8 29 -5 47 -19 27 -22 18 -4 -11 10 -16 10 -23 -5 -37 -16 -16 -18 -15 -47 12 -16 16 -33 25 -37 22 -3 -4 -1 -7 6 -7 7 0 24 -25 38 -56 20 -45 23 -58 12 -64 -10 -7 -7 -12 12 -20 25 -12 64 -56 75 -84 5 -13 -1 -16 -28 -16 -27 0 -43 9 -81 48 -39 40 -47 53 -43 77 2 17 1 24 -1 18 -9 -26 -36 -7 -46 32 -4 16 -5 15 -6 -6 0 -14 6 -34 14 -45 31 -41 8 -48 -31 -9 -20 20 -25 22 -22 8 2 -10 18 -27 35 -38 43 -27 41 -35 -10 -35 -45 0 -60 14 -70 65 -2 12 -5 5 -8 -17 -5 -35 -2 -39 30 -54 24 -12 48 -15 84 -11 43 6 54 3 79 -18 16 -13 47 -30 69 -36 25 -8 38 -17 35 -25 -3 -7 4 -16 15 -19 10 -4 19 -11 19 -16 0 -14 -157 -7 -235 10 -34 8 -67 22 -77 33 -18 20 -18 20 -18 -2 0 -19 -4 -22 -35 -18 -19 2 -35 1 -35 -3 0 -10 56 -19 119 -19 38 0 66 -6 89 -20 28 -17 50 -20 167 -20 123 0 161 -7 141 -27 -10 -10 -277 -2 -304 9 -47 20 -183 27 -214 12 -31 -16 -89 -84 -82 -96 7 -11 1321 -10 1328 1 12 19 -46 59 -107 74 -68 16 -319 16 -410 -2 -50 -9 -87 -5 -87 9 0 10 37 23 47 17 5 -3 35 0 68 5 33 6 94 11 135 13 41 1 98 6 127 10 34 5 63 3 85 -5 46 -17 118 -29 118 -19 0 5 -11 11 -25 15 -27 7 -33 20 -12 27 6 2 1 2 -13 -2 -14 -3 -43 -4 -65 -3 -79 6 -101 5 -132 -3 -54 -13 -39 12 23 40 51 23 58 24 84 10 16 -8 39 -15 52 -14 14 0 5 6 -24 15 -56 17 -62 31 -15 37 28 3 27 4 -10 5 -28 1 -45 8 -52 20 -8 14 -10 10 -11 -20 0 -25 -5 -38 -13 -38 -8 0 -36 -11 -63 -25 -34 -17 -65 -25 -103 -25 l-54 0 24 26 c13 14 47 37 74 51 28 14 63 36 78 49 20 17 41 24 72 24 27 0 47 6 56 16 12 15 11 16 -10 9 -15 -4 -26 -3 -31 5 -6 9 -13 9 -28 1 -52 -28 -59 10 -7 40 43 26 46 35 4 13 -37 -18 -61 -6 -39 21 8 10 9 15 2 15 -19 0 -34 -40 -27 -70 5 -25 1 -35 -27 -60 -33 -31 -65 -46 -75 -36 -8 8 24 57 53 81 22 19 23 23 9 40 -13 19 -14 19 -15 2 0 -14 -5 -17 -22 -11 -21 6 -21 5 -9 -10 12 -15 11 -21 -9 -48 -12 -17 -25 -42 -29 -57 -5 -17 -25 -37 -61 -58 -101 -62 -97 -41 14 66 44 43 49 53 54 101 4 43 11 58 36 82 30 28 30 29 3 12 -32 -20 -47 -12 -29 16 7 11 8 20 2 20 -16 0 -30 -37 -37 -100 -3 -33 -9 -60 -13 -60 -16 0 -42 53 -37 76 2 13 0 24 -4 24 -15 0 -10 -65 6 -86 8 -10 14 -28 14 -39 1 -20 -101 -135 -119 -135 -20 0 -9 48 19 83 37 47 57 117 42 145 -18 34 -13 55 22 87 18 17 28 27 23 23 -19 -15 -38 -9 -31 10 4 11 3 14 -4 7 -5 -5 -11 -21 -13 -35 -2 -15 -11 -26 -22 -28 -16 -3 -18 1 -14 37 2 24 0 37 -5 32 -15 -15 -10 -89 7 -113 33 -47 9 -110 -29 -78 -11 9 -14 23 -9 47 5 26 3 32 -8 28 -9 -4 -19 4 -26 20 -6 14 -17 25 -23 25 -8 0 -6 -7 4 -18 10 -10 17 -26 17 -36 0 -22 17 -55 42 -83 20 -21 18 -63 -3 -63 -5 0 -18 -20 -29 -45 -22 -52 -45 -58 -73 -19 -27 37 -19 67 23 81 19 7 29 12 23 12 -7 1 -13 9 -13 19 -1 16 -1 16 -11 0 -16 -28 -36 -21 -37 12 0 17 -3 39 -7 50 -3 11 7 51 25 96 17 42 29 82 27 87 -2 6 -9 -4 -16 -21 -17 -41 -28 -40 -39 1 -7 25 -11 28 -16 15z"/>
         <path d="M982 1335 c-103 -45 -37 -273 88 -300 44 -10 89 11 96 44 3 14 7 32 10 39 6 22 36 13 68 -23 32 -35 90 -65 124 -65 30 0 70 37 74 68 2 19 9 27 23 27 17 0 20 -7 20 -40 0 -22 5 -44 12 -50 13 -10 30 -95 20 -95 -3 0 -27 11 -53 25 -26 14 -60 25 -76 25 -30 0 -88 -25 -88 -38 0 -4 -4 -13 -9 -20 -6 -11 -18 -7 -53 18 -55 39 -113 48 -156 26 -18 -9 -32 -21 -32 -26 0 -16 -20 -12 -47 10 -35 27 -97 27 -116 -1 -15 -20 -15 -20 -52 5 -49 34 -80 33 -116 -3 -24 -25 -29 -38 -29 -79 0 -90 49 -185 111 -218 17 -8 48 -14 71 -12 l40 3 14 -54 c19 -71 19 -71 70 -71 38 0 45 3 40 18 -18 63 -75 355 -71 363 9 13 41 11 53 -3 5 -7 13 -33 17 -58 17 -112 76 -187 155 -197 125 -17 119 133 -8 182 -44 17 -52 24 -52 46 0 52 53 65 110 27 26 -18 37 -36 50 -84 33 -122 94 -181 177 -171 25 3 49 11 54 18 15 24 10 73 -11 106 -19 32 -84 73 -115 73 -20 0 -20 53 0 70 23 19 84 5 116 -26 22 -21 32 -47 49 -123 31 -141 32 -143 83 -139 35 2 41 6 39 22 -3 15 0 17 15 11 47 -21 81 -17 109 10 25 25 26 31 22 104 -8 133 -76 219 -165 207 -31 -4 -42 -2 -47 10 -10 27 -7 44 9 44 8 0 15 5 15 10 0 6 -8 10 -18 10 -15 0 -23 17 -40 90 -29 118 -28 130 3 130 19 0 28 -8 36 -27 6 -16 19 -37 29 -48 11 -11 31 -52 45 -90 15 -39 30 -73 33 -77 4 -4 25 -10 48 -14 l41 -6 7 121 c8 144 -1 169 -64 195 -53 21 -72 20 -104 -5 l-28 -22 -39 23 c-48 26 -81 21 -106 -16 -15 -23 -15 -35 -5 -92 6 -37 10 -67 9 -69 -2 -1 -13 0 -25 4 -14 3 -22 13 -22 27 0 12 -12 45 -26 73 -20 41 -35 56 -69 73 -39 19 -49 20 -80 10 -52 -17 -68 -48 -63 -120 4 -50 2 -60 -11 -60 -11 0 -20 16 -28 49 -16 66 -38 98 -84 122 -45 22 -53 23 -97 4z m83 -51 c28 -11 48 -66 50 -141 3 -79 -7 -91 -43 -53 -34 36 -62 161 -42 185 14 17 13 17 35 9z m270 0 c28 -11 48 -66 50 -142 3 -69 2 -73 -19 -70 -43 6 -95 168 -66 203 14 17 13 17 35 9z m393 -6 c13 -13 15 -101 3 -133 -7 -18 -10 -17 -25 14 -10 18 -16 45 -13 58 3 17 -2 28 -14 36 -11 7 -19 17 -19 24 0 17 52 17 68 1z m-33 -372 c29 -29 47 -92 43 -154 -3 -51 -19 -63 -52 -39 -18 13 -61 190 -50 208 9 16 34 10 59 -15z m-841 -8 c12 -19 46 -159 46 -189 0 -16 -46 -9 -63 9 -27 30 -47 89 -47 140 0 27 3 52 7 55 14 14 43 6 57 -15z m329 -98 c49 -38 59 -124 12 -106 -17 6 -54 80 -55 109 0 22 11 22 43 -3z m257 -7 c20 -18 33 -41 37 -66 5 -36 4 -39 -17 -35 -15 2 -30 16 -41 38 -24 48 -34 90 -20 90 6 0 24 -12 41 -27z"/>
         <!-- <path d="M690 1335 c0 -3 14 -69 30 -147 17 -77 30 -143 30 -145 0 -10 89 -1 93 10 4 10 7 10 18 0 21 -21 67 -16 79 8 9 16 8 26 -5 45 -19 29 -41 31 -55 4 -12 -23 -33 -26 -48 -7 -6 6 -20 63 -33 125 l-22 112 -44 0 c-24 0 -43 -2 -43 -5z"/> -->
         <!-- <path d="M2328 803 c-27 -29 -48 -58 -48 -65 0 -10 76 70 93 99 19 31 0 17 -45 -34z"/> -->
         <!-- <path d="M230 640 c0 -4 27 -31 60 -60 48 -42 63 -61 71 -96 6 -25 15 -47 20 -50 12 -7 12 -7 -11 56 -12 33 -30 63 -47 75 -15 11 -42 34 -60 52 -18 17 -33 27 -33 23z"/> -->
         <!-- <path d="M2272 630 c-7 -11 -30 -31 -52 -45 -40 -25 -75 -77 -66 -98 2 -7 5 -3 5 8 1 10 31 47 68 82 37 34 65 64 62 67 -2 3 -10 -4 -17 -14z"/> -->
         <!-- <path d="M405 411 c3 -5 18 -12 35 -16 26 -6 75 -51 108 -101 10 -16 11 -15 1 6 -24 51 -50 78 -94 99 -50 23 -59 25 -50 12z"/> -->
         <!-- <path d="M2066 400 c-52 -26 -58 -32 -84 -82 -13 -24 -17 -34 -10 -24 34 50 82 95 108 101 17 4 32 11 35 16 9 14 -6 10 -49 -11z"/> -->
         <!-- <path d="M940 76 c0 -2 16 -14 36 -26 37 -23 38 -23 149 1 36 7 35 8 -10 2 -90 -10 -123 -8 -143 10 -18 16 -32 22 -32 13z"/>
         <path d="M1547 63 c-18 -18 -55 -20 -142 -8 -38 5 -55 3 -70 -9 -11 -8 -15 -16 -8 -16 6 0 15 5 18 10 8 13 59 13 105 -1 21 -7 49 -9 62 -5 26 7 79 45 63 46 -6 0 -18 -8 -28 -17z"/> -->
         </g>
        <g id="layer105" fill="#d9cdb8" stroke="none">
         <path d="M982 1335 c-103 -45 -37 -273 88 -300 44 -10 89 11 96 44 3 14 7 32 10 39 6 22 36 13 68 -23 32 -35 90 -65 124 -65 30 0 70 37 74 68 2 19 9 27 23 27 17 0 20 -7 20 -40 0 -22 5 -44 12 -50 13 -10 30 -95 20 -95 -3 0 -27 11 -53 25 -26 14 -60 25 -76 25 -30 0 -88 -25 -88 -38 0 -4 -4 -13 -9 -20 -6 -11 -18 -7 -53 18 -55 39 -113 48 -156 26 -18 -9 -32 -21 -32 -26 0 -16 -20 -12 -47 10 -35 27 -97 27 -116 -1 -15 -20 -15 -20 -52 5 -49 34 -80 33 -116 -3 -24 -25 -29 -38 -29 -79 0 -90 49 -185 111 -218 17 -8 48 -14 71 -12 l40 3 14 -54 c19 -71 19 -71 70 -71 38 0 45 3 40 18 -18 63 -75 355 -71 363 9 13 41 11 53 -3 5 -7 13 -33 17 -58 17 -112 76 -187 155 -197 125 -17 119 133 -8 182 -44 17 -52 24 -52 46 0 52 53 65 110 27 26 -18 37 -36 50 -84 33 -122 94 -181 177 -171 25 3 49 11 54 18 15 24 10 73 -11 106 -19 32 -84 73 -115 73 -20 0 -20 53 0 70 23 19 84 5 116 -26 22 -21 32 -47 49 -123 31 -141 32 -143 83 -139 35 2 41 6 39 22 -3 15 0 17 15 11 47 -21 81 -17 109 10 25 25 26 31 22 104 -8 133 -76 219 -165 207 -31 -4 -42 -2 -47 10 -10 27 -7 44 9 44 8 0 15 5 15 10 0 6 -8 10 -18 10 -15 0 -23 17 -40 90 -29 118 -28 130 3 130 19 0 28 -8 36 -27 6 -16 19 -37 29 -48 11 -11 31 -52 45 -90 15 -39 30 -73 33 -77 4 -4 25 -10 48 -14 l41 -6 7 121 c8 144 -1 169 -64 195 -53 21 -72 20 -104 -5 l-28 -22 -39 23 c-48 26 -81 21 -106 -16 -15 -23 -15 -35 -5 -92 6 -37 10 -67 9 -69 -2 -1 -13 0 -25 4 -14 3 -22 13 -22 27 0 12 -12 45 -26 73 -20 41 -35 56 -69 73 -39 19 -49 20 -80 10 -52 -17 -68 -48 -63 -120 4 -50 2 -60 -11 -60 -11 0 -20 16 -28 49 -16 66 -38 98 -84 122 -45 22 -53 23 -97 4z m83 -51 c28 -11 48 -66 50 -141 3 -79 -7 -91 -43 -53 -34 36 -62 161 -42 185 14 17 13 17 35 9z m270 0 c28 -11 48 -66 50 -142 3 -69 2 -73 -19 -70 -43 6 -95 168 -66 203 14 17 13 17 35 9z m393 -6 c13 -13 15 -101 3 -133 -7 -18 -10 -17 -25 14 -10 18 -16 45 -13 58 3 17 -2 28 -14 36 -11 7 -19 17 -19 24 0 17 52 17 68 1z m-33 -372 c29 -29 47 -92 43 -154 -3 -51 -19 -63 -52 -39 -18 13 -61 190 -50 208 9 16 34 10 59 -15z m-841 -8 c12 -19 46 -159 46 -189 0 -16 -46 -9 -63 9 -27 30 -47 89 -47 140 0 27 3 52 7 55 14 14 43 6 57 -15z m329 -98 c49 -38 59 -124 12 -106 -17 6 -54 80 -55 109 0 22 11 22 43 -3z m257 -7 c20 -18 33 -41 37 -66 5 -36 4 -39 -17 -35 -15 2 -30 16 -41 38 -24 48 -34 90 -20 90 6 0 24 -12 41 -27z"/>
         <path d="M690 1335 c0 -3 14 -69 30 -147 17 -77 30 -143 30 -145 0 -10 89 -1 93 10 4 10 7 10 18 0 21 -21 67 -16 79 8 9 16 8 26 -5 45 -19 29 -41 31 -55 4 -12 -23 -33 -26 -48 -7 -6 6 -20 63 -33 125 l-22 112 -44 0 c-24 0 -43 -2 -43 -5z"/>
        </g>

      </svg>
