<!DOCTYPE svg PUBLIC "-//W3C//DTD SVG 20010904//EN" "http://www.w3.org/TR/2001/REC-SVG-20010904/DTD/svg10.dtd">
<svg version="1.0" xmlns="http://www.w3.org/2000/svg" width="600px" height="0px" viewBox="0 0 2980 3200" preserveAspectRatio="xMidYMid meet">
<g id="layer101" fill="#3d3e40" stroke="none">
 <path d="M1420 2723 c-8 -3 -22 -12 -31 -20 -12 -10 -23 -11 -43 -3 -64 24 -168 4 -197 -38 -12 -16 -28 -20 -91 -23 -84 -5 -114 -22 -138 -79 -10 -25 -17 -28 -72 -33 -69 -6 -112 -38 -124 -91 -9 -42 -22 -56 -53 -56 -31 0 -86 -32 -99 -57 -5 -10 -13 -39 -16 -65 -7 -44 -10 -49 -51 -67 -57 -25 -74 -54 -79 -132 -2 -36 -9 -65 -16 -67 -53 -18 -86 -98 -75 -177 6 -35 2 -48 -20 -81 -24 -36 -26 -44 -21 -114 7 -93 7 -107 0 -200 -5 -70 -3 -78 21 -114 22 -33 26 -46 20 -81 -11 -79 22 -159 75 -177 7 -2 14 -31 16 -67 5 -78 22 -107 79 -132 41 -18 44 -23 51 -67 3 -26 11 -55 16 -65 13 -25 68 -57 99 -57 31 0 44 -14 53 -56 4 -17 20 -44 36 -59 24 -23 41 -30 89 -33 54 -4 61 -7 71 -32 6 -15 22 -38 36 -51 24 -22 24 -24 24 -226 l0 -203 510 0 510 0 0 201 0 200 29 24 c15 14 34 38 40 54 11 26 17 29 72 33 48 3 65 10 89 33 16 15 32 42 36 59 9 42 22 56 53 56 31 0 86 32 99 57 5 10 13 39 16 65 7 44 10 49 51 67 57 25 74 54 79 132 2 36 9 65 16 67 53 18 86 98 75 177 -6 35 -2 48 20 81 24 36 26 44 21 114 -7 93 -7 107 0 200 5 70 3 78 -21 114 -22 33 -26 46 -20 81 11 79 -22 159 -75 177 -7 2 -14 31 -16 67 -5 78 -22 107 -79 132 -41 18 -44 23 -51 67 -3 26 -11 55 -16 65 -13 25 -68 57 -99 57 -31 0 -44 14 -53 56 -12 53 -55 85 -124 91 -55 5 -62 8 -72 33 -24 57 -54 74 -138 79 -63 3 -79 7 -91 23 -29 42 -133 62 -197 38 -21 -9 -31 -7 -46 7 -14 13 -39 18 -91 20 -40 1 -79 0 -87 -4z"/>
 </g>
<g id="layer102" fill="#375d5e" stroke="none" stroke-width="0.5">
 <path d="M1380 2480 c-392 -50 -716 -332 -822 -717 -32 -114 -31 -373 0 -487 97 -349 367 -611 722 -698 119 -29 311 -29 430 0 295 72 530 261 657 528 72 152 87 222 87 414 0 138 -4 178 -22 243 -96 348 -371 616 -717 697 -96 23 -245 32 -335 20z m200 -60 c385 -40 690 -299 793 -675 31 -115 31 -335 0 -450 -102 -372 -409 -635 -785 -674 -447 -45 -851 235 -971 674 -31 115 -31 335 0 450 101 368 410 636 778 674 44 5 81 9 81 10 1 0 48 -4 104 -9z"/>
 <path d="M1330 2376 c-314 -67 -561 -284 -661 -582 -188 -559 235 -1144 826 -1144 373 0 707 241 826 596 141 419 -58 876 -463 1063 -45 21 -112 46 -148 56 -88 23 -295 29 -380 11z m405 -36 c526 -168 767 -741 513 -1219 -104 -198 -270 -337 -488 -413 -93 -32 -99 -33 -265 -33 -166 0 -172 1 -265 33 -218 76 -384 215 -488 413 -265 499 17 1109 572 1235 96 21 332 13 421 -16z"/>
 <path d="M1424 2195 c5 -46 4 -56 -6 -47 -10 8 -13 -5 -11 -65 l2 -76 -30 33 c-27 29 -30 37 -23 69 12 54 12 122 -1 118 -5 -2 -11 -16 -13 -30 -4 -32 -8 -33 -49 -7 -42 25 -43 12 -2 -24 23 -21 29 -34 25 -49 -3 -12 -6 -28 -6 -36 0 -9 -8 -11 -27 -6 -23 5 -25 4 -14 -9 8 -9 19 -16 26 -16 28 0 75 -52 85 -93 6 -23 17 -57 26 -76 8 -18 13 -35 11 -37 -2 -3 -19 2 -37 10 -27 11 -36 23 -47 57 -7 24 -13 59 -13 78 0 33 -1 34 -15 15 -15 -19 -15 -19 -35 5 -28 33 -35 68 -21 107 9 26 9 37 -1 53 -7 12 -16 21 -20 21 -12 0 -10 -24 3 -37 13 -13 4 -33 -15 -33 -7 0 -23 11 -36 25 -12 13 -27 22 -33 18 -6 -4 -4 -10 5 -17 16 -12 41 -56 52 -93 6 -18 4 -22 -8 -17 -9 3 -16 1 -16 -4 0 -6 9 -13 19 -17 11 -3 37 -25 58 -48 l38 -42 -28 -3 c-36 -4 -124 72 -119 103 4 28 -6 65 -18 65 -6 0 -8 -11 -4 -27 7 -26 6 -27 -10 -14 -11 9 -16 24 -13 38 5 26 -10 31 -20 6 -4 -9 3 -33 14 -54 l20 -37 -22 10 c-13 6 -28 22 -35 37 -7 14 -14 21 -17 15 -7 -21 17 -64 42 -76 46 -21 23 -37 -32 -22 -16 4 -27 19 -34 45 -12 40 -35 44 -25 4 4 -17 1 -24 -17 -30 l-22 -8 24 -4 c14 -3 35 -12 48 -20 16 -11 39 -14 75 -11 45 5 57 2 91 -23 22 -16 48 -29 58 -29 10 0 21 -5 25 -12 4 -6 3 -8 -4 -4 -6 3 -30 2 -54 -3 -45 -11 -73 1 -64 25 3 7 1 16 -3 19 -5 3 -12 -2 -15 -11 -4 -11 -13 -14 -30 -10 -47 12 -35 -11 15 -28 27 -10 48 -20 46 -22 -2 -2 -33 2 -69 9 -52 9 -71 18 -88 40 -12 15 -27 27 -35 27 -7 0 -18 7 -25 15 -7 8 -17 15 -22 15 -16 0 13 -30 44 -46 35 -18 37 -44 4 -44 -14 0 -28 5 -31 10 -3 6 -23 10 -43 9 l-37 -1 35 -12 35 -13 -40 -21 c-28 -15 -34 -21 -20 -21 11 0 31 6 44 13 31 17 173 10 213 -10 18 -10 66 -14 151 -14 95 0 128 -3 143 -15 17 -14 5 -15 -126 -12 -84 2 -155 9 -168 16 -12 6 -60 13 -107 16 l-86 5 -50 -50 c-27 -27 -49 -54 -49 -60 0 -7 205 -10 655 -10 360 0 655 4 655 9 0 22 -52 60 -104 75 -46 14 -87 16 -214 12 -86 -2 -186 -8 -221 -12 -42 -5 -62 -4 -58 3 7 11 124 25 232 28 39 1 89 7 113 14 35 10 53 9 95 -2 81 -23 129 -28 124 -14 -2 7 -17 15 -33 18 l-29 6 28 7 c15 5 27 12 27 17 0 13 -17 11 -52 -7 -26 -14 -38 -14 -71 -4 -22 6 -62 9 -91 6 l-51 -6 55 26 c52 24 57 25 83 10 16 -9 37 -16 48 -16 24 0 25 20 2 20 -10 1 -29 7 -43 15 -24 14 -24 14 21 15 45 0 82 21 60 34 -5 4 -12 2 -16 -4 -3 -5 -30 -10 -60 -10 -41 0 -56 4 -64 18 -8 14 -10 10 -11 -20 0 -33 -3 -37 -32 -44 -18 -3 -44 -14 -57 -23 -15 -9 -47 -16 -76 -17 -49 0 -51 0 -34 17 10 10 42 30 71 45 29 15 66 37 81 50 18 15 41 24 62 24 43 0 65 9 65 26 0 16 -16 19 -25 4 -3 -5 -13 -10 -22 -10 -13 0 -13 3 -3 15 16 19 7 19 -31 -1 -29 -14 -31 -14 -27 3 2 10 16 24 31 31 15 7 27 17 27 23 0 12 -4 11 -35 -3 -31 -14 -40 -6 -25 21 13 26 -1 27 -23 3 -11 -11 -17 -36 -17 -63 0 -41 -3 -46 -42 -71 -23 -15 -44 -25 -46 -23 -8 7 30 66 52 80 21 14 23 19 13 45 -12 32 -27 31 -27 -2 0 -16 -3 -18 -13 -9 -18 14 -30 2 -16 -15 8 -10 6 -21 -9 -41 -10 -15 -23 -41 -28 -56 -7 -20 -28 -38 -74 -64 -57 -31 -62 -33 -40 -11 119 120 130 135 130 179 0 35 6 48 36 77 19 19 33 37 30 40 -4 3 -17 -5 -31 -18 -27 -25 -47 -21 -25 5 7 9 10 19 6 23 -4 4 -16 -4 -27 -17 -14 -17 -19 -39 -19 -82 0 -32 -4 -59 -8 -59 -18 0 -42 60 -36 87 7 25 6 27 -9 14 -22 -18 -21 -35 5 -87 l21 -43 -49 -53 c-27 -29 -55 -54 -61 -56 -21 -6 -15 45 7 61 23 16 50 76 50 111 0 14 -5 37 -12 52 -12 25 -10 29 32 64 25 21 42 42 38 46 -5 4 -18 -1 -30 -12 -21 -19 -21 -19 -16 4 4 12 2 22 -3 22 -11 0 -31 -38 -25 -48 3 -4 0 -14 -5 -22 -14 -23 -29 7 -22 45 5 25 3 28 -8 17 -20 -19 -18 -96 4 -119 19 -21 22 -50 8 -72 -8 -12 -12 -13 -26 -1 -12 10 -15 23 -10 54 5 35 4 39 -7 24 -13 -15 -15 -13 -27 13 -7 16 -19 29 -27 29 -13 0 -13 -3 0 -22 8 -13 17 -37 21 -54 3 -17 17 -42 31 -54 29 -29 30 -37 3 -66 -11 -12 -28 -37 -37 -55 -20 -39 -37 -47 -45 -22 -4 10 -12 25 -18 34 -19 25 -4 49 31 49 35 0 34 -1 15 36 -11 22 -15 25 -20 12 -11 -28 -30 -27 -32 1 0 14 -2 42 -4 61 -2 31 13 76 53 153 5 11 7 21 4 24 -9 9 -27 -8 -37 -35 -8 -21 -12 -23 -19 -12 -6 8 -10 23 -10 32 0 9 -5 20 -12 24 -8 5 -9 -8 -4 -51z m-118 -350 c18 -13 16 -14 -22 -15 -23 0 -57 3 -75 7 -33 7 -33 7 -9 14 42 12 85 10 106 -6z"/>
 <path d="M940 1646 c0 -3 14 -69 30 -146 17 -77 30 -143 30 -145 0 -3 20 -5 45 -5 36 0 43 3 38 15 -5 14 0 13 31 -2 28 -13 41 -15 54 -7 23 15 22 64 -1 78 -15 9 -21 6 -37 -14 -33 -44 -52 -18 -80 111 l-25 114 -43 3 c-23 2 -42 1 -42 -2z"/>
 <path d="M1223 1640 c-30 -12 -43 -41 -43 -97 0 -61 37 -143 79 -172 44 -31 108 -32 132 -2 11 13 19 34 19 47 0 38 32 30 84 -21 45 -43 66 -51 121 -46 26 2 55 37 55 67 0 17 6 24 19 24 22 0 26 -4 35 -42 5 -23 3 -28 -11 -28 -16 0 -15 -3 4 -18 12 -10 25 -37 31 -64 10 -50 4 -60 -19 -31 -40 47 -145 58 -184 18 -14 -13 -25 -29 -25 -35 0 -6 -18 4 -40 21 -56 46 -133 52 -176 16 -29 -25 -29 -25 -50 -6 -12 11 -37 22 -57 26 -30 4 -40 1 -59 -20 l-23 -25 -28 24 c-49 42 -114 29 -137 -26 -29 -69 19 -209 85 -250 35 -22 95 -26 112 -9 8 8 14 -3 22 -41 6 -28 11 -57 11 -65 0 -8 10 -17 23 -19 38 -8 77 -13 77 -11 0 2 -16 76 -35 166 -41 191 -43 219 -16 219 27 0 38 -18 50 -82 12 -69 29 -104 69 -141 52 -50 136 -54 158 -8 25 50 -27 132 -98 153 -32 9 -38 16 -38 38 0 38 22 54 64 46 49 -9 82 -44 90 -97 15 -98 83 -169 162 -169 72 0 95 50 54 117 -19 32 -84 73 -115 73 -20 0 -20 44 1 64 19 20 35 20 77 2 52 -22 65 -46 89 -162 l23 -109 48 -3 c46 -3 48 -2 42 18 -6 19 -5 21 13 11 39 -21 89 -13 112 17 19 23 21 36 17 93 -9 131 -68 204 -159 196 -34 -3 -48 0 -48 9 0 7 -3 19 -6 28 -4 11 -1 16 10 16 22 0 20 18 -1 22 -14 2 -23 26 -39 98 -11 52 -19 101 -16 108 8 23 42 13 53 -15 5 -16 17 -33 25 -39 8 -7 30 -49 49 -95 33 -81 35 -84 72 -91 21 -3 41 -3 45 0 4 4 8 62 10 128 3 109 1 124 -16 143 -39 43 -124 51 -161 15 -15 -15 -17 -15 -34 0 -10 9 -34 19 -54 23 -66 10 -93 -46 -66 -140 12 -45 11 -48 -18 -41 -15 4 -22 17 -27 42 -14 85 -81 147 -151 138 -61 -7 -78 -35 -73 -117 5 -59 3 -66 -12 -62 -11 3 -20 18 -24 41 -16 100 -105 163 -183 132z m725 -52 c13 -13 15 -96 3 -138 -6 -24 -8 -22 -24 19 -10 24 -15 51 -12 61 4 12 -2 24 -16 33 -11 9 -18 20 -14 26 8 15 48 14 63 -1z m-612 -30 c19 -36 27 -165 12 -174 -29 -18 -77 78 -78 154 0 49 2 52 25 52 18 0 29 -9 41 -32z m257 0 c15 -20 21 -45 22 -98 2 -74 -6 -90 -31 -69 -35 28 -68 136 -57 180 8 28 41 21 66 -13z m341 -357 c26 -45 34 -152 12 -170 -15 -13 -20 -12 -37 6 -27 26 -66 193 -48 204 20 12 53 -6 73 -40z m-840 26 c18 -13 61 -181 51 -198 -10 -15 -41 -10 -59 10 -26 28 -45 89 -46 142 0 61 15 74 54 46z m335 -111 c36 -28 47 -106 16 -106 -17 0 -53 58 -61 99 -6 28 -4 31 12 25 11 -4 25 -12 33 -18z m239 -1 c33 -28 51 -80 33 -98 -15 -15 -40 9 -62 58 -32 70 -22 83 29 40z"/>
 <path d="M980 261 l0 -261 510 0 510 0 0 255 0 256 -29 -22 c-24 -18 -37 -20 -75 -15 -50 8 -72 0 -124 -45 -38 -34 -46 -34 -111 -13 -48 15 -50 15 -99 -10 -63 -32 -71 -32 -134 0 -49 25 -51 25 -99 10 -65 -21 -73 -21 -111 13 -52 45 -73 52 -126 45 -43 -5 -52 -3 -80 21 l-32 27 0 -261z"/>
 </g>
<g id="layer103" fill="#2f8081" stroke="none">
 <path d="M1296 2464 c-508 -113 -839 -602 -751 -1107 53 -304 252 -568 530 -702 155 -75 223 -90 420 -90 197 0 265 15 420 90 511 247 699 884 403 1365 -126 204 -336 364 -568 431 -100 29 -351 36 -454 13z m415 -63 c160 -41 293 -115 412 -230 117 -112 188 -227 243 -391 27 -80 28 -95 28 -260 0 -165 -1 -180 -28 -260 -107 -323 -348 -547 -672 -627 -94 -23 -304 -23 -398 0 -166 41 -312 121 -429 235 -119 116 -189 229 -243 392 -27 80 -28 95 -28 260 0 165 1 180 28 260 102 307 327 527 626 614 137 40 323 43 461 7z"/>
 <path d="M1338 2375 c-272 -52 -504 -230 -624 -480 -67 -139 -79 -195 -79 -375 0 -184 12 -238 84 -385 110 -223 314 -390 556 -456 114 -31 326 -31 440 0 242 65 444 232 555 456 73 147 85 201 85 385 0 184 -12 238 -85 385 -111 225 -317 393 -555 455 -105 28 -275 34 -377 15z m371 -26 c260 -66 486 -266 582 -513 187 -485 -83 -1013 -586 -1147 -113 -30 -307 -30 -420 0 -503 134 -773 662 -586 1147 109 281 378 492 682 534 88 12 235 3 328 -21z"/>
 <path d="M1425 2190 c6 -45 5 -49 -10 -44 -15 6 -16 4 -7 -12 6 -12 8 -42 4 -72 l-7 -53 -33 34 c-28 29 -31 37 -23 63 5 16 11 50 14 77 4 39 2 46 -9 36 -8 -6 -14 -20 -14 -30 0 -25 -21 -24 -54 2 -37 29 -33 9 5 -22 29 -23 31 -29 25 -63 -7 -34 -10 -37 -32 -32 -35 9 -29 -1 15 -23 52 -27 87 -71 95 -121 3 -23 14 -52 23 -66 21 -33 15 -36 -33 -15 -36 17 -42 24 -57 75 -9 32 -13 65 -10 74 5 14 3 15 -8 5 -20 -20 -33 -16 -52 16 -20 33 -22 83 -6 113 9 17 8 24 -5 33 -8 7 -13 15 -9 18 3 4 1 7 -5 7 -15 0 -15 -5 0 -29 9 -15 9 -23 -2 -36 -12 -14 -16 -13 -40 10 -14 14 -33 25 -41 25 -10 -1 -9 -4 5 -11 10 -6 29 -36 42 -65 28 -64 29 -71 9 -54 -10 8 -15 9 -15 2 0 -6 11 -17 24 -24 32 -18 79 -75 71 -88 -13 -21 -48 -8 -96 37 -44 41 -49 49 -43 78 4 21 1 35 -7 40 -9 6 -11 3 -6 -8 3 -9 2 -19 -2 -22 -12 -7 -28 15 -34 45 -3 20 -5 18 -6 -9 -1 -23 6 -42 21 -58 16 -17 18 -23 7 -23 -22 0 -59 29 -59 46 0 8 -4 14 -10 14 -19 0 7 -45 38 -66 36 -25 32 -34 -13 -34 -36 0 -50 12 -60 52 -9 34 -24 28 -17 -7 3 -19 0 -25 -14 -26 -14 0 -15 -2 -4 -6 8 -2 29 -11 47 -19 36 -16 77 -18 103 -4 15 8 25 4 52 -20 18 -16 47 -33 65 -36 18 -3 35 -10 38 -14 5 -8 -115 -21 -127 -14 -4 3 -8 17 -9 32 0 25 -1 25 -9 6 -6 -17 -15 -21 -37 -17 -22 3 -19 0 16 -16 36 -17 55 -20 110 -15 55 5 69 4 81 -11 13 -15 8 -16 -71 -13 -116 6 -200 25 -224 53 -23 25 -95 64 -76 41 7 -8 23 -17 36 -20 18 -5 25 -13 25 -31 0 -29 0 -29 -47 -10 -19 8 -45 15 -57 14 -15 -1 -11 -4 12 -10 17 -5 32 -12 32 -14 0 -3 -17 -13 -37 -24 -21 -11 -31 -20 -23 -21 9 0 25 7 36 15 29 19 185 13 219 -9 19 -12 52 -16 149 -16 126 0 156 -4 156 -22 0 -14 -268 -8 -310 8 -19 7 -67 14 -107 17 -57 3 -78 1 -101 -13 -30 -19 -72 -70 -72 -89 0 -8 184 -11 645 -11 690 0 675 -1 623 47 -52 48 -212 61 -482 38 -60 -6 -87 -5 -83 2 7 11 68 19 207 28 47 3 108 11 136 17 42 9 62 8 105 -5 30 -9 69 -18 88 -21 29 -5 32 -4 21 9 -7 8 -22 15 -34 16 -21 0 -21 0 2 11 39 19 24 29 -18 12 -34 -14 -47 -15 -85 -4 -33 9 -52 10 -76 1 -18 -6 -39 -11 -48 -11 -26 0 7 24 61 44 43 16 49 16 77 2 34 -18 61 -21 61 -6 0 6 -10 10 -22 10 -13 1 -34 7 -48 15 -25 14 -24 14 17 15 53 0 73 8 73 28 0 12 -3 13 -12 4 -7 -7 -38 -12 -69 -12 -46 0 -59 3 -63 18 -2 9 -4 1 -3 -18 2 -32 -1 -36 -38 -48 -22 -7 -48 -21 -57 -30 -13 -13 -31 -16 -77 -14 l-60 4 27 23 c15 12 54 36 88 53 33 17 66 37 73 46 8 10 29 16 55 16 41 0 66 13 66 34 0 6 -5 5 -12 -2 -18 -18 -49 -15 -42 3 5 13 1 13 -24 -2 -17 -10 -33 -15 -37 -12 -11 12 7 37 36 49 16 7 29 16 29 21 0 4 -16 1 -35 -7 -33 -13 -35 -13 -35 4 0 10 5 23 12 30 9 9 9 12 0 12 -20 0 -43 -46 -37 -73 9 -35 -6 -58 -54 -85 -37 -21 -41 -21 -41 -6 0 9 17 33 38 53 33 32 36 39 26 59 -11 23 -12 23 -17 3 -3 -14 -10 -19 -20 -15 -12 4 -14 0 -10 -15 3 -12 -3 -31 -16 -47 -12 -15 -21 -34 -21 -44 0 -9 -8 -24 -17 -32 -24 -20 -115 -69 -120 -65 -2 2 29 37 69 76 69 69 73 75 74 121 2 42 7 52 40 84 22 19 34 36 28 36 -6 0 -19 -9 -29 -20 -10 -11 -24 -20 -32 -20 -11 0 -10 5 3 25 10 15 12 25 5 25 -19 0 -41 -58 -41 -110 0 -27 -4 -50 -9 -50 -19 0 -43 53 -37 82 3 18 2 27 -4 23 -15 -9 -12 -66 5 -95 8 -14 14 -30 15 -37 0 -14 -105 -123 -120 -123 -17 0 0 52 25 80 36 39 50 99 35 145 -12 38 -12 38 29 76 22 21 41 41 41 45 0 4 -8 0 -18 -9 -24 -22 -43 -22 -35 0 4 11 3 14 -5 9 -7 -4 -12 -18 -12 -30 0 -13 -6 -29 -14 -35 -19 -16 -30 15 -20 56 5 21 4 25 -5 17 -18 -16 -16 -89 3 -115 18 -27 21 -75 5 -84 -5 -4 -19 1 -29 10 -15 13 -17 22 -10 36 6 10 10 22 10 28 0 18 -18 12 -23 -6 -4 -15 -5 -14 -6 3 -1 21 -41 66 -41 46 0 -6 4 -13 9 -16 5 -3 12 -21 15 -41 4 -19 18 -48 31 -64 30 -35 31 -43 5 -66 -11 -10 -22 -27 -26 -39 -12 -41 -54 -74 -54 -42 0 7 -7 19 -15 26 -8 7 -15 23 -15 35 0 24 17 35 53 35 20 1 20 2 5 11 -10 5 -15 17 -12 27 3 12 0 10 -12 -5 -24 -34 -31 -29 -37 30 -4 42 0 66 24 125 32 82 32 82 21 82 -5 0 -14 -12 -20 -26 -14 -30 -32 -23 -32 12 0 13 -5 24 -11 24 -7 0 -9 -16 -4 -50z"/>
 <path d="M940 1646 c0 -3 14 -69 30 -146 17 -77 30 -143 30 -145 0 -3 20 -5 45 -5 36 0 43 3 38 15 -5 14 0 13 31 -2 28 -13 41 -15 54 -7 23 15 22 64 -1 78 -15 9 -21 6 -37 -14 -33 -44 -52 -18 -80 111 l-25 114 -43 3 c-23 2 -42 1 -42 -2z"/>
 <path d="M1223 1640 c-30 -12 -43 -41 -43 -97 0 -61 37 -143 79 -172 44 -31 108 -32 132 -2 11 13 19 34 19 47 0 38 32 30 84 -21 45 -43 66 -51 121 -46 26 2 55 37 55 67 0 17 6 24 19 24 22 0 26 -4 35 -42 5 -23 3 -28 -11 -28 -16 0 -15 -3 4 -18 12 -10 25 -37 31 -64 10 -50 4 -60 -19 -31 -40 47 -145 58 -184 18 -14 -13 -25 -29 -25 -35 0 -6 -18 4 -40 21 -56 46 -133 52 -176 16 -29 -25 -29 -25 -50 -6 -12 11 -37 22 -57 26 -30 4 -40 1 -59 -20 l-23 -25 -28 24 c-49 42 -114 29 -137 -26 -29 -69 19 -209 85 -250 35 -22 95 -26 112 -9 8 8 14 -3 22 -41 6 -28 11 -57 11 -65 0 -8 10 -17 23 -19 38 -8 77 -13 77 -11 0 2 -16 76 -35 166 -41 191 -43 219 -16 219 27 0 38 -18 50 -82 12 -69 29 -104 69 -141 52 -50 136 -54 158 -8 25 50 -27 132 -98 153 -32 9 -38 16 -38 38 0 38 22 54 64 46 49 -9 82 -44 90 -97 15 -98 83 -169 162 -169 72 0 95 50 54 117 -19 32 -84 73 -115 73 -20 0 -20 44 1 64 19 20 35 20 77 2 52 -22 65 -46 89 -162 l23 -109 48 -3 c46 -3 48 -2 42 18 -6 19 -5 21 13 11 39 -21 89 -13 112 17 19 23 21 36 17 93 -9 131 -68 204 -159 196 -34 -3 -48 0 -48 9 0 7 -3 19 -6 28 -4 11 -1 16 10 16 22 0 20 18 -1 22 -14 2 -23 26 -39 98 -11 52 -19 101 -16 108 8 23 42 13 53 -15 5 -16 17 -33 25 -39 8 -7 30 -49 49 -95 33 -81 35 -84 72 -91 21 -3 41 -3 45 0 4 4 8 62 10 128 3 109 1 124 -16 143 -39 43 -124 51 -161 15 -15 -15 -17 -15 -34 0 -10 9 -34 19 -54 23 -66 10 -93 -46 -66 -140 12 -45 11 -48 -18 -41 -15 4 -22 17 -27 42 -14 85 -81 147 -151 138 -61 -7 -78 -35 -73 -117 5 -59 3 -66 -12 -62 -11 3 -20 18 -24 41 -16 100 -105 163 -183 132z m725 -52 c13 -13 15 -96 3 -138 -6 -24 -8 -22 -24 19 -10 24 -15 51 -12 61 4 12 -2 24 -16 33 -11 9 -18 20 -14 26 8 15 48 14 63 -1z m-612 -30 c19 -36 27 -165 12 -174 -29 -18 -77 78 -78 154 0 49 2 52 25 52 18 0 29 -9 41 -32z m257 0 c15 -20 21 -45 22 -98 2 -74 -6 -90 -31 -69 -35 28 -68 136 -57 180 8 28 41 21 66 -13z m341 -357 c26 -45 34 -152 12 -170 -15 -13 -20 -12 -37 6 -27 26 -66 193 -48 204 20 12 53 -6 73 -40z m-840 26 c18 -13 61 -181 51 -198 -10 -15 -41 -10 -59 10 -26 28 -45 89 -46 142 0 61 15 74 54 46z m335 -111 c36 -28 47 -106 16 -106 -17 0 -53 58 -61 99 -6 28 -4 31 12 25 11 -4 25 -12 33 -18z m239 -1 c33 -28 51 -80 33 -98 -15 -15 -40 9 -62 58 -32 70 -22 83 29 40z"/>
 <path d="M980 251 l0 -251 510 0 510 0 0 246 0 245 -22 -15 c-15 -10 -45 -16 -84 -16 -56 0 -66 -3 -104 -35 -46 -38 -66 -41 -136 -23 -42 11 -49 11 -84 -10 -22 -12 -55 -22 -75 -22 -20 0 -53 10 -75 22 -35 21 -42 21 -84 10 -70 -18 -90 -15 -136 23 -38 32 -48 35 -105 35 -48 0 -68 5 -89 21 l-26 20 0 -250z"/>
 </g>
<g id="layer104" fill="#22b5b6" stroke="none">
 <path d="M1325 2466 c-465 -90 -788 -478 -788 -946 0 -375 201 -696 537 -860 158 -77 230 -93 421 -93 191 0 263 16 421 93 266 129 444 353 516 647 31 129 29 313 -5 443 -75 287 -251 504 -511 630 -55 27 -137 59 -181 70 -103 28 -309 35 -410 16z m420 -71 c359 -106 610 -404 657 -780 28 -235 -56 -502 -219 -693 -104 -121 -269 -226 -438 -278 -82 -25 -104 -28 -250 -28 -146 0 -168 3 -250 28 -363 111 -610 405 -657 781 -28 235 55 499 218 691 128 150 335 267 541 304 26 5 107 7 178 5 104 -2 148 -9 220 -30z"/>
 <path d="M1357 2223 c-4 -3 -7 -17 -7 -29 0 -34 -16 -38 -58 -14 l-37 22 28 -22 c42 -34 49 -53 32 -93 -14 -34 -14 -36 5 -42 29 -9 70 -63 70 -93 0 -14 10 -45 21 -69 12 -24 19 -46 17 -48 -2 -3 -23 3 -46 12 -37 14 -43 21 -57 68 -8 29 -15 58 -15 64 0 6 -6 8 -14 5 -22 -8 -61 55 -61 98 0 31 -3 37 -16 33 -10 -4 -23 4 -33 20 -9 14 -24 24 -34 24 -15 -1 -15 -2 0 -6 17 -4 57 -78 61 -114 1 -11 19 -38 40 -60 45 -48 48 -69 9 -69 -20 0 -41 14 -76 49 -33 33 -54 47 -66 44 -12 -3 -29 5 -45 21 -21 21 -26 23 -23 9 2 -10 18 -27 35 -38 43 -27 41 -35 -8 -35 -28 0 -46 6 -55 17 -7 10 -15 15 -19 11 -24 -24 70 -55 117 -39 26 9 34 7 66 -18 21 -16 52 -32 70 -36 44 -9 41 -25 -5 -26 -36 -2 -36 -2 9 -8 27 -4 54 -13 60 -20 11 -10 -6 -12 -87 -8 -128 7 -206 22 -224 44 -12 17 -13 16 -7 -4 6 -17 2 -22 -16 -26 -13 -2 9 -5 47 -6 51 -1 78 -6 100 -21 26 -17 47 -20 161 -20 100 0 134 -3 143 -14 17 -20 -5 -23 -149 -19 -78 2 -139 9 -163 18 -45 18 -173 19 -204 2 -19 -10 -73 -73 -73 -84 0 -2 291 -3 646 -3 l646 0 -14 23 c-29 43 -107 60 -275 59 -83 0 -178 -6 -211 -12 -63 -11 -119 -2 -91 16 16 10 136 24 249 29 41 2 100 8 130 14 l55 10 -72 -5 c-40 -2 -73 0 -73 5 0 10 110 57 123 53 5 -1 5 3 1 9 -3 6 0 15 7 20 10 6 6 9 -13 9 -14 0 -29 6 -32 13 -3 6 -4 0 -1 -14 5 -30 -7 -43 -48 -53 -15 -4 -35 -14 -45 -24 -13 -13 -34 -17 -84 -17 l-67 0 32 28 c18 15 55 39 82 51 28 13 59 33 69 45 13 14 31 21 57 21 20 0 44 3 53 6 31 12 15 19 -39 17 -61 -2 -72 13 -32 42 22 17 22 17 0 11 -27 -8 -39 9 -21 32 12 15 11 16 -4 3 -12 -9 -18 -27 -18 -57 0 -40 -4 -47 -42 -74 -22 -16 -45 -30 -50 -30 -19 0 -6 39 26 74 28 30 33 41 26 59 -9 22 -9 22 -9 -2 -1 -19 -5 -22 -22 -18 -17 4 -18 3 -8 -9 9 -11 8 -18 -6 -34 -9 -10 -23 -36 -30 -57 -11 -30 -24 -44 -72 -70 -32 -18 -64 -33 -71 -33 -7 0 21 34 63 76 72 74 81 90 76 143 -2 18 9 35 36 59 32 28 33 30 6 11 -39 -27 -52 -20 -29 15 13 20 13 24 2 20 -20 -8 -26 -28 -33 -101 -3 -35 -10 -63 -14 -63 -11 0 -31 37 -40 75 -6 27 -7 28 -8 5 0 -14 6 -36 14 -50 8 -14 14 -34 15 -45 0 -22 -98 -125 -119 -125 -20 0 -5 62 20 80 31 24 49 98 36 148 -11 40 -10 42 24 74 19 18 28 27 19 21 -24 -19 -33 -16 -27 7 3 11 1 18 -4 14 -5 -3 -9 -16 -9 -28 0 -13 -7 -29 -15 -36 -20 -16 -30 8 -21 53 4 23 3 28 -4 17 -15 -23 -12 -96 5 -110 16 -13 21 -85 7 -94 -5 -3 -19 2 -31 10 -18 13 -21 22 -16 47 5 24 4 28 -4 17 -9 -13 -11 -13 -11 1 0 9 -9 27 -20 40 l-21 24 16 -32 c8 -18 15 -38 15 -46 0 -8 13 -31 30 -52 24 -30 28 -41 19 -57 -6 -10 -16 -22 -24 -24 -8 -3 -17 -19 -20 -35 -4 -16 -15 -34 -26 -39 -16 -9 -24 -6 -44 17 -16 18 -23 35 -19 48 3 11 4 40 3 65 -6 84 -2 130 13 152 20 32 39 88 29 88 -5 0 -12 -12 -15 -26 -8 -31 -28 -27 -36 7 -4 15 -9 19 -13 12 -4 -6 -3 -23 3 -37 6 -18 6 -29 -3 -38 -7 -8 -12 -41 -12 -80 1 -38 0 -68 -2 -68 -1 0 -19 17 -38 38 -24 26 -33 43 -29 57 5 20 22 135 19 135 -1 0 -5 -3 -8 -7z"/>
 <path d="M1220 2188 c0 -3 7 -19 15 -34 8 -16 15 -22 15 -14 -1 8 -7 24 -15 34 -8 11 -15 17 -15 14z"/>
 <path d="M1091 2080 c-1 -14 6 -36 15 -48 13 -18 19 -21 30 -11 8 6 14 19 14 27 0 13 -2 13 -13 -3 -15 -20 -23 -13 -37 33 l-8 27 -1 -25z"/>
 <path d="M1475 1980 c-18 -20 -17 -20 16 -19 19 1 26 3 16 6 -11 3 -16 11 -13 19 7 19 2 18 -19 -6z"/>
 <path d="M720 1909 c-12 -23 -20 -43 -18 -45 3 -2 14 17 26 41 27 56 20 60 -8 4z"/>
 <path d="M2262 1905 c12 -24 23 -43 26 -41 4 5 -36 86 -43 86 -3 0 5 -20 17 -45z"/>
 <path d="M1141 1898 c-1 -10 -7 -18 -13 -18 -7 -1 -2 -7 12 -15 14 -8 34 -14 45 -14 16 1 15 2 -5 8 -14 4 -27 17 -31 31 -5 16 -7 19 -8 8z"/>
 <path d="M1990 1880 c8 -5 26 -10 39 -10 32 0 24 6 -19 14 -25 4 -31 3 -20 -4z"/>
 <path d="M933 1860 c1 -5 -7 -16 -18 -25 l-20 -16 20 10 c42 22 48 28 31 34 -9 4 -15 2 -13 -3z"/>
 <path d="M2060 1840 c-8 -5 -28 -10 -45 -10 l-30 -1 25 -11 c34 -15 110 -27 104 -16 -3 4 -18 8 -35 8 -35 0 -38 13 -6 28 12 6 18 11 12 11 -5 0 -17 -4 -25 -9z"/>
 <path d="M940 1646 c0 -3 14 -69 30 -146 17 -77 30 -143 30 -145 0 -3 20 -5 45 -5 36 0 43 3 38 15 -5 14 0 13 31 -2 28 -13 41 -15 54 -7 23 15 22 64 -1 78 -15 9 -21 6 -37 -14 -33 -44 -52 -18 -80 111 l-25 114 -43 3 c-23 2 -42 1 -42 -2z"/>
 <path d="M1223 1640 c-30 -12 -43 -41 -43 -97 0 -61 37 -143 79 -172 44 -31 108 -32 132 -2 11 13 19 34 19 47 0 38 32 30 84 -21 45 -43 66 -51 121 -46 26 2 55 37 55 67 0 17 6 24 19 24 22 0 26 -4 35 -42 5 -23 3 -28 -11 -28 -16 0 -15 -3 4 -18 12 -10 25 -37 31 -64 10 -50 4 -60 -19 -31 -40 47 -145 58 -184 18 -14 -13 -25 -29 -25 -35 0 -6 -18 4 -40 21 -56 46 -133 52 -176 16 -29 -25 -29 -25 -50 -6 -12 11 -37 22 -57 26 -30 4 -40 1 -59 -20 l-23 -25 -28 24 c-49 42 -114 29 -137 -26 -29 -69 19 -209 85 -250 35 -22 95 -26 112 -9 8 8 14 -3 22 -41 6 -28 11 -57 11 -65 0 -8 10 -17 23 -19 38 -8 77 -13 77 -11 0 2 -16 76 -35 166 -41 191 -43 219 -16 219 27 0 38 -18 50 -82 12 -69 29 -104 69 -141 52 -50 136 -54 158 -8 25 50 -27 132 -98 153 -32 9 -38 16 -38 38 0 38 22 54 64 46 49 -9 82 -44 90 -97 15 -98 83 -169 162 -169 72 0 95 50 54 117 -19 32 -84 73 -115 73 -20 0 -20 44 1 64 19 20 35 20 77 2 52 -22 65 -46 89 -162 l23 -109 48 -3 c46 -3 48 -2 42 18 -6 19 -5 21 13 11 39 -21 89 -13 112 17 19 23 21 36 17 93 -9 131 -68 204 -159 196 -34 -3 -48 0 -48 9 0 7 -3 19 -6 28 -4 11 -1 16 10 16 22 0 20 18 -1 22 -14 2 -23 26 -39 98 -11 52 -19 101 -16 108 8 23 42 13 53 -15 5 -16 17 -33 25 -39 8 -7 30 -49 49 -95 33 -81 35 -84 72 -91 21 -3 41 -3 45 0 4 4 8 62 10 128 3 109 1 124 -16 143 -39 43 -124 51 -161 15 -15 -15 -17 -15 -34 0 -10 9 -34 19 -54 23 -66 10 -93 -46 -66 -140 12 -45 11 -48 -18 -41 -15 4 -22 17 -27 42 -14 85 -81 147 -151 138 -61 -7 -78 -35 -73 -117 5 -59 3 -66 -12 -62 -11 3 -20 18 -24 41 -16 100 -105 163 -183 132z m725 -52 c13 -13 15 -96 3 -138 -6 -24 -8 -22 -24 19 -10 24 -15 51 -12 61 4 12 -2 24 -16 33 -11 9 -18 20 -14 26 8 15 48 14 63 -1z m-612 -30 c19 -36 27 -165 12 -174 -29 -18 -77 78 -78 154 0 49 2 52 25 52 18 0 29 -9 41 -32z m257 0 c15 -20 21 -45 22 -98 2 -74 -6 -90 -31 -69 -35 28 -68 136 -57 180 8 28 41 21 66 -13z m341 -357 c26 -45 34 -152 12 -170 -15 -13 -20 -12 -37 6 -27 26 -66 193 -48 204 20 12 53 -6 73 -40z m-840 26 c18 -13 61 -181 51 -198 -10 -15 -41 -10 -59 10 -26 28 -45 89 -46 142 0 61 15 74 54 46z m335 -111 c36 -28 47 -106 16 -106 -17 0 -53 58 -61 99 -6 28 -4 31 12 25 11 -4 25 -12 33 -18z m239 -1 c33 -28 51 -80 33 -98 -15 -15 -40 9 -62 58 -32 70 -22 83 29 40z"/>
 <path d="M700 1176 c0 -11 40 -86 45 -86 3 0 -4 19 -16 43 -23 45 -29 54 -29 43z"/>
 <path d="M2262 1135 c-12 -25 -20 -45 -17 -45 7 0 47 81 43 86 -3 2 -14 -17 -26 -41z"/>
 <path d="M980 236 l0 -236 510 0 510 0 0 230 c0 225 0 230 -19 220 -11 -5 -48 -10 -82 -10 -57 0 -65 -3 -101 -36 -37 -33 -44 -35 -87 -31 -25 3 -58 8 -73 12 -20 5 -42 0 -80 -19 -28 -14 -57 -26 -63 -26 -6 0 -35 12 -63 26 -38 19 -60 24 -80 19 -15 -4 -48 -9 -73 -12 -43 -4 -50 -2 -87 31 -37 33 -44 36 -103 36 -42 0 -72 5 -87 16 l-22 15 0 -235z"/>
 </g>
<g id="layer105" fill="#efe1c9" stroke="none">
 <path d="M940 1646 c0 -3 14 -69 30 -146 17 -77 30 -143 30 -145 0 -3 20 -5 45 -5 36 0 43 3 38 15 -5 14 0 13 31 -2 28 -13 41 -15 54 -7 23 15 22 64 -1 78 -15 9 -21 6 -37 -14 -33 -44 -52 -18 -80 111 l-25 114 -43 3 c-23 2 -42 1 -42 -2z"/>
 <path d="M1223 1640 c-30 -12 -43 -41 -43 -97 0 -61 37 -143 79 -172 44 -31 108 -32 132 -2 11 13 19 34 19 47 0 38 32 30 84 -21 45 -43 66 -51 121 -46 26 2 55 37 55 67 0 17 6 24 19 24 22 0 26 -4 35 -42 5 -23 3 -28 -11 -28 -16 0 -15 -3 4 -18 12 -10 25 -37 31 -64 10 -50 4 -60 -19 -31 -40 47 -145 58 -184 18 -14 -13 -25 -29 -25 -35 0 -6 -18 4 -40 21 -56 46 -133 52 -176 16 -29 -25 -29 -25 -50 -6 -12 11 -37 22 -57 26 -30 4 -40 1 -59 -20 l-23 -25 -28 24 c-49 42 -114 29 -137 -26 -29 -69 19 -209 85 -250 35 -22 95 -26 112 -9 8 8 14 -3 22 -41 6 -28 11 -57 11 -65 0 -8 10 -17 23 -19 38 -8 77 -13 77 -11 0 2 -16 76 -35 166 -41 191 -43 219 -16 219 27 0 38 -18 50 -82 12 -69 29 -104 69 -141 52 -50 136 -54 158 -8 25 50 -27 132 -98 153 -32 9 -38 16 -38 38 0 38 22 54 64 46 49 -9 82 -44 90 -97 15 -98 83 -169 162 -169 72 0 95 50 54 117 -19 32 -84 73 -115 73 -20 0 -20 44 1 64 19 20 35 20 77 2 52 -22 65 -46 89 -162 l23 -109 48 -3 c46 -3 48 -2 42 18 -6 19 -5 21 13 11 39 -21 89 -13 112 17 19 23 21 36 17 93 -9 131 -68 204 -159 196 -34 -3 -48 0 -48 9 0 7 -3 19 -6 28 -4 11 -1 16 10 16 22 0 20 18 -1 22 -14 2 -23 26 -39 98 -11 52 -19 101 -16 108 8 23 42 13 53 -15 5 -16 17 -33 25 -39 8 -7 30 -49 49 -95 33 -81 35 -84 72 -91 21 -3 41 -3 45 0 4 4 8 62 10 128 3 109 1 124 -16 143 -39 43 -124 51 -161 15 -15 -15 -17 -15 -34 0 -10 9 -34 19 -54 23 -66 10 -93 -46 -66 -140 12 -45 11 -48 -18 -41 -15 4 -22 17 -27 42 -14 85 -81 147 -151 138 -61 -7 -78 -35 -73 -117 5 -59 3 -66 -12 -62 -11 3 -20 18 -24 41 -16 100 -105 163 -183 132z m725 -52 c13 -13 15 -96 3 -138 -6 -24 -8 -22 -24 19 -10 24 -15 51 -12 61 4 12 -2 24 -16 33 -11 9 -18 20 -14 26 8 15 48 14 63 -1z m-612 -30 c19 -36 27 -165 12 -174 -29 -18 -77 78 -78 154 0 49 2 52 25 52 18 0 29 -9 41 -32z m257 0 c15 -20 21 -45 22 -98 2 -74 -6 -90 -31 -69 -35 28 -68 136 -57 180 8 28 41 21 66 -13z m341 -357 c26 -45 34 -152 12 -170 -15 -13 -20 -12 -37 6 -27 26 -66 193 -48 204 20 12 53 -6 73 -40z m-840 26 c18 -13 61 -181 51 -198 -10 -15 -41 -10 -59 10 -26 28 -45 89 -46 142 0 61 15 74 54 46z m335 -111 c36 -28 47 -106 16 -106 -17 0 -53 58 -61 99 -6 28 -4 31 12 25 11 -4 25 -12 33 -18z m239 -1 c33 -28 51 -80 33 -98 -15 -15 -40 9 -62 58 -32 70 -22 83 29 40z"/>
 </g>

</svg>
