<!DOCTYPE svg PUBLIC "-//W3C//DTD SVG 20010904//EN" "http://www.w3.org/TR/2001/REC-SVG-20010904/DTD/svg10.dtd">
<svg version="1.0" xmlns="http://www.w3.org/2000/svg" width="600px" height="800px" viewBox="0 0 6960 8410" preserveAspectRatio="xMidYMid meet">
  <g id="layer101" fill="rgba(77, 202, 203, 1)" stroke="none">
   <path d="M2763 8198 c-12 -24 -27 -59 -34 -78 -16 -43 -16 -158 1 -202 20 -55 32 -82 47 -111 l15 -29 -28 15 c-39 21 -115 105 -142 158 -28 56 -52 135 -52 175 0 52 -12 94 -25 94 -31 0 -42 -103 -20 -177 5 -16 3 -21 -11 -20 -32 3 -27 -32 16 -121 39 -79 43 -94 43 -163 0 -42 -5 -84 -10 -93 -8 -14 -14 -11 -48 22 -61 59 -105 163 -105 250 0 55 -13 60 -35 12 -16 -35 -16 -46 -5 -102 16 -75 46 -127 111 -190 47 -45 49 -49 49 -103 0 -62 -13 -95 -36 -95 -8 0 -37 22 -64 50 -47 46 -50 47 -50 24 0 -25 78 -114 100 -114 14 0 12 -83 -3 -103 -11 -16 -20 -3 -73 100 -34 65 -67 139 -75 166 -17 58 -35 56 -32 -5 4 -81 108 -294 173 -357 16 -15 55 -40 86 -56 32 -16 78 -46 104 -66 51 -40 139 -147 159 -194 15 -36 16 -157 0 -219 -15 -62 -7 -238 15 -299 26 -74 66 -130 113 -160 42 -25 63 -60 66 -102 0 -11 4 -25 8 -30 4 -6 13 -24 19 -39 10 -26 9 -28 -5 -16 -13 11 -21 11 -35 3 -14 -10 -22 -7 -41 14 -19 20 -31 24 -56 19 -18 -2 -33 -1 -33 5 0 5 -8 9 -18 9 -11 0 -28 16 -41 41 -20 35 -22 50 -17 102 18 186 18 197 6 227 -15 36 -30 39 -30 6 0 -40 -12 -86 -21 -80 -5 3 -9 11 -9 19 0 8 -5 26 -11 42 -10 27 -11 28 -25 8 -17 -23 -15 -47 14 -125 20 -56 36 -180 23 -180 -15 0 -52 42 -66 77 -26 63 -16 158 29 255 50 111 66 218 46 306 -30 130 -78 192 -187 242 -37 17 -85 40 -105 50 -73 37 -40 -5 66 -83 108 -80 154 -134 163 -193 l6 -34 -34 10 c-19 6 -47 14 -64 19 -153 42 -171 50 -212 93 -36 38 -59 88 -68 151 -5 35 -2 55 16 93 46 97 36 251 -17 295 -16 13 -17 11 -10 -16 16 -73 18 -151 3 -200 l-14 -50 -8 34 c-13 58 -89 177 -162 253 -36 38 -23 5 27 -71 65 -100 81 -145 87 -241 l5 -75 -36 -34 -36 -35 -2 40 c-1 21 -2 82 -3 134 -1 119 -17 175 -62 217 -47 44 -73 45 -40 1 13 -18 29 -52 35 -74 13 -44 16 -124 5 -124 -3 0 -22 12 -41 26 -36 28 -97 145 -142 272 -22 64 -24 163 -5 220 11 33 -10 27 -37 -10 -31 -45 -31 -146 1 -238 43 -120 109 -247 142 -271 73 -55 86 -76 97 -146 5 -38 9 -69 8 -70 0 -1 -24 9 -51 21 -28 13 -69 31 -92 41 -49 21 -59 40 -68 129 -7 62 -9 66 -24 52 -11 -12 -16 -34 -15 -76 1 -70 -6 -73 -71 -35 -46 26 -88 85 -129 178 -27 61 -33 127 -17 184 12 43 4 78 -15 62 -42 -35 -58 -154 -31 -229 21 -58 57 -122 94 -167 18 -23 35 -45 36 -48 1 -4 41 -45 88 -93 136 -135 180 -221 224 -442 8 -41 15 -76 15 -77 0 -2 -12 -3 -27 -3 -56 0 -146 77 -159 135 -8 34 -32 75 -45 75 -5 0 -6 -40 -3 -88 7 -87 -4 -154 -27 -168 -18 -11 -56 100 -68 201 -27 223 -53 300 -121 358 -45 38 -125 66 -141 50 -6 -6 5 -14 32 -23 57 -19 112 -86 137 -169 33 -108 40 -273 11 -255 -5 3 -7 10 -3 15 3 5 0 8 -8 7 -7 -2 -12 3 -10 10 1 6 -4 11 -10 10 -7 -2 -12 3 -10 10 1 8 -1 11 -6 8 -16 -10 -162 156 -162 184 0 20 -25 4 -28 -17 -3 -21 -5 -21 -80 10 -42 17 -79 32 -81 33 -2 2 21 30 51 62 69 75 98 135 98 204 0 78 -15 91 -29 27 -18 -80 -50 -137 -111 -201 -67 -70 -98 -80 -135 -44 -36 36 -44 33 -34 -16 4 -24 8 -63 9 -87 l0 -44 -25 23 c-13 12 -22 26 -20 30 2 4 -2 7 -9 7 -18 0 -2 -71 25 -109 20 -27 20 -33 8 -113 l-13 -84 -18 27 c-36 52 -48 95 -48 166 -1 70 -17 166 -38 218 -16 39 -63 78 -94 78 -41 0 -42 -16 -4 -38 55 -32 73 -80 78 -207 6 -126 22 -179 79 -267 21 -34 39 -65 39 -69 0 -10 -32 -28 -57 -32 -33 -5 -24 -22 12 -22 43 -1 46 -5 75 -85 12 -36 35 -89 51 -118 16 -29 29 -55 29 -58 0 -3 -18 7 -39 23 -22 15 -37 32 -33 38 3 5 2 7 -2 3 -5 -4 -26 5 -48 18 -48 31 -111 54 -145 54 -38 0 -22 -21 25 -36 59 -17 142 -82 142 -111 0 -13 5 -23 10 -23 6 0 10 5 10 10 0 6 4 10 9 10 15 0 30 -91 22 -135 -8 -47 -24 -52 -31 -10 -4 25 -11 31 -43 36 -21 3 -44 15 -52 25 -19 27 -34 94 -29 129 5 27 4 28 -9 13 -23 -29 -62 -38 -117 -28 -37 7 -56 6 -70 -3 -24 -14 -27 -32 -4 -23 8 3 33 3 55 0 l39 -7 0 -56 c0 -31 -5 -62 -12 -69 -8 -8 -8 -15 2 -27 18 -22 38 -19 78 11 l34 27 60 -67 c73 -81 167 -149 230 -166 51 -14 233 -9 343 10 185 30 487 34 645 9 204 -34 392 -100 498 -176 67 -49 132 -91 274 -177 91 -56 159 -121 186 -179 23 -49 36 -100 25 -95 -4 3 -26 13 -48 23 -38 17 -148 121 -142 134 1 3 -35 42 -82 86 -46 44 -81 72 -78 63 5 -14 1 -18 -16 -18 -33 0 -86 36 -105 73 -21 40 -90 112 -99 103 -14 -14 60 -137 111 -182 l51 -46 -58 37 c-31 20 -79 45 -105 56 -62 27 -79 44 -104 101 -22 53 -76 107 -132 133 -45 22 -53 16 -25 -19 l21 -26 -29 12 c-15 7 -44 21 -63 32 -79 44 -109 55 -167 62 -67 7 -133 -1 -133 -16 0 -6 12 -10 28 -10 54 0 173 -36 232 -70 55 -32 176 -81 191 -77 6 1 18 -8 26 -20 14 -21 9 -20 -61 12 -254 115 -530 158 -782 120 -197 -29 -316 -73 -144 -54 41 5 172 10 290 11 226 2 229 2 390 -51 36 -12 74 -26 85 -30 11 -5 47 -19 80 -32 64 -24 89 -39 64 -39 -8 0 -19 4 -24 8 -32 26 -180 48 -380 56 -66 3 -161 8 -211 12 -58 4 -98 3 -110 -4 -17 -10 -17 -11 6 -16 14 -2 48 -7 75 -10 28 -4 51 -10 53 -15 2 -5 41 -29 88 -52 46 -23 84 -46 84 -51 0 -11 -56 -10 -100 1 -19 5 -69 14 -110 21 -41 6 -95 16 -119 21 -24 6 -46 7 -50 4 -10 -11 30 -28 129 -57 52 -15 109 -32 126 -38 39 -13 141 -13 149 0 9 14 47 12 85 -3 l31 -14 -47 -18 c-26 -10 -75 -18 -110 -19 -66 -1 -76 -11 -33 -34 15 -8 44 -11 75 -8 50 4 265 71 334 104 22 10 61 16 106 17 65 0 75 -3 125 -36 30 -20 77 -57 104 -82 l50 -47 -35 6 c-66 10 -115 28 -165 61 -60 40 -116 57 -158 47 -43 -9 -79 -34 -73 -50 4 -11 -7 -14 -49 -14 -59 0 -145 -19 -145 -32 0 -4 52 -8 115 -8 63 0 115 -4 115 -9 0 -5 37 -11 83 -13 213 -13 493 -166 596 -326 32 -51 30 -39 62 -337 25 -237 29 -286 35 -396 10 -174 -28 -364 -104 -514 -27 -54 -147 -179 -162 -170 -6 3 -10 2 -10 -3 0 -21 -124 -78 -225 -102 -27 -7 -74 -20 -103 -30 -55 -18 -50 -18 -187 20 -16 5 -77 20 -135 34 -58 14 -131 33 -162 41 -32 8 -71 15 -87 15 -37 0 -75 16 -121 51 -19 14 -77 57 -127 94 -51 38 -93 72 -93 77 0 5 11 30 24 56 26 53 61 150 71 200 4 17 8 80 9 140 2 88 6 115 25 150 26 51 24 60 -7 32 -47 -45 -72 -136 -72 -268 0 -67 -4 -84 -41 -161 l-41 -86 -13 35 c-8 19 -24 69 -36 110 -13 41 -31 89 -41 105 -25 42 -25 162 2 234 20 56 20 68 0 56 -25 -16 -50 -90 -50 -152 0 -35 -2 -63 -5 -63 -2 0 -15 10 -28 23 -71 65 -117 98 -117 83 0 -15 56 -87 74 -95 18 -8 77 -76 91 -106 7 -16 19 -50 25 -75 27 -108 33 -128 52 -177 24 -62 94 -136 217 -230 23 -17 -84 -17 -164 1 -115 25 -167 56 -281 165 -65 64 -74 76 -74 108 0 51 -20 161 -36 200 -8 18 -39 59 -69 90 -61 64 -113 157 -121 218 -10 72 -14 85 -30 85 -11 0 -14 -5 -9 -17 11 -29 18 -123 10 -123 -5 0 -19 9 -31 21 -15 14 -40 22 -80 25 -55 5 -58 4 -40 -10 11 -9 28 -16 38 -16 32 0 93 -37 126 -77 75 -88 142 -173 142 -178 0 -9 -70 -5 -118 7 -26 6 -65 23 -87 38 -71 48 -102 60 -160 60 -66 0 -73 -15 -9 -23 27 -3 66 -18 97 -38 94 -60 143 -80 226 -93 45 -7 83 -15 85 -17 7 -8 17 -159 11 -159 -4 0 -21 7 -38 14 -36 17 -135 36 -183 36 -25 0 -53 15 -113 60 -44 34 -88 71 -98 84 -23 28 -141 86 -176 86 -39 0 -33 -16 11 -31 50 -16 83 -40 169 -120 40 -38 85 -75 102 -83 29 -15 62 -54 74 -88 7 -19 -1 -18 -68 12 -22 9 -62 22 -89 29 -56 14 -126 59 -158 102 -12 16 -28 27 -35 25 -7 -3 -13 -2 -13 3 0 9 -45 31 -65 31 -24 0 -17 -14 16 -34 28 -16 89 -98 89 -118 0 -4 -14 -8 -32 -8 -25 0 -29 -3 -20 -12 7 -7 22 -13 35 -13 13 -1 43 -24 75 -57 l53 -56 -61 -7 c-71 -8 -75 -6 -172 89 -48 47 -75 66 -93 66 -15 0 -24 -4 -20 -10 3 -6 12 -10 19 -10 14 0 59 -46 109 -114 l37 -49 -33 -18 c-50 -29 -136 -69 -148 -69 -6 0 -30 14 -55 31 -30 20 -53 29 -72 27 l-27 -4 25 -11 c14 -6 42 -24 62 -41 l37 -29 -41 -9 c-26 -6 -47 -18 -57 -34 -15 -23 -15 -24 4 -15 11 4 45 12 75 18 48 8 71 6 174 -20 l119 -30 -34 -25 c-37 -28 -114 -48 -183 -48 -53 0 -78 -17 -70 -47 7 -27 17 -29 34 -8 20 24 77 18 185 -20 124 -43 227 -48 315 -14 251 94 274 98 380 70 44 -11 100 -31 122 -42 l42 -21 -33 -14 c-176 -74 -318 -92 -419 -54 -91 35 -258 24 -339 -22 -18 -10 -49 -27 -68 -38 -44 -25 -60 -25 -93 -1 -36 24 -93 36 -86 17 3 -8 19 -20 35 -26 28 -12 40 -30 19 -30 -5 0 -10 -4 -10 -10 0 -5 14 -10 32 -10 24 0 41 -10 75 -45 40 -43 53 -65 35 -65 -4 0 -43 11 -86 25 -93 30 -118 31 -157 8 -31 -18 -40 -39 -13 -29 48 18 69 16 155 -14 78 -27 100 -31 162 -27 40 3 86 8 104 12 21 5 50 0 90 -13 105 -36 152 -45 212 -40 l59 4 -15 -23 c-9 -13 -23 -23 -32 -23 -10 0 -51 -9 -92 -21 -158 -43 -187 -48 -276 -49 -57 0 -114 6 -150 17 -89 25 -183 28 -211 5 -24 -18 -23 -18 55 -19 49 -1 98 -9 133 -21 54 -19 54 -20 26 -27 -27 -7 -94 1 -201 23 -22 5 -46 7 -53 4 -24 -8 -12 -19 26 -25 20 -3 50 -10 66 -16 l29 -12 -42 -35 c-22 -20 -41 -43 -41 -52 0 -12 4 -11 23 6 13 12 27 19 32 15 4 -5 5 -3 2 3 -11 18 62 42 148 48 44 4 97 11 118 17 44 12 56 7 36 -17 -7 -9 -18 -26 -24 -38 -8 -16 -23 -23 -62 -27 -28 -4 -76 -19 -106 -33 -52 -26 -117 -79 -117 -97 0 -10 29 -1 50 16 8 7 25 18 37 24 22 11 22 10 13 -15 -16 -40 -5 -41 39 -1 56 50 116 65 203 51 l37 -6 -32 -27 c-17 -14 -35 -25 -39 -24 -4 2 -7 -1 -5 -5 1 -5 -13 -25 -31 -46 -33 -38 -33 -38 -78 -27 -30 8 -51 8 -62 2 -14 -9 -12 -11 13 -16 17 -4 42 -15 55 -25 l25 -19 -23 -28 c-12 -15 -32 -42 -43 -60 -11 -18 -36 -42 -55 -53 -19 -12 -34 -26 -34 -31 0 -29 82 20 145 88 l60 64 95 15 c52 9 107 18 122 21 34 6 35 1 3 -52 -24 -42 -46 -55 -96 -55 -32 0 -98 -56 -141 -118 -18 -26 -37 -52 -43 -58 -19 -19 -93 -54 -115 -54 -13 0 -19 -4 -14 -11 9 -16 76 -5 124 20 33 17 40 18 40 6 0 -23 17 -18 24 8 8 32 56 78 115 111 53 28 57 28 42 -2 -5 -9 -16 -34 -25 -55 -9 -21 -40 -63 -68 -93 -28 -30 -49 -56 -46 -59 10 -10 67 26 101 64 20 22 49 69 66 104 16 36 38 70 49 76 11 6 55 8 108 4 101 -6 99 -7 212 94 58 51 58 52 54 22 -3 -18 0 -29 7 -29 12 0 15 7 25 53 8 36 55 64 120 72 28 3 71 9 96 12 l44 6 -19 -29 c-33 -50 -65 -123 -65 -148 0 -14 -4 -27 -9 -30 -5 -3 -38 1 -74 10 -72 18 -106 14 -123 -13 -10 -17 -6 -18 55 -18 139 0 160 -34 28 -46 -39 -4 -106 -10 -147 -13 -140 -13 -192 -39 -315 -156 -85 -81 -118 -99 -215 -116 -77 -14 -120 -30 -120 -47 0 -6 14 -7 33 -2 42 9 147 22 147 18 0 -1 -13 -24 -30 -51 -26 -43 -54 -162 -37 -162 5 0 61 27 119 56 40 21 41 18 8 -30 -27 -41 -41 -96 -22 -96 4 0 18 24 32 53 24 50 135 175 146 164 3 -3 -10 -29 -29 -58 -60 -95 -72 -165 -40 -221 16 -26 22 -29 52 -23 44 8 110 53 145 99 15 20 34 36 43 36 13 0 14 -8 8 -47 -4 -26 -14 -61 -22 -78 -21 -40 -22 -180 -2 -215 13 -23 14 -19 20 70 4 64 13 114 29 155 12 33 25 78 27 101 4 31 11 45 31 57 73 43 145 142 181 247 13 36 34 75 47 88 28 25 50 27 141 11 80 -14 82 -34 4 -59 -55 -17 -101 -52 -101 -76 0 -8 -22 -39 -50 -69 -27 -30 -50 -57 -50 -60 0 -13 22 -2 65 31 63 47 103 69 143 77 28 6 32 4 32 -14 0 -27 -53 -139 -97 -205 -36 -55 -31 -52 -168 -83 -53 -12 -85 -40 -85 -74 0 -19 1 -19 18 -4 10 10 22 14 27 10 4 -5 5 -3 2 3 -8 13 30 30 86 38 41 5 41 7 -3 -59 -15 -22 -33 -57 -39 -77 -10 -29 -18 -38 -35 -38 -27 0 -64 -25 -53 -36 4 -5 22 -3 39 4 21 8 36 8 50 1 14 -7 23 -7 33 1 10 9 20 7 39 -5 20 -13 44 -16 109 -14 80 4 84 3 79 -16 -17 -65 -81 -123 -164 -149 l-43 -14 48 -1 c78 -2 141 38 171 109 24 54 50 89 87 114 37 25 239 108 239 99 0 -18 -58 -78 -113 -117 -95 -68 -167 -176 -197 -298 -7 -26 -21 -56 -31 -67 -18 -19 -25 -41 -13 -41 3 0 20 11 37 24 27 20 158 86 172 86 2 0 -2 -21 -10 -48 -18 -57 -19 -122 -3 -157 19 -43 28 -28 28 51 0 98 21 169 65 219 20 22 56 75 82 117 26 43 50 78 53 78 3 0 12 -41 20 -90 11 -81 11 -98 -4 -163 -10 -40 -23 -104 -30 -143 -13 -72 -22 -97 -34 -91 -4 2 -17 -7 -29 -20 -12 -13 -20 -23 -17 -23 3 0 -4 -12 -15 -26 -22 -27 -29 -94 -11 -94 6 0 10 7 10 15 0 32 72 125 96 125 6 0 19 -10 27 -22 16 -23 16 -22 17 17 1 59 17 78 25 29 3 -21 15 -61 26 -88 24 -62 24 -127 0 -194 -11 -28 -16 -52 -13 -52 17 1 32 19 51 64 27 61 27 135 1 186 -31 61 -26 135 19 269 35 104 39 112 46 85 5 -16 9 -94 10 -174 2 -134 4 -149 28 -203 15 -32 27 -71 27 -87 0 -16 5 -32 10 -35 6 -3 10 -1 10 4 0 6 4 11 8 11 13 0 32 -48 32 -80 0 -17 5 -30 10 -30 17 0 11 96 -7 128 -16 28 -16 30 12 75 l29 45 33 -68 c19 -40 46 -78 63 -90 38 -27 39 -9 4 38 -15 19 -40 69 -55 110 -25 66 -27 81 -18 115 6 24 8 77 3 138 -7 107 -1 119 35 73 13 -17 21 -41 21 -66 0 -77 35 -280 54 -310 15 -25 30 -22 22 5 -26 86 -45 297 -28 297 12 0 47 -72 73 -152 23 -68 23 -68 4 -105 -11 -21 -21 -41 -23 -45 -8 -18 21 -6 45 18 18 18 29 22 36 15 7 -7 -3 -28 -35 -70 -64 -82 -81 -116 -73 -152 7 -33 25 -40 25 -9 0 10 6 32 12 47 19 41 75 113 83 105 4 -4 5 0 3 8 -2 12 6 15 40 13 41 -2 57 12 27 23 -16 7 -20 39 -6 48 5 3 22 34 39 68 32 68 39 109 51 293 9 124 23 177 47 168 10 -4 12 4 8 29 -4 24 -1 38 10 47 9 7 16 9 16 4 0 -5 7 -18 15 -29 15 -18 15 -15 10 31 -6 50 -6 50 44 99 28 28 53 47 57 43 3 -3 11 -42 17 -85 l10 -80 -40 -51 c-22 -28 -44 -47 -48 -43 -5 4 -5 2 -2 -4 4 -6 -5 -22 -19 -35 -56 -52 -94 -162 -94 -274 0 -109 -21 -177 -78 -260 -52 -73 -74 -125 -53 -125 6 0 11 4 11 9 0 5 6 16 13 23 7 7 29 35 49 61 l37 48 11 -43 c20 -75 34 -110 57 -134 35 -38 46 -28 20 19 -49 90 -62 172 -43 269 8 40 17 103 21 141 4 37 10 67 14 67 4 0 20 -13 36 -30 27 -28 29 -36 36 -152 5 -68 15 -142 23 -165 8 -24 13 -43 11 -43 -2 0 1 -15 6 -32 33 -105 39 -149 28 -194 -14 -54 -7 -65 17 -29 11 17 17 45 16 83 0 62 19 105 42 96 10 -4 13 -15 9 -39 -7 -42 5 -125 18 -125 5 0 9 33 9 74 0 41 5 78 10 81 6 3 10 25 10 48 0 26 8 51 20 67 11 14 20 32 20 40 0 8 10 -10 22 -40 15 -40 22 -84 25 -161 4 -95 7 -108 29 -135 18 -21 24 -23 19 -9 -4 11 -10 56 -12 100 l-5 80 36 -73 c23 -46 36 -88 36 -113 0 -40 13 -52 24 -23 13 33 5 70 -34 154 -36 79 -40 94 -38 156 2 38 -1 102 -6 142 -7 63 -6 72 8 72 9 0 16 5 16 10 0 6 -9 10 -20 10 -24 0 -27 28 -4 37 10 4 30 -9 58 -36 23 -22 48 -41 55 -41 9 0 11 -8 7 -25 -16 -63 -16 -118 -2 -225 38 -274 41 -311 21 -363 -10 -25 17 -22 35 6 11 16 15 54 16 137 1 63 7 142 14 175 18 90 24 310 9 362 -6 24 -9 47 -5 50 11 12 23 -16 18 -43 -5 -28 5 -31 23 -7 11 15 14 15 41 -4 61 -44 69 -59 56 -109 -7 -24 -12 -71 -12 -104 0 -50 -7 -75 -45 -153 -49 -102 -52 -114 -32 -141 11 -16 14 -12 26 34 37 145 66 138 66 -16 -1 -57 2 -104 7 -104 19 0 29 88 23 201 -6 100 -5 124 9 154 9 19 19 35 22 35 8 0 64 -130 74 -173 5 -23 10 -73 10 -112 1 -70 1 -70 17 -41 12 23 14 45 10 94 l-6 64 22 -15 c12 -8 31 -33 42 -56 11 -22 22 -41 25 -41 3 0 4 30 2 67 -3 53 5 99 32 205 28 109 36 157 36 228 0 87 1 93 32 131 17 21 35 39 40 39 4 0 8 -15 8 -32 1 -29 6 -67 36 -250 7 -40 -21 -141 -57 -204 -11 -20 -17 -39 -13 -43 10 -10 71 67 78 99 3 17 9 44 12 60 4 17 10 32 14 35 4 2 29 -25 56 -60 48 -64 71 -82 61 -47 -2 9 -6 23 -8 30 -2 8 -21 32 -41 55 -55 61 -74 122 -88 276 -7 74 -17 146 -23 160 -18 42 -67 111 -124 177 -46 53 -53 67 -53 102 0 53 21 132 35 132 6 0 30 -20 54 -44 43 -44 43 -44 36 -97 -7 -49 -6 -52 9 -40 9 7 16 23 16 35 1 21 1 21 16 1 8 -11 14 -32 11 -48 -3 -20 0 -26 12 -25 21 4 30 -42 40 -207 10 -156 32 -239 83 -313 25 -36 28 -46 17 -53 -8 -5 -17 -9 -21 -9 -12 0 -10 -30 1 -30 6 0 13 5 16 10 13 21 44 8 77 -33 49 -61 68 -94 68 -116 0 -36 11 -53 26 -40 31 26 19 59 -64 173 -29 41 -40 62 -32 70 7 7 19 1 40 -19 32 -31 38 -23 16 20 -8 15 -12 43 -10 64 5 41 39 132 67 176 l18 30 -5 -125 c-2 -69 -8 -137 -12 -153 -4 -17 -2 -27 5 -27 6 0 11 8 11 18 0 10 4 22 8 28 10 11 28 127 38 237 5 65 11 83 31 103 13 13 26 24 28 24 3 0 3 -73 2 -162 -4 -181 -15 -225 -78 -312 -18 -25 -29 -49 -25 -53 12 -12 75 60 104 121 l29 60 28 -48 c27 -46 28 -49 12 -76 -10 -17 -17 -48 -16 -77 l1 -48 16 45 c24 64 32 76 43 59 7 -11 9 -9 9 6 0 11 14 56 32 100 30 77 31 85 32 237 1 175 14 220 36 126 7 -29 20 -69 28 -88 33 -79 44 -143 32 -190 -6 -25 -15 -49 -19 -55 -4 -5 -13 -29 -20 -51 -11 -34 -11 -49 -1 -80 20 -62 51 -124 62 -124 11 0 10 8 -17 105 l-16 60 30 83 c17 46 31 92 31 103 0 11 5 17 10 14 6 -3 10 -24 10 -46 0 -41 14 -53 25 -19 3 11 10 20 15 20 14 0 79 -79 96 -117 19 -43 29 -30 19 24 -4 23 -23 54 -56 88 -37 39 -49 59 -49 83 0 18 -11 71 -25 118 -28 95 -31 167 -12 259 l13 60 30 -45 c16 -25 36 -57 43 -71 7 -15 29 -44 47 -65 42 -48 58 -81 79 -162 10 -42 14 -79 9 -109 -5 -36 -4 -45 7 -41 7 2 17 18 21 34 10 34 0 150 -15 179 -8 17 -8 18 4 9 8 -6 34 -19 59 -28 25 -10 66 -31 91 -47 57 -36 66 -37 41 -1 -10 15 -29 58 -41 96 -45 140 -104 224 -202 287 -28 17 -63 51 -79 74 l-29 42 92 -39 c178 -75 191 -85 236 -171 43 -84 89 -117 170 -123 55 -4 56 -4 26 10 -16 9 -51 25 -77 37 -44 19 -88 70 -88 101 0 6 -8 20 -17 31 -18 20 -17 20 17 13 81 -17 98 -17 152 -3 37 10 60 11 66 5 6 -6 17 -6 30 1 16 8 31 8 62 -3 62 -21 59 1 -4 30 -37 17 -56 31 -56 43 0 10 -18 46 -40 79 l-40 62 26 0 c14 0 48 -11 76 -25 59 -30 58 -30 58 -7 0 36 -68 69 -155 74 -34 3 -44 9 -77 53 -50 67 -95 151 -103 198 -7 34 -5 37 17 37 29 0 87 -30 156 -81 62 -47 74 -28 15 27 -20 19 -44 52 -54 74 -17 37 -60 70 -93 70 -28 0 -66 23 -66 40 0 14 12 19 63 23 34 3 72 8 83 12 27 8 94 -47 94 -77 0 -35 70 -168 112 -214 22 -24 56 -53 74 -65 23 -14 34 -28 34 -45 0 -13 12 -59 27 -101 21 -63 26 -96 26 -170 1 -51 3 -93 5 -93 36 0 44 168 12 252 -20 53 -27 118 -12 118 4 0 32 -25 62 -55 94 -96 155 -112 185 -49 16 33 16 62 1 119 -4 18 -48 99 -70 130 l-21 30 31 -22 c49 -35 111 -107 139 -162 14 -28 28 -51 31 -51 13 0 -6 71 -25 99 -12 16 -21 32 -21 35 0 9 103 -34 121 -50 42 -38 39 51 -6 138 l-34 67 67 -6 c37 -3 75 -10 85 -15 27 -14 32 -3 9 20 -14 14 -40 23 -79 27 -102 11 -156 40 -260 137 -53 49 -110 95 -127 103 -29 13 -72 20 -281 45 -49 6 -101 13 -114 16 l-24 5 29 15 c21 11 50 15 102 12 77 -4 84 2 39 36 -26 19 -27 19 -94 1 -37 -10 -74 -20 -80 -23 -9 -3 -13 6 -13 26 0 34 -30 110 -61 153 l-20 29 60 0 c64 0 145 -22 173 -47 10 -9 20 -31 24 -49 7 -38 23 -45 31 -14 5 20 6 20 32 0 47 -34 81 -67 76 -74 -3 -3 -2 -4 2 -1 3 3 17 -5 31 -17 22 -21 32 -23 126 -20 120 3 116 5 171 -106 37 -74 103 -142 137 -142 25 0 23 7 -12 37 -17 14 -43 44 -59 67 -27 40 -65 126 -56 126 5 0 58 -29 94 -51 11 -8 21 -20 21 -27 0 -7 4 -11 9 -8 4 3 17 -10 27 -29 19 -36 30 -43 36 -24 3 8 17 5 43 -8 50 -25 115 -38 115 -23 0 6 -12 15 -27 21 -83 33 -95 42 -143 108 -61 84 -91 107 -160 123 -51 12 -68 27 -100 87 -14 27 -16 27 93 -3 32 -9 77 -16 101 -16 38 0 49 -5 82 -40 22 -23 38 -45 36 -50 -1 -6 4 -10 11 -10 8 0 22 -9 31 -19 20 -22 106 -55 106 -41 0 5 -11 15 -25 23 -36 18 -137 136 -133 155 2 8 22 22 46 30 23 7 42 18 42 23 0 13 -44 11 -74 -2 -23 -11 -29 -6 -94 59 -77 78 -76 82 13 82 64 0 115 -20 154 -60 15 -17 31 -30 35 -30 13 0 5 34 -11 53 -16 17 -14 17 22 -3 22 -12 44 -26 50 -31 14 -13 25 -11 25 5 0 34 -148 116 -211 116 -36 0 -63 21 -89 70 -11 21 -10 21 52 15 201 -20 237 -30 278 -80 16 -19 30 -19 30 -1 0 8 -19 30 -42 49 -36 30 -39 35 -22 40 93 25 114 32 114 39 0 13 -43 9 -124 -12 -60 -15 -89 -17 -134 -11 -31 5 -50 9 -41 10 9 0 44 10 80 22 35 12 90 21 121 21 56 0 77 11 41 22 -51 15 -94 15 -148 0 -172 -45 -303 -41 -472 15 -79 26 -107 31 -192 31 -89 0 -101 2 -111 19 -9 18 -7 19 23 11 62 -16 147 -18 147 -3 0 10 19 13 73 13 50 0 96 8 152 26 70 22 89 25 155 18 118 -11 202 -2 245 27 25 17 95 20 125 6 25 -13 30 -13 30 -2 0 45 -95 58 -185 24 -30 -11 -64 -19 -76 -17 -20 3 -19 5 10 45 18 24 42 45 56 48 14 3 36 7 50 10 29 6 33 22 8 27 -14 3 -11 8 15 23 69 41 24 48 -49 8 l-49 -28 -33 19 c-112 67 -195 96 -273 96 -20 0 -74 -9 -121 -21 -103 -25 -247 -23 -328 6 -87 30 -138 56 -129 65 5 5 39 20 77 35 54 20 85 25 157 25 49 0 102 -5 117 -11 15 -6 37 -15 48 -20 56 -24 183 -61 225 -66 49 -6 114 6 210 37 134 43 148 45 181 21 34 -25 34 -25 43 5 10 34 -27 51 -120 55 -68 3 -87 8 -123 32 -52 35 -46 45 35 57 32 5 79 16 103 24 54 20 89 20 134 1 20 -8 44 -15 53 -15 15 0 14 4 -6 25 -14 15 -35 25 -52 25 -15 0 -28 3 -28 6 0 11 54 49 65 46 5 -2 7 0 3 3 -4 4 3 16 15 26 12 10 17 18 10 19 -13 0 -81 -35 -97 -51 -6 -5 -25 -9 -43 -9 -32 0 -66 15 -136 61 l-34 23 47 65 c27 37 62 77 80 89 17 13 29 26 27 29 -11 11 -75 -34 -134 -93 l-62 -64 -72 0 -72 0 47 50 c25 27 46 54 46 60 0 5 15 10 34 10 19 0 38 5 41 10 3 6 -5 10 -19 10 -14 0 -27 4 -30 8 -9 14 26 71 65 107 34 31 49 55 34 55 -18 0 -106 -55 -121 -76 -29 -38 -85 -71 -161 -95 -37 -11 -82 -27 -100 -35 -32 -14 -53 -18 -53 -9 0 19 52 77 90 101 25 15 74 58 110 94 61 61 93 83 163 109 16 6 25 16 22 22 -8 12 -58 3 -100 -19 -16 -9 -33 -15 -37 -14 -5 1 -7 -1 -7 -6 3 -19 -2 -25 -11 -12 -9 13 -12 12 -22 -4 -25 -44 -118 -120 -183 -151 -22 -10 -71 -21 -110 -25 -41 -3 -89 -15 -114 -28 -25 -12 -46 -22 -48 -22 -6 0 -1 115 6 140 5 20 15 26 46 31 131 21 163 33 265 99 25 15 54 29 65 30 11 0 34 7 50 14 l30 13 -35 7 c-36 7 -103 -11 -147 -39 -57 -38 -93 -53 -155 -64 -37 -7 -72 -11 -78 -9 -6 2 8 23 31 48 22 25 52 63 66 85 50 80 76 98 198 140 19 7 19 7 -2 15 -26 11 -71 -1 -118 -30 -22 -14 -33 -17 -30 -8 11 30 21 138 13 138 -14 0 -38 -65 -38 -101 0 -47 -27 -96 -103 -186 -78 -93 -106 -155 -113 -252 -8 -95 -18 -114 -103 -192 -112 -103 -199 -140 -366 -155 l-79 -7 89 75 c141 117 157 145 205 358 15 68 31 94 110 175 72 73 94 106 73 105 -5 -1 -37 -28 -73 -60 l-65 -59 -6 72 c-6 77 -18 115 -43 136 -14 12 -16 11 -16 -5 0 -11 7 -37 15 -59 8 -22 14 -73 15 -112 0 -59 -5 -82 -25 -120 -14 -27 -37 -88 -51 -138 l-26 -89 -19 24 c-10 14 -32 60 -49 102 -26 68 -30 90 -30 178 0 114 -20 175 -71 211 -33 23 -36 19 -12 -18 33 -50 43 -97 43 -204 0 -112 15 -178 66 -287 13 -29 24 -61 24 -70 0 -20 -58 -69 -75 -64 -5 2 -7 1 -3 -3 14 -15 -189 -155 -225 -155 -15 0 -46 -4 -69 -10 -92 -21 -287 -71 -358 -91 -116 -33 -117 -33 -188 -11 -37 11 -96 28 -132 38 -76 21 -180 71 -187 91 -3 7 -9 11 -13 8 -4 -3 -35 22 -68 55 -72 72 -126 172 -151 283 -6 26 -17 68 -23 95 -13 46 -17 425 -10 752 l3 135 51 95 c57 108 92 149 151 178 69 33 77 35 207 42 107 6 133 11 177 33 28 15 54 30 56 34 3 5 -29 7 -71 5 -102 -4 -76 10 60 33 114 19 148 17 278 -16 121 -30 188 -22 254 33 48 40 45 51 -6 25 -47 -22 -150 -28 -243 -13 l-50 8 50 16 c63 20 145 99 164 158 17 53 47 69 125 68 57 -1 128 -20 231 -64 86 -36 164 -36 204 1 12 11 21 23 21 27 0 4 -37 7 -83 8 -77 0 -151 17 -250 56 -28 11 -27 11 48 44 92 41 139 43 186 9 39 -29 92 -55 98 -49 12 12 -34 82 -65 99 -19 10 -34 21 -34 25 0 9 260 95 362 119 50 12 120 21 167 21 45 0 81 4 81 9 0 34 -211 34 -360 0 -122 -28 -172 -44 -385 -129 -129 -51 -259 -92 -362 -113 -33 -7 -18 16 25 41 34 19 116 47 217 74 69 18 98 29 173 67 99 49 126 78 128 140 1 58 -15 60 -37 5 -22 -57 -66 -88 -208 -143 -96 -38 -75 -20 54 48 95 51 113 66 132 109 22 52 5 56 -42 8 -25 -24 -77 -61 -117 -81 -40 -21 -99 -56 -131 -79 -33 -23 -69 -46 -80 -52 -72 -38 -127 -63 -127 -58 0 4 14 33 30 66 17 32 30 61 30 63 0 13 -32 3 -37 -12 -4 -10 -19 -36 -34 -59 -15 -23 -39 -66 -52 -96 -29 -65 -60 -83 -157 -94 l-65 -7 26 29 c14 16 44 56 66 89 23 33 51 70 64 82 38 35 116 69 234 103 233 66 298 97 355 170 18 23 32 54 35 81 l6 44 -18 -25 c-38 -52 -75 -90 -84 -84 -5 3 -9 0 -9 -5 0 -11 -82 -55 -130 -71 -14 -4 -33 -11 -42 -15 -16 -6 -15 1 7 60 25 69 49 105 70 105 15 0 65 46 65 60 0 28 -97 -14 -142 -62 l-28 -30 0 27 c0 15 5 45 12 66 14 50 5 59 -28 28 l-27 -24 29 44 29 44 120 -7 c166 -9 195 -17 276 -70 39 -26 73 -45 76 -43 2 3 -3 19 -12 37 l-16 31 61 -33 c34 -18 73 -39 87 -47 l27 -14 -44 -16 c-70 -26 -61 -40 17 -24 53 11 77 12 115 3 48 -12 128 -5 128 10 0 5 -10 11 -22 13 -22 4 -22 4 2 6 71 4 159 49 232 119 32 30 58 52 58 49 0 -4 9 2 21 14 45 45 8 36 -91 -24 -146 -88 -203 -111 -275 -111 -53 -1 -69 4 -139 44 l-79 45 59 11 c116 22 164 57 249 178 65 94 103 131 163 157 31 14 43 29 21 29 -39 0 -132 -63 -229 -155 -131 -125 -174 -145 -307 -145 l-85 0 17 28 c26 41 42 50 104 58 107 13 187 68 229 157 26 55 26 57 7 57 -8 0 -32 -24 -54 -52 -22 -29 -55 -62 -73 -73 -37 -22 -100 -46 -106 -40 -2 2 18 19 45 39 61 43 80 76 67 113 -13 37 -30 39 -37 4 -4 -19 -27 -46 -69 -83 -35 -29 -90 -81 -123 -115 -33 -34 -73 -66 -88 -72 -32 -12 -89 -14 -135 -5 l-31 6 53 53 c54 55 120 95 156 95 33 0 77 27 141 86 33 30 71 59 85 64 14 6 65 10 113 10 155 0 252 30 310 95 22 25 31 46 31 70 0 70 -26 89 -36 26 -15 -94 -98 -141 -247 -141 -95 0 -96 7 -6 70 70 49 154 128 145 137 -3 3 -27 -13 -54 -35 -27 -23 -80 -58 -118 -78 -109 -58 -195 -118 -249 -175 -27 -28 -69 -60 -93 -70 -50 -22 -52 -22 -52 -10 0 15 122 141 131 135 5 -3 9 0 9 5 0 14 104 91 190 141 133 78 181 145 154 214 -9 24 -24 19 -24 -8 0 -28 -64 -103 -111 -130 -32 -19 -32 -19 -25 0 4 10 11 55 16 99 8 88 23 135 41 135 7 0 10 3 6 6 -3 3 10 20 29 36 19 17 39 39 45 50 9 17 4 16 -38 -7 -101 -56 -133 -106 -133 -204 0 -92 -38 -162 -128 -236 -30 -25 -56 -44 -58 -43 -2 3 22 108 50 211 20 71 20 118 2 179 -15 48 -134 248 -148 248 -12 0 -10 -46 4 -77 7 -15 25 -48 42 -72 57 -85 75 -161 60 -241 l-7 -32 -16 46 c-20 57 -82 143 -127 176 -18 14 -36 33 -40 43 -6 20 25 90 69 156 24 35 27 45 16 52 -22 14 -25 12 -61 -38 -61 -86 -108 -196 -148 -350 -25 -94 -33 -105 -54 -64 -9 17 -21 31 -27 31 -12 0 -8 -28 12 -96 10 -34 10 -48 0 -73 -8 -17 -17 -31 -21 -31 -4 0 -10 49 -14 109 -13 226 16 391 105 590 16 35 27 67 24 69 -3 3 -21 -9 -40 -28 -33 -32 -71 -111 -95 -200 -26 -95 -28 -99 -29 -44 -1 28 -4 53 -7 57 -14 13 -34 -7 -35 -37 -1 -17 -7 7 -13 54 -18 133 -59 196 -122 188 -38 -4 -39 -20 -1 -43 54 -33 73 -87 81 -222 4 -65 4 -127 0 -136 -3 -10 -26 -31 -50 -48 l-44 -30 0 43 c0 53 -17 121 -67 277 -24 73 -25 153 -2 167 5 3 9 12 9 20 0 8 16 39 37 69 20 31 33 58 29 62 -9 10 -72 -54 -108 -109 -17 -27 -34 -48 -37 -48 -9 1 -71 110 -77 135 -3 12 4 48 17 81 41 112 69 216 69 258 -1 40 -1 41 -18 20 -10 -12 -24 -41 -31 -65 -33 -106 -57 -171 -66 -172 -5 -1 -20 19 -34 45 l-25 46 32 36 c64 73 102 168 87 216 -10 31 -20 24 -34 -27 -17 -61 -51 -120 -89 -156 l-29 -28 -27 32 c-40 47 -58 97 -55 159 1 30 1 66 -1 80 -3 49 -38 -50 -39 -113 -1 -46 6 -72 35 -133 l36 -76 -39 -40 c-21 -22 -82 -78 -135 -124 -53 -46 -105 -98 -115 -114 -21 -35 -43 -39 -44 -7 0 12 -3 31 -5 42 -21 96 -10 201 28 278 10 21 36 54 56 73 l37 35 -30 -7 c-92 -22 -133 -98 -144 -264 l-6 -95 -30 -3 c-16 -1 -70 -17 -120 -35 -73 -26 -99 -41 -137 -80 l-48 -48 0 36 c0 23 -6 38 -15 41 -13 5 -13 10 4 38 59 96 99 194 127 306 17 69 17 111 2 200 -10 55 -16 70 -30 70 -15 0 -17 -12 -15 -127 1 -154 -22 -247 -75 -304 -18 -19 -38 -44 -44 -55 -11 -18 -12 -18 -22 6 -5 14 -17 50 -26 81 -18 62 -74 144 -105 152 -15 4 -18 1 -14 -12 3 -9 10 -21 14 -27 5 -6 5 -15 1 -19 -4 -5 -2 -5 4 -2 14 8 53 -85 78 -181 21 -84 23 -247 3 -287 -8 -16 -23 -67 -32 -113 l-18 -82 -25 37 c-14 21 -32 44 -40 52 -7 8 -12 24 -10 36 4 18 -2 25 -29 34 -43 16 -147 112 -161 148 -35 96 -35 108 -12 179 32 101 54 143 157 302 51 79 93 147 93 153 0 21 -19 3 -91 -89 -153 -196 -203 -289 -229 -425 -11 -60 -15 -68 -33 -65 -15 2 -25 15 -33 43 -19 63 -16 126 12 216 49 161 56 191 49 225 -9 49 -30 42 -45 -13 -6 -27 -16 -59 -21 -73 -35 -100 -52 -192 -52 -283 0 -93 -1 -99 -24 -114 -39 -26 -45 -8 -33 97 8 58 8 96 2 102 -6 6 -12 -3 -16 -24 -16 -88 -50 -178 -66 -178 -36 0 -65 47 -89 142 -13 51 -37 122 -54 158 -41 87 -45 154 -17 247 14 47 19 77 13 88 -8 13 -13 8 -30 -27z m-9 -461 c59 -49 74 -78 87 -174 6 -43 15 -95 21 -116 6 -20 9 -40 5 -43 -3 -3 -23 13 -44 37 -21 23 -43 47 -48 53 -38 40 -76 109 -78 146 -1 22 -4 40 -7 40 -29 0 -40 -85 -18 -137 7 -15 32 -52 57 -82 83 -96 101 -124 101 -152 l0 -28 -35 23 c-30 21 -120 62 -209 96 -14 5 -26 15 -26 21 0 6 13 61 29 122 36 137 45 218 33 275 l-10 43 48 -43 c26 -24 69 -60 94 -81z m1739 22 c15 -44 27 -102 27 -129 l0 -49 -32 11 c-59 18 -151 26 -221 19 l-69 -7 84 75 c45 42 103 95 128 118 25 24 48 43 51 43 3 0 18 -36 32 -81z m-440 -116 c2 -5 7 -20 10 -34 l7 -26 -67 4 c-48 2 -70 -1 -82 -11 -14 -12 -19 -12 -35 -1 -17 13 -15 15 25 34 71 32 134 47 142 34z m407 -91 l45 -20 -55 5 c-69 6 -143 -20 -217 -77 l-53 -40 0 75 0 74 33 4 c68 10 202 -1 247 -21z m-1351 4 c6 -4 11 -22 11 -40 0 -19 7 -39 15 -46 22 -18 18 -29 -7 -23 -22 4 -23 4 -4 -11 11 -9 25 -16 31 -16 11 0 39 -49 33 -56 -8 -8 -93 69 -90 82 2 8 -5 14 -17 14 -13 0 -27 12 -36 31 -11 19 -22 29 -31 25 -17 -7 -19 25 -2 42 12 12 76 11 97 -2z m762 4 c28 -15 24 -32 -6 -24 -35 9 -58 -13 -51 -48 3 -15 2 -28 -2 -28 -11 0 -34 17 -33 24 3 20 0 26 -9 21 -5 -3 -10 -4 -10 -1 0 4 81 66 88 66 2 0 12 -5 23 -10z m195 -16 c13 -14 24 -33 24 -43 0 -9 5 -22 12 -29 9 -9 7 -12 -10 -12 -12 0 -31 -5 -42 -12 -15 -9 -24 -9 -44 1 -22 12 -28 11 -55 -10 -46 -37 -36 -56 13 -24 13 9 31 13 40 9 14 -5 12 -11 -14 -40 -40 -46 -61 -89 -63 -130 l-2 -34 -30 34 c-33 37 -85 74 -85 59 0 -4 11 -24 24 -44 13 -19 34 -57 46 -85 52 -116 63 -150 55 -174 -7 -21 -7 -21 -21 5 -8 15 -20 48 -28 74 l-13 46 -11 -35 c-13 -38 -7 -70 23 -134 10 -22 14 -43 10 -53 -8 -17 -8 -17 -12 0 -5 21 -23 23 -23 2 0 -9 -21 -37 -47 -63 l-47 -47 -10 32 c-13 49 8 90 61 116 51 25 54 35 13 44 -16 3 -30 6 -30 8 0 1 13 26 30 56 40 72 41 141 4 184 l-25 30 6 -62 c7 -73 -10 -96 -21 -27 -15 100 21 219 73 243 13 6 22 15 19 20 -3 4 4 17 15 27 11 10 29 33 41 51 11 19 25 32 32 30 6 -2 20 -1 31 4 31 12 36 11 61 -17z m-320 -92 c-23 -23 -33 -6 -10 19 12 13 20 16 22 9 3 -7 -3 -19 -12 -28z m756 16 c14 -12 14 -18 0 -65 -13 -43 -20 -52 -34 -47 -19 6 -26 -20 -8 -31 19 -12 12 -50 -27 -145 -9 -22 -11 -18 -21 40 -6 36 -18 105 -27 154 -12 72 -13 91 -3 98 20 12 102 9 120 -4z m-165 -65 c0 -32 7 -86 16 -121 19 -69 23 -227 7 -237 -5 -3 -10 0 -10 8 0 14 -24 62 -76 152 -32 55 -45 83 -65 133 -11 31 -10 35 13 57 23 21 95 64 110 65 3 0 6 -26 5 -57z m-550 25 c-4 -13 -18 -58 -34 -102 l-27 -79 18 -66 c31 -110 31 -124 0 -181 l-28 -51 -23 43 c-24 46 -33 161 -13 173 6 3 10 13 10 21 0 23 -37 -1 -61 -39 -20 -32 -21 -76 -3 -135 5 -16 3 -22 -7 -20 -8 2 -15 -7 -17 -22 -6 -45 -11 -53 -26 -41 -7 6 -11 23 -9 39 14 98 27 150 43 172 20 29 45 97 56 155 4 22 17 53 30 68 13 16 24 35 24 43 0 8 6 14 14 14 7 0 19 7 26 15 18 22 33 18 27 -7z m333 -13 c27 -29 29 -26 -44 -109 -27 -31 -46 -59 -43 -62 6 -7 58 26 97 62 l26 23 39 -75 c109 -205 105 -196 105 -260 0 -50 -4 -64 -22 -81 -26 -23 -109 -65 -116 -58 -3 2 2 19 9 37 19 44 18 237 -1 303 l-15 50 -6 -50 c-4 -27 -8 -98 -8 -156 -1 -102 -2 -107 -37 -165 -19 -32 -39 -63 -44 -67 -10 -11 -26 62 -35 158 -9 85 4 139 45 190 32 40 47 81 35 93 -4 4 -16 -4 -27 -18 -50 -61 -80 -92 -85 -86 -4 3 -6 39 -6 79 0 60 5 80 28 122 28 51 63 95 75 95 4 0 17 -11 30 -25z m505 0 c41 -31 101 -112 110 -148 7 -27 -10 -87 -25 -87 -4 0 -10 17 -13 39 -6 45 -35 111 -49 111 -6 0 -7 -7 -2 -17 4 -10 10 -62 12 -115 l4 -97 -52 -50 c-28 -27 -60 -51 -72 -54 -20 -6 -20 -5 -1 16 54 62 67 176 26 234 -26 36 -30 91 -11 153 15 46 29 49 73 15z m-1634 -169 c53 -80 56 -99 31 -152 -20 -41 -42 -58 -42 -33 0 6 -13 41 -30 79 -28 63 -30 77 -29 177 l0 108 16 -59 c8 -32 33 -86 54 -120z m129 84 c54 -54 77 -98 91 -174 10 -55 0 -128 -19 -140 -5 -3 -25 23 -44 58 -32 55 -36 70 -36 127 1 70 -19 126 -69 189 l-27 35 29 -25 c17 -14 50 -45 75 -70z m220 48 c36 -49 36 -55 5 -93 l-24 -29 -25 57 c-14 31 -28 68 -32 82 -5 22 -3 25 20 25 19 0 34 -11 56 -42z m-743 -37 c18 -7 31 -17 28 -22 -3 -4 25 -55 62 -111 38 -57 81 -128 97 -158 l28 -55 -49 50 c-65 68 -126 115 -196 150 -48 25 -57 33 -52 50 4 11 11 38 16 59 11 45 18 59 27 53 4 -2 22 -9 39 -16z m220 -151 c87 -88 114 -201 93 -385 -29 -249 -25 -301 39 -515 l10 -35 -24 30 c-48 58 -85 163 -85 242 0 23 9 97 21 165 19 108 20 132 9 198 -21 135 -58 215 -177 380 -17 22 -14 22 29 -8 25 -17 64 -50 85 -72z m638 17 c30 -62 42 -127 24 -138 -9 -5 -26 10 -56 48 -50 64 -57 99 -31 151 12 22 13 23 26 5 8 -10 24 -39 37 -66z m1065 -26 c0 -27 -7 -65 -15 -84 -16 -40 -68 -102 -95 -117 -17 -9 -17 -7 -7 22 7 18 31 70 55 117 23 46 42 90 42 97 0 8 5 14 10 14 6 0 10 -22 10 -49z m-1148 -72 l66 -87 -29 -28 -29 -28 0 52 c0 47 -15 71 -24 40 -34 -115 -43 -136 -69 -161 -23 -21 -33 -25 -43 -16 -19 15 -18 44 2 60 8 7 27 35 41 62 20 41 24 60 21 111 -2 33 -8 70 -13 81 -11 28 0 15 77 -86z m1638 56 c-5 -22 -10 -57 -10 -77 0 -20 -4 -40 -10 -43 -17 -10 -12 85 7 126 21 48 25 46 13 -6z m320 -71 c60 -99 90 -226 72 -304 l-8 -35 -12 45 c-6 25 -27 70 -46 100 -19 30 -49 79 -66 108 -37 61 -55 59 -46 -5 4 -31 19 -62 49 -101 23 -31 48 -70 55 -85 20 -46 15 -151 -9 -202 -27 -58 -36 -62 -44 -23 -4 18 -13 42 -20 53 -7 11 -16 44 -19 73 -6 47 -32 111 -57 137 -14 14 -11 44 17 135 14 47 29 99 34 115 4 17 13 43 19 60 l12 30 19 -25 c10 -14 33 -48 50 -76z m-575 24 c-25 -166 -71 -276 -145 -347 -26 -25 -98 -75 -161 -110 -63 -36 -150 -90 -195 -121 l-80 -57 4 31 c4 29 73 106 95 106 5 0 46 18 92 40 168 83 331 261 334 367 1 21 51 133 59 133 2 0 1 -19 -3 -42z m-1641 -80 c14 -29 25 -59 25 -67 -1 -9 -32 -45 -70 -80 l-69 -64 0 61 c0 62 8 82 62 166 13 20 24 36 25 36 0 0 13 -23 27 -52z m1768 -108 c-22 -19 -54 -43 -71 -53 l-32 -19 16 37 c8 21 15 50 15 65 0 33 39 84 78 102 l27 13 3 -55 c3 -53 2 -56 -36 -90z m-2557 -78 c-3 -4 -135 60 -135 65 0 2 15 22 32 43 l33 39 36 -72 c20 -40 35 -73 34 -75z m2315 144 c0 -2 -10 -24 -22 -47 -34 -64 -163 -192 -228 -224 l-55 -27 49 43 c27 24 63 57 80 72 l31 29 -29 -7 c-46 -10 -103 -53 -218 -164 -54 -51 -66 -41 -14 13 18 20 32 36 29 36 -19 0 129 116 260 205 49 32 90 62 93 67 5 8 24 11 24 4z m-2593 -55 l61 -35 -27 -40 c-15 -23 -30 -49 -34 -58 -4 -10 -11 -18 -16 -18 -10 0 -59 115 -71 167 -9 37 -8 37 87 -16z m2966 -68 c3 -35 2 -63 -2 -63 -21 0 -42 155 -24 174 10 10 20 -33 26 -111z m-1556 57 c-28 -50 -141 -184 -145 -172 -1 5 7 35 18 65 16 43 35 69 77 106 31 28 60 48 64 45 5 -2 -2 -22 -14 -44z m212 -57 c1 -33 -11 -43 -25 -22 -3 6 -7 39 -9 72 l-2 62 18 -40 c10 -22 18 -55 18 -72z m1267 -33 c-3 -18 0 -32 8 -39 8 -6 16 -26 20 -43 4 -18 18 -50 33 -71 20 -28 27 -52 29 -95 2 -50 2 -52 -4 -15 -6 35 -10 41 -22 33 -8 -5 -12 -10 -7 -10 4 0 0 -12 -10 -27 -13 -20 -17 -44 -15 -99 3 -95 -5 -100 -153 -109 -60 -3 -124 -8 -141 -11 l-31 -4 45 47 c25 25 67 57 94 71 77 38 140 109 149 167 4 31 -11 87 -23 83 -6 -2 -17 -29 -25 -58 -7 -30 -21 -61 -30 -67 -9 -7 -13 -13 -8 -13 14 0 -28 -41 -57 -56 -15 -8 -30 -14 -34 -14 -8 0 2 107 12 133 3 10 1 17 -5 17 -18 0 -50 -61 -57 -110 -11 -74 -23 -82 -24 -15 0 62 29 133 50 120 6 -3 10 -2 10 4 0 6 16 18 35 27 40 19 45 34 11 34 -38 0 -92 -27 -119 -60 -28 -33 -33 -53 -41 -174 -7 -96 -21 -116 -116 -158 -159 -71 -196 -94 -270 -165 -41 -40 -78 -73 -82 -73 -4 0 -8 -9 -8 -20 0 -22 -8 -25 -30 -10 -13 9 -13 12 3 24 10 8 14 17 9 20 -7 4 -5 25 3 58 11 39 27 64 67 105 l53 53 92 -2 c74 -2 95 0 108 13 15 15 12 17 -40 22 -104 11 -87 31 30 35 65 3 88 8 104 23 24 22 36 61 27 86 -6 13 -11 10 -32 -20 -22 -33 -30 -37 -67 -37 l-41 0 24 17 c46 30 117 110 122 137 7 35 -2 33 -43 -10 -18 -20 -93 -76 -164 -124 -72 -48 -136 -95 -144 -104 -24 -29 -33 -17 -11 14 27 38 119 113 196 160 32 19 90 56 131 82 40 26 73 44 73 40 0 -4 4 -2 8 4 4 7 43 39 87 72 44 33 109 85 145 115 53 46 66 53 73 41 5 -9 7 -29 3 -44z m-1753 -17 c-90 -75 -103 -84 -103 -71 0 8 23 40 52 72 48 54 53 57 65 40 12 -16 10 -21 -14 -41z m382 -26 c0 -96 -17 -122 -101 -152 -117 -42 -117 -51 1 97 8 9 28 44 46 78 18 33 38 59 44 57 6 -2 10 -36 10 -80z m-1349 36 c22 -21 58 -54 81 -74 24 -20 39 -39 35 -43 -4 -4 0 -6 8 -4 8 2 14 -3 13 -9 -2 -7 3 -12 10 -10 6 1 11 -5 9 -13 -2 -8 0 -12 4 -8 14 15 119 -128 136 -187 4 -11 11 -35 17 -53 l10 -34 -45 42 c-29 26 -93 64 -172 102 -273 128 -258 117 -253 182 2 25 38 102 64 134 17 21 41 13 83 -25z m2953 -58 c26 -54 26 -58 4 -46 -48 26 -55 36 -44 64 6 15 12 27 15 27 2 0 13 -20 25 -45z m-3882 14 c118 -65 144 -83 172 -114 32 -36 51 -89 51 -141 0 -35 -13 -44 -63 -44 -18 0 -63 -9 -102 -20 -93 -26 -114 -25 -119 3 -21 107 -29 137 -46 165 -34 55 -27 86 35 159 14 17 29 16 72 -8z m2898 -64 c-24 -46 -46 -104 -49 -129 -6 -38 -15 -51 -63 -92 l-55 -48 7 34 c7 33 20 59 63 130 22 36 30 100 12 100 -5 0 -10 -5 -10 -11 0 -5 -12 -27 -26 -47 l-26 -37 6 40 c3 22 7 45 8 51 1 10 152 93 169 94 4 0 -13 -38 -36 -85z m-1735 12 c30 -9 83 -22 118 -28 97 -18 128 -58 101 -126 -28 -67 -52 -119 -65 -137 -12 -18 -15 -16 -34 30 -51 122 -104 192 -215 282 l-40 33 40 -19 c22 -10 65 -26 95 -35z m770 -14 l0 -67 -75 -74 c-61 -60 -78 -72 -90 -62 -20 17 -27 62 -15 96 10 27 156 174 173 174 4 0 7 -30 7 -67z m602 -114 c-11 -19 -45 -78 -76 -131 -51 -87 -57 -103 -57 -153 0 -31 5 -63 12 -71 9 -11 8 -14 -9 -14 -31 0 -62 76 -62 151 0 51 6 71 36 125 19 35 51 80 69 101 32 36 44 63 28 63 -11 0 -111 -108 -144 -156 -16 -23 -29 -51 -29 -60 0 -13 -3 -15 -11 -7 -8 8 -8 25 1 65 23 94 34 111 92 140 29 15 78 47 108 71 l55 44 3 -68 c2 -51 -2 -75 -16 -100z m1299 88 c43 -36 89 -117 89 -155 0 -53 -35 -106 -86 -130 -25 -12 -49 -22 -54 -22 -17 0 -11 36 10 55 45 41 49 120 10 206 -32 72 -20 91 31 46z m-1146 -123 c-10 -41 -21 -76 -25 -79 -4 -3 -12 8 -18 23 -25 64 -24 69 15 113 22 24 39 36 41 29 3 -7 -3 -46 -13 -86z m-2805 -65 c7 -43 10 -81 6 -87 -3 -5 -17 -12 -31 -14 -22 -5 -25 -2 -25 23 0 46 23 170 31 161 3 -4 12 -41 19 -83z m464 7 c28 -34 35 -47 21 -42 -11 5 -36 12 -55 15 -34 6 -35 8 -40 58 -5 50 -5 51 13 35 11 -9 38 -39 61 -66z m546 23 c8 -5 59 -29 113 -54 53 -25 97 -48 97 -50 0 -14 -52 -2 -83 19 -29 20 -37 22 -41 10 -4 -12 -22 -14 -78 -12 l-73 3 -6 47 c-4 25 -10 56 -14 69 l-7 22 38 -23 c22 -13 46 -27 54 -31z m1131 -32 c-67 -120 -80 -253 -32 -350 19 -39 23 -56 14 -53 -8 4 -19 6 -24 6 -5 0 -16 17 -26 38 -14 29 -17 67 -18 185 0 136 2 149 19 160 31 19 80 47 83 47 2 0 -6 -15 -16 -33z m600 -49 c15 -29 10 -56 -21 -121 -53 -108 -65 -115 -94 -55 -29 57 -22 91 42 202 l34 58 15 -33 c8 -19 19 -42 24 -51z m-1974 -20 c16 -14 51 -33 78 -41 l50 -14 3 -65 c4 -93 -7 -99 -97 -51 -39 20 -85 48 -102 63 l-32 26 21 41 c12 23 25 61 29 85 7 43 7 43 15 13 4 -17 20 -43 35 -57z m1553 57 c15 -14 18 -34 17 -136 l0 -119 -27 0 c-32 0 -84 15 -122 36 -16 8 -28 11 -28 5 0 -20 60 -58 118 -75 74 -20 88 -35 76 -79 -8 -26 -15 -33 -42 -35 -36 -4 -39 3 -16 36 8 12 14 32 12 45 -3 21 -6 19 -50 -21 -26 -24 -52 -41 -57 -37 -21 12 -59 91 -70 143 -8 39 -8 65 0 100 18 73 58 142 89 155 24 10 81 -1 100 -18z m629 -56 c-6 -13 -23 -37 -37 -54 -14 -16 -33 -48 -43 -69 l-17 -40 -7 36 c-10 51 0 74 53 124 47 46 75 47 51 3z m-2619 -104 c0 -92 -1 -95 -22 -95 -13 0 -39 -3 -59 -6 -53 -9 -69 12 -69 89 0 90 15 107 91 107 l59 0 0 -95z m122 76 c45 -20 119 -71 102 -71 -5 0 -2 -5 6 -10 13 -8 10 -14 -15 -39 -25 -24 -41 -30 -92 -34 -72 -6 -73 -5 -73 106 0 76 3 78 72 48z m-311 -58 l-3 -57 -19 25 c-46 57 -44 88 6 89 18 0 20 -5 16 -57z m949 7 c0 -47 -1 -50 -19 -40 -21 11 -61 58 -61 71 0 4 15 10 33 12 17 2 35 5 40 5 4 1 7 -21 7 -48z m163 13 l49 -15 -7 -82 c-5 -64 -3 -92 10 -131 33 -96 56 -120 282 -300 93 -74 136 -124 131 -154 -3 -19 -8 -17 -59 22 -32 23 -101 83 -155 133 -102 94 -166 149 -227 196 -23 18 -42 46 -56 82 -11 29 -36 85 -55 124 -24 47 -36 83 -36 111 l0 42 38 -6 c20 -4 59 -14 85 -22z m-1203 -37 c0 -6 18 -31 41 -58 l40 -48 -19 -42 c-11 -24 -27 -52 -35 -63 l-16 -20 -15 20 c-14 19 -48 85 -67 130 -4 11 -12 40 -16 65 -9 44 -8 45 22 56 26 9 32 7 47 -10 10 -12 18 -25 18 -30z m936 19 c9 -19 40 -56 68 -83 63 -57 122 -130 113 -138 -4 -4 -41 5 -84 20 -137 48 -133 45 -133 81 0 40 12 155 16 155 2 0 11 -16 20 -35z m1434 -37 c5 -18 12 -43 15 -55 6 -19 3 -23 -13 -23 -22 0 -32 18 -32 60 0 31 10 64 17 56 3 -2 9 -19 13 -38z m375 -25 c4 -27 11 -61 16 -77 10 -32 12 -99 3 -108 -3 -3 -30 18 -61 47 l-55 52 38 66 c21 37 42 67 46 67 4 0 10 -21 13 -47z m-1398 -81 c20 -31 36 -61 35 -65 -1 -5 1 -6 6 -3 4 2 23 -11 41 -29 29 -30 250 -174 269 -175 4 -1 16 -21 28 -45 11 -24 17 -42 12 -39 -5 4 -42 30 -81 60 -40 30 -90 62 -112 73 -48 22 -105 34 -105 22 0 -5 55 -46 123 -91 67 -45 131 -91 142 -100 26 -24 155 -90 175 -90 8 0 32 -5 53 -11 45 -12 75 -54 111 -152 l24 -67 -31 21 c-18 12 -62 51 -99 87 -37 36 -70 63 -74 59 -3 -3 5 -26 19 -51 20 -36 22 -44 9 -37 -19 10 -58 51 -49 51 3 0 -5 11 -18 25 -13 14 -31 41 -40 60 -9 19 -20 35 -25 35 -29 0 11 -113 58 -165 l27 -29 -40 29 c-46 32 -74 64 -75 83 0 7 -9 31 -20 55 -27 57 -90 122 -200 206 -156 120 -212 186 -225 268 -7 46 1 87 16 77 5 -3 26 -31 46 -62z m2372 26 c-7 -13 -46 -59 -86 -104 -83 -91 -192 -233 -193 -251 0 -6 -4 -14 -9 -17 -12 -8 26 132 46 169 8 17 27 42 41 58 30 32 12 37 -31 8 -70 -46 -114 -136 -136 -279 -13 -88 -38 -139 -98 -203 -61 -65 -110 -87 -271 -119 -209 -42 -264 -66 -349 -148 -44 -43 -79 -93 -119 -171 -40 -79 -26 0 18 98 31 69 86 137 211 259 l116 113 116 13 c87 10 129 21 173 42 64 31 152 115 152 145 0 14 -4 18 -12 13 -7 -5 7 11 32 35 27 26 40 45 33 48 -15 5 -185 -79 -233 -115 -19 -15 -39 -25 -45 -24 -5 2 -7 0 -3 -4 9 -8 -36 -64 -66 -81 -11 -7 -36 -12 -54 -13 l-34 0 27 32 c14 17 42 61 60 98 23 45 52 83 87 114 57 49 69 53 108 31 36 -20 80 -18 119 6 37 23 61 44 61 55 0 4 11 17 25 30 14 13 25 30 25 39 0 19 0 19 -39 -1 -18 -9 -63 -19 -100 -22 -36 -3 -86 -13 -110 -24 -54 -23 -63 -16 -28 20 51 53 172 115 267 136 42 10 231 33 278 35 31 1 32 0 21 -21z m-3308 -38 c14 0 19 -7 19 -27 0 -35 -16 -62 -28 -48 -49 56 -61 94 -25 81 8 -3 23 -6 34 -6z m319 -12 c63 -15 120 -34 152 -51 26 -13 23 -14 -72 -21 -104 -6 -184 -22 -261 -52 -63 -24 -79 -16 -79 40 0 53 16 93 39 99 26 7 172 -3 221 -15z m-422 -9 c7 -12 11 -23 8 -26 -6 -7 -62 14 -91 34 -18 12 -15 13 25 13 35 0 48 -5 58 -21z m-145 -11 c17 -12 56 -34 86 -50 l56 -27 -52 6 c-51 6 -130 -3 -120 -14 8 -8 150 -16 196 -11 34 4 50 -25 28 -50 -22 -24 -21 -32 3 -32 15 0 21 9 26 40 l7 41 23 -22 c13 -12 24 -25 24 -29 0 -4 -18 -26 -40 -49 -22 -23 -40 -48 -40 -56 0 -21 4 -19 43 20 43 43 87 47 141 10 20 -14 39 -25 42 -25 10 0 124 -81 124 -88 0 -4 -42 -13 -94 -20 -135 -18 -247 2 -383 70 -65 33 -82 58 -38 58 28 0 32 12 11 29 -10 8 -19 6 -39 -9 -34 -27 -37 -26 -37 18 l-1 37 -20 -27 c-18 -24 -24 -26 -42 -17 -12 6 -32 20 -44 31 -20 19 -21 22 -7 44 20 29 47 38 74 24 31 -16 39 -2 12 19 -24 17 -24 17 -5 59 10 23 22 42 26 42 5 0 23 -10 40 -22z m2344 -3 c35 -15 36 -16 18 -35 -10 -12 -38 -26 -62 -32 -24 -5 -43 -14 -43 -19 0 -15 21 -21 35 -9 22 18 19 -1 -7 -50 l-23 -42 -6 35 c-3 20 -11 43 -18 51 -9 11 -9 15 1 20 10 5 10 7 1 12 -13 6 -18 66 -6 77 11 12 73 7 110 -8z m1227 -57 c-14 -192 -14 -192 -127 -227 -39 -13 -82 -27 -95 -32 -40 -16 -44 -10 -21 29 56 94 192 250 212 244 7 -2 9 0 4 4 -6 6 19 44 29 44 1 0 0 -28 -2 -62z m-4011 -36 c-20 -13 -26 -60 -10 -85 12 -18 12 -24 1 -35 -34 -32 -51 7 -34 79 10 40 16 49 33 49 14 0 18 -3 10 -8z m2927 -3 c0 -5 5 -7 10 -4 14 9 12 -45 -3 -75 -8 -16 -21 -25 -36 -25 -36 0 -36 21 -1 28 17 4 33 14 37 23 7 20 -8 48 -29 52 -16 3 -81 -57 -100 -92 -6 -11 -13 -16 -15 -10 -7 20 43 98 68 105 38 11 69 10 69 -2z m-1680 -33 c25 -8 64 -22 88 -32 39 -18 42 -21 42 -59 0 -22 -5 -58 -11 -80 l-12 -40 -18 40 c-9 22 -18 49 -18 61 -1 20 -18 44 -33 44 -4 0 -8 -14 -8 -31 l0 -30 -82 41 c-46 23 -91 46 -101 52 -11 5 -21 7 -24 4 -10 -10 51 -57 111 -86 34 -16 79 -47 100 -69 l39 -40 -94 5 c-154 8 -174 12 -201 42 -34 36 -51 70 -44 88 10 25 -11 61 -39 68 -36 9 -40 3 -20 -28 9 -14 15 -32 13 -41 -2 -13 -11 -11 -53 11 -53 28 -86 54 -70 55 6 0 42 8 80 19 88 23 288 26 355 6z m2390 9 c0 -13 -77 -35 -102 -30 -32 7 -37 21 -10 28 24 6 112 8 112 2z m-457 -29 c-17 -24 -53 -42 -53 -27 0 14 26 39 45 44 11 3 21 5 23 6 2 0 -5 -10 -15 -23z m-534 -76 c21 0 4 -15 -44 -39 l-40 -20 37 -1 c20 0 40 5 43 10 9 15 35 12 35 -4 0 -16 -59 -56 -81 -56 -8 0 -29 14 -47 31 -32 28 -33 32 -22 60 8 18 20 29 32 29 10 0 21 7 24 15 5 12 9 11 27 -5 11 -11 28 -20 36 -20z m-2350 6 c33 -30 123 -77 230 -120 l85 -34 -55 -15 c-92 -25 -127 -28 -192 -16 -83 16 -127 59 -127 125 0 39 16 84 29 84 3 0 16 -11 30 -24z m1177 -49 c54 -57 88 -95 121 -138 11 -13 6 -14 -45 -8 -70 10 -100 18 -130 37 -20 13 -22 21 -20 93 2 43 6 79 9 79 3 0 32 -28 65 -63z m1423 38 c14 -15 -121 -141 -139 -130 -18 11 -11 51 13 73 13 12 27 19 30 15 4 -3 7 0 7 7 0 27 33 51 60 45 14 -4 27 -8 29 -10z m220 -22 c-45 -75 -102 -140 -143 -164 -18 -11 75 131 117 179 35 38 52 28 26 -15z m-724 21 c31 -12 85 -158 85 -228 0 -39 -2 -36 -36 49 -19 50 -44 111 -54 138 -10 26 -17 47 -15 47 2 0 11 -3 20 -6z m-216 -90 c51 -58 54 -78 9 -69 -63 14 -128 85 -128 141 0 24 73 -20 119 -72z m1347 -13 c-33 -34 -124 -86 -134 -76 -8 8 17 26 97 72 70 39 71 39 37 4z m-980 -36 c3 -12 0 -34 -7 -50 l-12 -30 -7 51 c-4 29 -11 57 -15 64 -5 8 0 7 14 -2 12 -7 24 -22 27 -33z m164 -23 c0 -42 -10 -46 -41 -16 -33 31 -29 44 12 44 25 0 29 -4 29 -28z m193 -31 c-7 -26 -62 -91 -78 -91 -25 0 -9 31 36 70 24 22 45 39 46 40 0 0 -1 -8 -4 -19z m-261 -24 l27 -22 -30 -47 c-39 -60 -79 -177 -80 -236 l-1 -47 -9 40 c-6 22 -14 55 -19 73 -9 36 4 114 36 210 19 58 34 64 76 29z m138 -108 c0 -6 -11 -25 -24 -42 -22 -30 -59 -122 -70 -177 -3 -14 -3 7 -1 47 4 70 17 108 57 166 18 25 38 29 38 6z m-574 -97 c5 -5 28 -14 51 -22 80 -25 135 -92 162 -195 18 -69 12 -72 -22 -12 -17 31 -41 67 -51 80 -40 47 -121 131 -126 130 -3 0 -14 6 -25 13 -11 8 -15 14 -9 14 5 0 14 -4 20 -8z m-1011 -23 c116 -10 181 -23 255 -50 l35 -13 -60 -13 c-83 -17 -201 -16 -254 3 -24 8 -64 27 -90 41 -25 14 -57 32 -71 40 -24 13 -23 14 20 9 25 -3 99 -11 165 -17z m2675 3 c0 -5 -19 -28 -43 -52 l-43 -43 -69 2 c-133 4 -149 20 -47 45 37 9 90 25 117 35 55 21 85 25 85 13z m-1929 -156 c41 -17 123 -76 116 -82 -3 -3 -35 13 -72 35 -37 23 -71 41 -75 41 -5 0 -12 5 -15 10 -9 14 7 12 46 -4z m1663 5 c21 -8 -111 -31 -177 -31 -58 0 -128 -20 -172 -50 -41 -28 -75 -40 -155 -58 l-45 -10 44 39 c49 44 125 83 197 103 52 14 276 20 308 7z m-2121 -58 c-13 -2 -33 -2 -45 0 -13 2 -3 4 22 4 25 0 35 -2 23 -4z m3496 -1482 c12 -8 10 -16 -13 -45 -30 -40 -40 -42 -130 -23 l-59 12 44 22 c74 37 133 50 158 34z m255 -79 c-87 -82 -186 -119 -289 -108 -136 14 -158 23 -136 50 10 12 31 15 85 14 70 -1 118 10 211 52 65 29 98 38 140 39 l40 0 -51 -47z m-5093 13 c19 -8 48 -24 64 -35 l30 -22 -39 7 c-21 3 -42 2 -45 -3 -3 -5 -22 -12 -43 -16 -35 -6 -38 -5 -67 39 l-30 45 48 0 c27 0 64 -7 82 -15z m-264 -47 c111 -48 148 -58 223 -58 72 0 120 -16 120 -40 0 -10 -59 -19 -173 -26 -86 -6 -103 -3 -182 32 -37 16 -111 79 -126 106 -11 20 -9 21 40 14 28 -4 72 -16 98 -28z m4903 -7 c0 -17 -26 -30 -48 -24 -22 5 -27 14 -15 26 10 10 63 8 63 -2z m-4482 -63 c5 -27 -49 -24 -66 3 -12 19 -11 20 25 17 27 -2 39 -8 41 -20z m5126 -56 c45 -22 92 -43 105 -49 26 -10 13 -14 -146 -44 -72 -14 -118 -35 -214 -103 -74 -51 -78 -53 -112 -43 -41 13 -41 14 30 102 27 33 59 64 71 70 23 10 30 25 12 25 -26 0 -71 -34 -120 -90 -63 -72 -87 -81 -132 -47 -48 35 -62 39 -178 47 -78 6 -119 14 -157 31 -29 13 -53 27 -53 30 0 3 30 15 68 28 37 12 86 32 109 44 38 19 46 20 105 9 144 -27 190 -25 313 11 28 8 88 15 134 16 79 1 90 -2 165 -37z m-5504 -43 c76 -21 103 -21 297 -3 55 5 69 2 126 -25 36 -17 71 -31 78 -31 8 -1 24 -6 37 -13 23 -13 23 -14 -20 -34 -81 -39 -99 -43 -184 -43 -65 0 -94 -5 -129 -21 -25 -12 -45 -25 -45 -30 0 -5 -13 -9 -29 -9 -22 0 -41 13 -81 57 -65 71 -87 88 -125 97 -30 6 -29 6 12 -29 24 -20 63 -63 87 -95 48 -63 46 -70 -17 -70 -22 0 -49 13 -87 42 -78 59 -160 93 -272 113 -54 10 -98 20 -98 24 1 6 99 56 155 78 51 20 211 16 295 -8z m4488 -67 c-7 -9 -30 -41 -51 -70 -22 -28 -42 -52 -45 -53 -4 0 -50 -2 -102 -3 -52 -2 -133 -8 -180 -14 -92 -13 -210 -14 -250 -3 -22 6 -21 8 20 23 188 70 327 105 445 112 81 5 140 14 173 25 2 1 -3 -7 -10 -17z m109 -12 c57 -27 124 -50 153 -51 18 0 12 -4 -20 -14 -25 -7 -72 -23 -105 -35 -57 -22 -165 -39 -165 -26 0 6 91 146 95 146 0 0 19 -9 42 -20z m-3787 -45 c171 -17 399 -74 499 -125 l34 -17 -79 -7 c-45 -3 -116 -1 -164 5 -47 7 -140 15 -207 18 l-123 6 -45 60 c-25 33 -45 64 -45 69 0 5 17 6 38 2 20 -3 62 -8 92 -11z m-163 -32 c37 -47 64 -98 56 -107 -13 -12 -72 -5 -110 13 -21 11 -66 27 -101 37 -34 10 -59 21 -55 25 5 3 33 15 63 25 30 10 66 24 80 31 34 17 33 18 67 -24z m4855 -39 l33 -7 -35 -9 c-83 -22 -172 -31 -222 -22 l-53 9 60 45 c33 25 66 48 74 51 8 3 36 -9 62 -27 27 -18 63 -36 81 -40z m-2149 -33 c38 -5 87 -19 110 -31 64 -34 168 -113 163 -125 -3 -5 -12 -35 -22 -66 l-17 -55 -51 24 c-28 13 -58 28 -66 32 -8 4 -58 17 -110 30 -52 12 -101 24 -108 26 -7 2 -17 16 -23 31 -16 45 -59 126 -85 160 -13 17 -24 34 -24 36 0 3 37 -8 83 -24 45 -16 113 -33 150 -38z m-3467 -4 c49 -36 53 -42 37 -51 -28 -17 -142 -12 -206 8 l-59 18 45 22 c24 13 55 30 68 39 29 21 47 16 115 -36z m2155 3 c-13 -11 -20 -20 -16 -20 3 0 -2 -12 -13 -27 -11 -16 -36 -61 -56 -100 -29 -58 -41 -74 -64 -78 -15 -3 -45 -11 -67 -17 -22 -5 -49 -12 -62 -14 -12 -2 -58 -19 -102 -38 l-81 -34 -6 26 c-3 15 -12 41 -20 59 -19 43 -19 44 29 78 114 81 137 92 225 109 48 9 124 30 167 45 97 35 95 35 66 11z m732 -52 c40 -98 45 -201 17 -333 -36 -169 -17 -287 81 -491 44 -91 46 -100 22 -134 -10 -13 -28 -45 -40 -70 l-22 -45 0 57 c-1 31 -6 70 -12 85 -33 79 -65 139 -97 181 -30 39 -38 61 -49 127 -19 124 -16 230 8 315 30 108 49 200 49 241 0 49 11 99 21 99 5 0 15 -15 22 -32z m1707 -4 c77 -18 131 -35 145 -46 5 -4 15 -8 23 -8 8 0 51 -17 95 -39 45 -21 90 -41 100 -44 26 -9 21 -20 -22 -55 -41 -33 -60 -39 -77 -22 -5 5 -36 16 -69 24 -43 10 -52 15 -30 15 23 1 27 4 15 11 -8 5 -27 10 -41 10 -15 0 -32 7 -39 15 -19 23 -100 65 -127 65 -14 0 -21 4 -18 10 4 6 -19 10 -62 11 -70 0 -277 26 -233 28 14 1 59 10 100 20 94 24 157 25 240 5z m-2031 -179 c6 -33 15 -77 20 -97 7 -32 6 -38 -7 -38 -12 0 -11 -5 6 -23 37 -39 44 -81 31 -186 -6 -51 -8 -119 -4 -150 6 -54 5 -58 -36 -111 -77 -102 -136 -247 -122 -300 3 -11 1 -20 -3 -20 -10 1 -75 129 -74 146 0 6 15 41 34 77 75 147 98 231 99 357 0 52 -5 112 -12 133 -8 22 -13 87 -13 155 0 107 2 122 28 177 l27 60 8 -60 c4 -33 12 -87 18 -120z m1450 149 c79 -6 87 -9 110 -38 34 -41 191 -206 191 -200 0 3 28 -14 61 -37 34 -23 101 -62 148 -86 47 -24 92 -52 99 -61 7 -9 15 -16 18 -14 12 8 65 -35 84 -70 40 -70 18 -69 -60 4 -91 86 -130 104 -248 118 -110 12 -208 34 -228 50 -8 7 -14 23 -14 36 0 13 -6 24 -13 24 -7 0 -35 30 -62 66 -28 36 -88 102 -135 147 -62 59 -78 79 -60 74 14 -3 63 -9 109 -13z m-3009 -25 c163 -24 167 -25 140 -31 -45 -11 -195 -28 -241 -28 -71 0 -133 -27 -210 -91 -27 -22 -57 -39 -72 -39 -13 0 -41 -7 -62 -16 -47 -19 -72 -13 -109 25 l-29 31 94 43 c184 86 251 105 394 115 11 1 54 -4 95 -9z m422 -96 c-49 -49 -108 -114 -132 -145 -25 -35 -50 -58 -61 -58 -20 0 -26 -16 -9 -22 6 -2 -2 -18 -17 -36 -27 -32 -32 -34 -128 -43 -163 -15 -204 -25 -257 -61 -16 -11 -28 -18 -28 -16 0 2 -32 -27 -71 -65 -38 -38 -72 -67 -75 -64 -3 3 5 26 17 51 26 56 81 105 158 141 188 90 245 130 369 259 51 53 92 101 92 105 0 5 39 14 88 21 48 6 94 13 102 15 8 1 21 3 28 4 7 0 -27 -38 -76 -86z m1788 -138 c71 -139 101 -213 132 -325 9 -33 26 -170 21 -170 -1 0 -30 42 -64 93 -90 133 -137 185 -197 220 -65 36 -80 63 -64 114 19 60 30 122 38 206 l7 78 35 -53 c20 -29 61 -102 92 -163z m2268 200 c59 -21 142 -64 142 -73 0 -5 -15 -23 -34 -41 -32 -31 -39 -33 -121 -37 -102 -5 -149 9 -357 99 -35 15 -36 27 -1 27 15 0 40 4 57 9 79 25 107 29 186 30 52 0 102 -5 128 -14z m-1530 -143 c33 -37 60 -71 61 -77 1 -5 -21 -18 -50 -28 -47 -16 -53 -17 -69 -2 -10 9 -20 26 -23 38 -12 53 -47 160 -61 187 -14 29 -13 29 34 -11 27 -22 75 -71 108 -107z m599 113 c21 -5 46 -59 36 -77 -2 -4 -36 -17 -75 -28 -39 -12 -76 -23 -82 -26 -11 -4 -51 31 -120 103 l-38 41 128 -4 c71 -3 139 -7 151 -9z m-4320 -38 l93 -24 -98 -40 c-119 -50 -158 -63 -188 -63 -13 0 -24 -5 -24 -11 0 -7 -14 -9 -42 -5 -24 4 -65 8 -91 9 -42 2 -53 7 -78 37 -35 42 -35 47 -6 55 12 4 42 19 67 34 79 46 208 49 367 8z m1359 -5 c-8 -15 -26 -68 -40 -116 -14 -49 -32 -99 -41 -112 l-15 -23 -57 21 c-32 11 -60 21 -62 23 -3 4 219 235 226 235 2 0 -3 -13 -11 -28z m735 -107 c6 -38 17 -93 25 -122 20 -68 11 -97 -34 -119 -58 -27 -130 -102 -203 -211 -38 -56 -72 -104 -77 -107 -12 -7 3 98 27 189 49 180 102 298 193 431 l53 77 2 -34 c2 -19 8 -65 14 -104z m1522 -65 c6 -8 -15 10 -46 40 -61 58 -62 61 -36 127 11 27 12 24 41 -62 16 -49 35 -97 41 -105z m-2733 172 c0 -16 -123 -142 -138 -142 -10 0 -42 9 -72 20 -30 11 -63 20 -72 20 -14 0 -18 8 -18 34 0 18 6 38 13 44 7 6 64 15 127 20 161 13 160 13 160 4z m3973 -31 c40 -15 92 -34 117 -41 25 -7 55 -16 68 -21 13 -5 32 -9 44 -9 12 0 18 -3 14 -7 -13 -13 -100 -32 -150 -33 -57 0 -226 49 -226 65 0 7 9 20 20 30 11 10 20 24 20 32 0 19 12 17 93 -16z m-3445 -61 c12 -35 11 -36 -45 -95 -31 -33 -54 -55 -52 -50 21 39 49 107 49 117 0 22 24 78 30 70 3 -4 11 -23 18 -42z m1847 40 c127 -32 184 -54 190 -73 2 -7 5 -56 8 -109 l4 -98 -43 -21 c-24 -11 -48 -17 -55 -14 -11 7 -61 82 -98 148 -12 20 -31 54 -42 75 -12 20 -30 49 -40 64 -11 14 -19 29 -19 32 0 9 51 7 95 -4z m-3080 -29 c3 -10 14 -26 25 -36 20 -18 19 -19 -47 -43 -55 -20 -88 -24 -173 -25 -60 -1 -113 4 -124 10 -17 9 -10 14 55 33 80 23 175 56 199 70 26 15 58 11 65 -9z m4378 -40 c29 -22 66 -52 82 -68 l30 -28 -35 -3 c-37 -4 -165 15 -190 27 -15 8 -26 72 -16 97 11 29 74 16 129 -25z m-2793 8 c0 -6 -8 -23 -18 -37 -11 -15 -44 -72 -75 -128 -72 -127 -89 -146 -125 -137 -15 3 -38 13 -50 21 -22 14 -23 19 -16 71 4 31 7 77 6 103 -2 44 -1 48 30 62 100 44 248 72 248 45z m2932 -16 c38 -14 66 -28 64 -30 -9 -9 -114 20 -137 38 -35 27 -7 24 73 -8z m-318 -16 c13 -35 4 -41 -37 -26 -38 13 -43 38 -11 50 28 11 38 6 48 -24z m-3888 3 c26 0 30 -18 18 -78 -6 -30 -7 -30 -109 -46 -142 -22 -140 -22 -113 14 12 17 40 41 63 54 22 13 51 34 64 45 14 12 31 19 39 16 7 -3 25 -5 38 -5z m3076 -69 c35 -33 60 -62 57 -65 -5 -5 -112 -36 -124 -36 -3 0 -5 36 -5 80 0 44 2 80 5 80 3 0 33 -27 67 -59z m-3242 44 c0 -13 -155 -63 -166 -53 -2 3 17 13 43 22 27 10 57 21 68 26 22 9 55 13 55 5z m299 -14 c32 -17 33 -19 15 -28 -10 -6 -34 -13 -53 -17 -27 -5 -32 -3 -27 10 3 9 6 24 6 35 0 23 15 24 59 0z m3229 -41 c18 -22 30 -45 27 -50 -15 -25 -165 1 -165 29 0 10 77 58 95 60 6 0 25 -17 43 -39z m-2412 -147 c-3 -3 -13 -2 -23 3 -10 4 -40 15 -68 24 l-50 16 30 17 c17 9 26 16 20 17 -5 0 13 20 40 45 l50 45 3 -81 c2 -45 1 -84 -2 -86z m-1198 115 c-3 -9 -31 -14 -78 -16 -88 -4 -86 8 2 18 35 4 67 8 71 9 5 0 7 -5 5 -11z m941 -10 c20 -12 38 -23 41 -25 3 -3 -6 -13 -20 -23 -19 -15 -42 -20 -93 -20 -64 0 -67 1 -55 19 7 11 16 17 22 14 5 -3 6 -2 3 4 -8 13 29 53 50 53 8 0 32 -10 52 -22z m3445 -24 c65 -14 91 -34 101 -76 l7 -28 -68 0 c-38 1 -79 6 -92 13 -18 11 -102 102 -102 112 0 5 96 -8 154 -21z m396 -23 c30 -12 64 -21 74 -21 27 0 10 -13 -38 -29 -58 -20 -109 -17 -144 8 -17 11 -32 21 -35 21 -3 0 -25 12 -48 26 l-44 25 90 -4 c56 -4 111 -13 145 -26z m-753 -13 c6 -5 15 -35 18 -66 4 -31 13 -77 21 -101 17 -55 18 -51 -8 -51 -34 0 -140 40 -173 65 -25 19 -105 149 -105 171 0 10 233 -6 247 -18z m-3807 6 c0 -14 -94 -110 -118 -121 -15 -7 -53 -12 -84 -13 -51 0 -58 2 -58 20 0 35 23 70 49 76 14 3 33 8 41 11 15 6 134 30 158 32 6 0 12 -2 12 -5z m2855 -104 c54 -37 121 -67 225 -100 41 -13 93 -34 115 -46 44 -24 148 -139 142 -157 -2 -7 -16 -13 -30 -15 -21 -3 -37 7 -70 40 -96 99 -199 148 -395 189 -36 8 -67 20 -72 29 -4 8 -9 49 -11 91 l-4 75 27 -37 c15 -20 47 -51 73 -69z m640 49 l37 -61 -20 -20 -20 -20 -43 20 c-24 12 -69 45 -99 74 -31 29 -48 47 -38 39 16 -12 18 -12 18 2 0 12 12 17 48 20 26 2 54 4 63 5 10 1 31 -21 54 -59z m-3805 37 c0 -2 -26 -16 -57 -32 -32 -15 -75 -39 -96 -52 -36 -24 -38 -24 -80 -9 -23 9 -60 19 -82 23 l-40 8 30 7 c17 4 68 19 115 33 72 21 210 36 210 22z m3490 -25 c0 -16 -5 -42 -10 -57 -6 -15 -8 -29 -6 -32 12 -11 34 21 45 65 l12 46 37 -35 c65 -62 91 -82 148 -114 l55 -31 -32 -27 c-30 -26 -36 -27 -98 -20 -69 7 -92 15 -123 43 -9 9 -60 32 -112 51 -52 18 -94 36 -93 39 20 47 33 60 71 71 22 8 45 17 51 22 5 4 19 8 32 8 19 0 23 -5 23 -29z m1362 -98 c15 -8 30 -18 32 -22 8 -13 -138 -44 -184 -38 -214 23 -259 36 -260 72 0 17 126 24 194 10 31 -6 38 -5 34 6 -2 7 -15 16 -29 19 -19 5 -25 13 -27 43 l-3 38 108 -57 c59 -32 120 -64 135 -71z m-4092 101 c0 -3 -19 -41 -42 -85 -40 -75 -47 -81 -103 -108 -66 -32 -142 -57 -150 -50 -2 3 2 29 10 59 8 30 15 71 15 90 0 19 6 46 13 60 11 23 20 25 97 31 138 9 160 9 160 3z m798 -102 c-10 -81 -14 -93 -32 -96 -198 -37 -330 -94 -427 -182 -71 -66 -76 -68 -103 -58 -24 9 -20 22 23 78 53 70 99 100 229 145 159 56 216 86 267 143 25 28 45 55 45 61 0 6 2 8 5 6 2 -3 -1 -47 -7 -97z m2683 62 c18 -19 55 -52 82 -72 26 -20 47 -39 47 -42 0 -3 -32 -16 -71 -30 -60 -20 -72 -21 -79 -9 -23 36 -40 189 -22 189 4 0 24 -16 43 -36z m-3257 6 c6 -6 15 -6 25 1 9 6 -11 -14 -43 -45 -57 -54 -106 -86 -131 -86 -7 0 -20 9 -29 19 -17 19 -17 22 13 65 17 24 31 50 31 57 0 14 118 5 134 -11z m4084 -15 c12 -19 27 -35 32 -35 6 0 10 -4 10 -10 0 -19 -135 -11 -186 10 -26 11 -44 23 -41 26 12 12 104 42 132 43 24 1 35 -7 53 -34z m-3820 -8 c24 -11 49 -32 57 -47 14 -28 14 -28 -33 -45 -97 -35 -140 -54 -177 -81 -42 -30 -146 -46 -183 -27 -26 14 -42 31 -42 45 0 5 21 18 47 30 26 12 77 50 113 85 37 34 70 60 74 56 3 -3 6 -17 6 -29 0 -29 20 -74 33 -74 10 0 5 52 -9 98 -6 22 -5 23 32 16 22 -4 58 -16 82 -27z m1485 11 c11 -6 16 -16 13 -25 -3 -8 -6 -48 -6 -89 l0 -75 -23 18 c-14 10 -29 37 -36 63 -27 100 -31 118 -31 124 0 9 57 -2 83 -16z m-2703 2 c0 -22 -24 -59 -46 -69 -31 -14 -33 -36 -1 -25 12 4 64 9 114 9 l92 1 -6 -25 c-3 -14 -7 -29 -9 -32 -5 -10 -182 -24 -279 -23 -54 1 -103 8 -123 16 l-34 15 49 26 c26 14 86 46 133 71 86 46 110 54 110 36z m405 -82 c-4 -40 -11 -86 -17 -101 -10 -26 -14 -28 -52 -21 -22 3 -47 10 -56 15 -8 4 -23 10 -32 13 -24 7 -23 23 2 36 11 6 50 37 87 70 37 33 69 60 71 60 2 0 0 -33 -3 -72z m-763 41 c37 -12 68 -25 68 -29 0 -28 -189 -68 -213 -44 -6 6 62 94 72 94 3 0 36 -10 73 -21z m2297 -39 c-6 -25 -13 -58 -16 -75 -6 -33 -39 -85 -54 -85 -5 0 -9 40 -9 88 0 82 2 89 23 100 18 9 58 20 64 18 1 -1 -3 -21 -8 -46z m885 -43 c25 -34 54 -71 65 -81 11 -10 18 -23 14 -29 -3 -5 -2 -7 4 -4 14 9 62 -44 73 -82 5 -19 5 -54 0 -85 -10 -60 -29 -136 -34 -136 -2 0 -12 26 -21 58 -38 127 -56 162 -111 210 l-54 47 0 76 c0 65 4 89 16 89 2 0 23 -28 48 -63z m2161 -26 c39 -27 69 -54 67 -60 -1 -7 2 -10 7 -7 5 4 19 -7 31 -24 l21 -30 -35 0 c-19 0 -61 7 -93 16 -32 9 -69 18 -83 21 -15 3 -33 17 -42 34 -10 16 -29 34 -43 39 -37 14 -31 27 23 43 69 22 71 21 147 -32z m-3176 -67 c1 -65 -1 -72 -24 -84 -14 -7 -25 -17 -25 -22 0 -5 -3 -7 -7 -5 -7 5 -36 -19 -32 -25 2 -2 -10 -22 -24 -46 -15 -23 -34 -66 -41 -95 -34 -125 -38 -130 -52 -52 -7 39 -15 87 -19 107 -10 50 23 118 76 157 22 16 41 33 41 38 1 4 22 36 47 70 53 72 59 68 60 -43z m2025 3 l-7 -66 -40 -6 c-22 -4 -55 -14 -73 -21 -18 -8 -36 -14 -39 -14 -12 0 -4 32 19 72 18 32 34 47 65 58 23 9 49 23 58 33 9 9 18 15 20 13 2 -2 1 -33 -3 -69z m575 39 c-3 -3 -22 -3 -43 1 l-38 6 28 12 c24 10 32 10 43 -1 8 -7 13 -16 10 -18z m391 -13 l41 -26 -70 -18 c-39 -10 -80 -23 -91 -29 -28 -15 -123 33 -159 80 l-26 33 45 -7 c25 -3 58 -2 74 2 47 13 141 -4 186 -35z m-847 -69 c4 -7 -7 -27 -23 -45 -16 -19 -30 -37 -30 -41 0 -5 -7 -8 -15 -8 -18 0 -20 36 -2 43 9 4 9 7 0 14 -9 6 -11 28 -6 75 l6 66 32 -46 c17 -26 34 -52 38 -58z m-4203 76 c30 -10 45 -19 34 -19 -12 -1 -36 -17 -54 -37 -19 -22 -52 -44 -83 -55 -62 -23 -177 -37 -177 -21 0 14 69 79 128 119 55 37 77 39 152 13z m4325 -25 c29 -8 59 -24 72 -39 26 -30 33 -32 33 -10 0 42 74 -88 85 -150 l7 -37 -51 31 c-28 18 -58 41 -66 53 -8 12 -15 17 -15 12 0 -5 -21 11 -46 35 -33 33 -44 51 -41 68 3 16 -1 22 -13 22 -9 0 -25 10 -36 22 -19 21 -19 21 1 14 11 -4 42 -14 70 -21z m-3285 -30 c19 -10 42 -21 50 -25 18 -9 46 -55 55 -92 l7 -27 -56 19 c-30 11 -67 20 -81 20 -24 0 -25 3 -25 59 0 33 -3 68 -6 78 -6 16 -5 17 7 2 8 -9 30 -24 49 -34z m2486 9 c79 -26 131 -54 189 -105 33 -29 34 -33 18 -44 -10 -6 -39 -18 -65 -25 -53 -14 -65 -11 -174 42 -82 40 -184 123 -184 150 0 20 3 20 71 14 39 -4 104 -18 145 -32z m-3216 9 c0 -18 -70 -71 -116 -89 -38 -15 -45 -15 -75 0 -19 9 -59 19 -89 23 l-55 8 32 23 c18 13 49 29 70 36 48 17 233 17 233 -1z m156 2 c18 -14 18 -14 -4 -15 -13 0 -32 -5 -43 -10 -22 -12 -27 8 -7 28 16 16 30 15 54 -3z m3438 -17 c-9 -18 -18 -34 -19 -36 -1 -1 -14 13 -29 33 l-27 35 46 0 46 0 -17 -32z m-2958 -82 c2 -53 0 -96 -5 -96 -5 0 -25 20 -45 45 l-37 45 38 54 c21 30 39 53 41 51 2 -2 6 -47 8 -99z m1744 -11 c41 -87 57 -197 42 -287 -7 -39 -15 -75 -18 -80 -11 -17 -39 55 -68 172 -44 182 -47 201 -40 250 l7 51 24 -23 c13 -12 37 -50 53 -83z m-1872 75 c-7 -11 -23 -20 -35 -20 -24 0 -31 -14 -12 -26 16 -9 -94 -118 -162 -160 -31 -19 -59 -34 -62 -34 -16 0 46 142 83 190 l19 25 -6 -25 -6 -25 30 28 c16 15 38 27 49 28 10 0 39 8 64 19 25 10 46 18 48 19 1 1 -3 -8 -10 -19z m4026 -42 c-6 -10 -29 3 -69 38 l-30 26 52 -28 c28 -16 49 -32 47 -36z m-3074 34 c0 -14 -66 -73 -73 -66 -4 4 -7 1 -7 -7 -1 -26 -112 -92 -200 -120 -47 -14 -60 -15 -90 -4 -19 7 -48 16 -65 20 l-30 7 50 44 c67 60 143 96 260 123 51 11 155 14 155 3z m-546 -14 c-4 -7 -14 -21 -22 -30 -14 -17 -16 -17 -28 0 -23 29 -16 42 22 42 25 0 33 -4 28 -12z m1245 -89 c-8 -48 -31 -116 -74 -214 -7 -16 -21 -49 -31 -73 -25 -59 -33 -33 -27 83 6 121 22 166 87 254 39 51 41 52 47 29 3 -14 3 -49 -2 -79z m2614 36 l37 -54 -38 -7 c-78 -16 -137 -10 -170 16 -39 31 -40 40 -3 40 19 0 35 -8 45 -22 14 -19 16 -20 22 -4 4 10 2 22 -5 29 -18 18 -13 26 22 41 48 22 51 20 90 -39z m-4803 5 c-19 -16 -44 -29 -54 -30 -24 0 -18 6 36 35 57 32 59 31 18 -5z m2780 -39 c0 -40 -2 -39 -23 17 -17 41 -17 42 3 30 14 -9 20 -24 20 -47z m1198 37 c21 -23 49 -114 39 -125 -4 -3 -38 4 -77 17 -65 21 -83 33 -61 42 4 2 20 22 35 46 14 23 30 42 34 42 5 0 18 -10 30 -22z m-2150 -19 c-6 -16 -12 -28 -15 -26 -7 7 8 57 18 57 4 0 3 -14 -3 -31z m1980 -7 c2 -18 2 -32 0 -32 -2 0 -30 9 -63 19 -61 19 -60 22 5 40 48 13 55 9 58 -27z m-4003 6 c17 -8 24 -17 20 -27 -7 -18 -8 -21 -6 -40 1 -9 10 -5 27 12 22 22 30 25 46 16 20 -11 20 -12 -6 -38 -25 -25 -31 -26 -117 -24 -50 1 -93 4 -96 6 -2 3 10 28 27 56 34 55 54 62 105 39z m786 -47 c9 -18 25 -41 34 -51 18 -20 15 -23 -35 -38 -19 -6 -50 -15 -68 -21 l-33 -10 6 37 c11 62 47 126 68 119 6 -2 18 -18 28 -36z m1161 -7 c-15 -40 -18 -43 -26 -24 -7 16 -4 26 14 45 13 14 25 25 26 25 2 0 -5 -20 -14 -46z m983 -1 c9 -21 14 -51 13 -68 -3 -28 -4 -27 -15 15 -6 25 -15 55 -18 68 -12 36 3 25 20 -15z m-1946 14 l32 -14 -58 -21 c-64 -24 -80 -18 -62 21 14 31 39 34 88 14z m996 -82 c-18 -54 -24 -63 -24 -40 -1 24 38 119 46 112 1 -1 -9 -34 -22 -72z m1975 45 c29 -7 37 -37 17 -64 -14 -19 -17 -19 -69 -4 -62 18 -119 65 -96 79 13 9 98 3 148 -11z m-911 -53 c10 -34 29 -81 41 -104 14 -28 20 -55 18 -83 l-3 -41 -63 46 c-49 36 -62 50 -56 63 4 9 10 49 13 87 5 62 14 95 26 95 2 0 13 -28 24 -63z m370 0 c69 -33 234 -138 245 -156 15 -23 -5 -29 -57 -16 -28 7 -91 18 -139 25 l-87 12 -28 46 c-35 60 -73 135 -73 144 0 8 37 -6 139 -55z m-549 -106 c0 -3 -5 0 -12 7 -7 7 -20 12 -30 12 -21 0 -68 21 -68 30 0 4 14 28 32 54 l31 48 24 -73 c13 -41 23 -76 23 -78z m860 129 c-11 -21 -36 -26 -59 -11 -10 6 -6 11 15 19 47 17 56 15 44 -8z m343 -46 c25 -41 33 -64 23 -64 -17 0 -78 34 -83 45 -8 22 5 65 20 65 6 0 24 -21 40 -46z m-2973 17 c-14 -28 -46 -48 -103 -67 -53 -18 -62 -14 -71 31 -6 28 -4 32 26 41 18 6 61 12 96 13 59 1 62 0 52 -18z m508 -44 c-14 -23 -35 -60 -47 -82 -35 -61 -40 -65 -87 -65 -24 0 -85 -10 -134 -22 -50 -12 -93 -18 -97 -15 -10 10 26 46 87 85 30 19 78 50 107 68 28 18 74 40 101 49 28 10 59 23 69 30 27 20 28 0 1 -48z m302 -34 c5 -43 11 -85 14 -93 8 -20 -115 -104 -126 -87 -10 16 0 65 21 102 9 17 27 63 41 103 15 45 27 69 33 63 5 -5 13 -45 17 -88z m-660 45 c0 -5 -16 -8 -35 -8 -27 0 -35 4 -35 19 0 16 4 17 35 7 19 -6 35 -14 35 -18z m2930 15 c42 -7 50 -17 50 -62 0 -32 -1 -33 -31 -27 -17 3 -38 6 -45 6 -8 0 -14 5 -14 10 0 6 -9 29 -20 52 l-19 40 22 -6 c12 -4 38 -10 57 -13z m-2060 -37 c16 -25 30 -47 30 -50 0 -6 -88 -46 -101 -46 -4 0 1 30 12 67 10 38 19 69 19 70 0 11 13 -3 40 -41z m-1222 1 c15 -43 15 -44 -5 -50 -10 -4 -35 -13 -55 -20 l-37 -14 16 31 c22 42 53 86 62 86 4 0 12 -15 19 -33z m3542 5 c66 -35 73 -59 16 -54 -40 4 -140 44 -150 61 -4 5 0 12 6 14 31 13 78 5 128 -21z m-720 -31 c74 -37 123 -68 249 -155 l64 -45 -38 -15 c-21 -9 -55 -16 -77 -16 -35 0 -49 8 -109 61 -38 34 -69 68 -69 77 0 9 -28 43 -62 74 -33 32 -55 58 -47 58 8 0 48 -18 89 -39z m-2925 -1 c-8 -16 -15 -36 -15 -44 0 -18 -22 -31 -67 -41 l-33 -7 0 45 c0 42 2 45 33 53 17 4 43 11 57 15 40 11 41 10 25 -21z m2455 -23 c0 -12 71 -113 134 -192 64 -80 67 -97 35 -196 -42 -133 -51 -150 -66 -137 -17 13 -36 58 -65 148 -26 82 -57 150 -80 174 -19 21 -20 24 -23 68 l-2 27 28 -20 c16 -11 35 -30 44 -42 l15 -21 0 24 c-1 28 -25 61 -58 79 -25 13 -27 32 -10 96 l12 46 18 -23 c10 -13 18 -27 18 -31z m615 21 c47 -31 45 -45 -2 -17 -48 28 -60 39 -45 39 7 0 28 -10 47 -22z m-3284 2 c43 0 28 -17 -45 -51 -64 -30 -131 -39 -124 -16 6 18 110 78 126 72 8 -3 27 -5 43 -5z m4249 -9 l45 -6 6 -70 c3 -39 4 -72 2 -74 -2 -2 -11 3 -20 11 -29 26 -113 71 -188 103 -133 55 -133 56 -5 49 63 -4 135 -10 160 -13z m-3555 -24 c-58 -46 -105 -99 -112 -125 -7 -28 -139 -132 -167 -132 -24 0 -116 31 -115 39 0 10 275 183 325 205 27 12 60 27 74 33 39 18 38 15 -5 -20z m1221 -124 c5 -46 4 -63 -5 -63 -7 0 -10 -4 -7 -8 8 -13 -50 -65 -63 -58 -20 13 -8 131 22 216 3 8 8 29 12 45 7 29 8 29 21 -20 7 -27 16 -78 20 -112z m1529 132 c27 -13 86 -34 132 -46 80 -21 108 -39 60 -39 -56 0 -247 75 -247 98 0 16 -1 16 55 -13z m-2905 1 c0 -2 -24 -18 -52 -36 l-53 -31 37 36 c32 29 68 46 68 31z m1709 -10 c43 -23 49 -35 65 -139 14 -82 14 -113 4 -188 -6 -49 -14 -89 -17 -89 -12 0 -92 117 -122 177 -35 69 -56 201 -38 234 12 23 67 26 108 5z m-1125 -13 c2 -10 7 -37 11 -59 6 -38 4 -43 -24 -64 -30 -21 -70 -80 -54 -80 5 1 24 14 43 30 19 17 38 30 42 30 16 0 7 -61 -12 -80 -27 -27 -53 -81 -83 -171 -27 -81 -67 -169 -77 -169 -15 0 -69 153 -76 216 -6 44 -3 55 15 73 11 11 18 21 15 21 -3 0 12 21 33 48 50 61 103 137 128 185 22 41 31 46 39 20z m-1358 -2 c-3 -4 -27 -16 -53 -26 -92 -35 -178 -77 -226 -112 l-49 -34 7 43 c15 96 18 110 29 114 6 2 67 8 136 12 69 5 133 10 143 11 10 0 16 -3 13 -8z m3719 -68 c22 -7 58 -15 80 -19 l40 -6 -50 -14 c-49 -12 -51 -12 -100 17 -27 17 -66 44 -85 60 l-35 30 55 -28 c30 -16 73 -34 95 -40z m1018 -61 c18 -13 42 -28 55 -33 12 -5 25 -17 29 -26 3 -10 18 -36 32 -58 25 -37 54 -105 48 -111 -3 -3 -46 16 -132 58 -70 33 -140 90 -160 127 -7 14 -16 60 -20 101 l-7 74 62 -54 c34 -30 76 -65 93 -78z m-4143 108 c0 -18 -90 -55 -209 -86 -58 -15 -67 -14 -58 11 4 10 19 15 43 15 44 0 92 14 154 45 50 25 70 30 70 15z m3763 -32 c64 -25 78 -35 83 -57 19 -82 62 -178 97 -213 30 -30 75 -105 82 -136 8 -38 29 -38 33 0 2 18 -15 53 -61 120 -69 103 -76 116 -87 170 l-7 36 27 -20 c26 -19 33 -29 62 -95 7 -16 29 -53 48 -83 20 -30 41 -68 48 -85 17 -45 26 -125 14 -125 -32 0 -85 37 -140 99 -38 43 -71 71 -83 71 -56 0 -135 68 -177 153 -19 37 -72 188 -72 203 0 10 49 -4 133 -38z m-4094 1 c-19 -12 -56 -11 -64 1 -4 6 6 10 24 10 16 0 33 5 37 12 6 9 9 9 12 -1 2 -7 -2 -17 -9 -22z m1581 6 c16 -19 8 -99 -18 -178 -21 -61 -67 -142 -112 -196 l-29 -34 -11 27 c-25 67 -4 336 29 369 25 25 124 33 141 12z m-2210 -50 c0 -81 -19 -132 -69 -178 -42 -40 -235 -146 -246 -136 -7 8 42 117 66 147 13 17 42 42 64 56 22 14 55 40 73 56 17 17 32 28 32 25 0 -3 14 10 31 30 39 44 49 44 49 0z m360 27 c0 -21 -43 -142 -70 -197 -36 -73 -84 -127 -131 -144 -74 -27 -105 -48 -141 -96 -24 -31 -55 -58 -85 -72 -55 -27 -50 -26 -56 -8 -14 35 27 141 92 240 14 22 36 60 49 85 13 25 33 53 46 62 l23 17 -7 -37 c-4 -20 -11 -46 -15 -57 -9 -21 -84 -136 -95 -145 -13 -11 -41 -82 -38 -97 4 -22 28 -29 28 -9 0 28 39 99 78 143 46 52 72 102 103 203 15 49 27 57 139 96 74 26 80 27 80 16z m580 -42 c-60 -51 -90 -61 -156 -52 l-59 8 80 19 c44 10 96 26 115 36 52 25 59 22 20 -11z m2130 -10 c61 -42 78 -68 61 -97 -7 -13 -5 -23 6 -35 13 -15 14 -25 4 -70 -26 -114 -32 -165 -27 -205 4 -32 1 -47 -14 -65 -12 -15 -22 -19 -27 -13 -5 6 -33 38 -63 73 l-53 64 11 46 c22 91 34 198 30 270 -1 39 1 72 5 72 4 0 35 -18 67 -40z m519 20 c35 -5 65 -11 67 -13 3 -2 -2 -24 -10 -48 -9 -24 -16 -54 -16 -67 0 -21 -1 -22 -27 -8 -30 15 -63 49 -107 109 l-27 37 28 0 c15 0 57 -5 92 -10z m-1257 -72 c-4 -68 -22 -86 -22 -24 0 30 19 102 25 94 1 -2 0 -33 -3 -70z m1926 44 c3 -18 -1 -22 -25 -22 -46 0 -60 16 -21 24 26 5 30 9 18 17 -12 8 -11 10 5 7 12 -2 21 -12 23 -26z m-2301 -120 c0 -72 8 -161 17 -205 14 -67 14 -80 2 -92 -7 -8 -15 -13 -17 -12 -2 1 -3 0 -2 -2 1 -2 -16 -24 -37 -49 -22 -25 -40 -49 -40 -55 0 -6 -9 -2 -20 8 -16 15 -20 31 -20 89 0 46 -9 98 -24 146 -17 57 -21 82 -13 100 5 14 9 39 8 55 -2 40 11 56 84 104 33 22 60 40 60 40 0 1 1 -56 2 -127z m768 28 c18 -36 64 -100 129 -180 48 -60 47 -91 -5 -197 -23 -46 -43 -83 -44 -81 -2 2 -13 68 -25 148 -22 151 -34 200 -69 288 -12 29 -20 69 -20 90 l1 37 7 -35 c4 -19 16 -51 26 -70z m1672 79 c15 -6 23 -13 16 -16 -7 -2 -21 0 -32 6 -11 6 -29 11 -40 11 -12 0 -21 5 -21 11 0 12 28 7 77 -12z m-658 2 c10 -6 24 -29 32 -53 7 -24 31 -76 51 -116 21 -41 38 -83 38 -95 0 -18 -6 -15 -42 21 -23 23 -65 58 -95 78 -29 19 -53 40 -53 47 0 15 27 104 35 117 8 12 12 12 34 1z m-2259 -6 c0 -17 -97 -126 -124 -139 l-31 -15 -12 47 c-6 26 -15 57 -18 68 -6 20 -1 22 62 31 81 12 123 15 123 8z m-770 -25 c0 -5 19 -13 42 -17 34 -5 38 -8 23 -14 -30 -11 -83 -11 -90 1 -4 6 -4 17 -1 25 6 17 26 20 26 5z m3448 -47 c33 -27 58 -50 56 -52 -2 -2 5 -10 15 -17 19 -14 73 -102 85 -140 6 -20 4 -21 -33 -14 -54 10 -105 38 -199 109 -92 71 -122 101 -101 101 8 0 32 14 53 30 22 17 45 30 52 30 7 0 39 -21 72 -47z m-3538 27 c0 -5 -8 -10 -17 -10 -10 -1 -35 -7 -55 -14 -45 -16 -40 -1 5 18 39 17 67 20 67 6z m644 -59 c21 -72 21 -75 -11 -91 -16 -8 -56 -38 -90 -68 l-63 -54 0 31 c0 17 11 48 24 69 14 20 32 57 41 82 26 71 37 89 54 93 23 5 27 -1 45 -62z m1376 4 c0 -16 -5 -37 -10 -45 -7 -11 -10 3 -10 45 0 42 3 56 10 45 5 -8 10 -28 10 -45z m1245 6 c17 -13 29 -28 27 -33 -1 -5 1 -7 6 -4 5 3 20 -6 33 -20 43 -47 143 -120 200 -148 31 -15 91 -35 135 -46 43 -10 80 -23 82 -30 7 -20 83 -61 105 -57 21 3 21 4 -3 14 -14 6 -36 23 -50 38 l-25 27 30 -4 c23 -2 41 -18 82 -72 69 -89 70 -110 2 -126 -73 -18 -132 -9 -241 38 -248 106 -348 163 -374 213 -30 58 -10 63 61 13 36 -25 65 -50 65 -55 0 -5 4 -9 9 -9 20 0 -4 52 -33 72 -49 33 -116 100 -134 133 -14 26 -41 94 -42 104 0 4 16 -8 65 -48z m406 2 c34 -82 58 -126 98 -179 l38 -51 -31 6 c-23 5 -33 14 -40 36 -19 63 -60 135 -102 181 -24 26 -44 49 -44 51 0 2 14 3 31 3 27 0 32 -5 50 -47z m-3378 -15 c19 -13 42 -27 51 -33 14 -8 3 -20 -65 -75 -105 -84 -142 -106 -207 -126 -57 -18 -68 -16 -54 13 5 10 17 35 27 56 36 73 154 186 197 187 9 0 33 -10 51 -22z m1612 -44 l-6 -35 -19 23 c-13 16 -15 25 -7 30 7 4 8 8 3 8 -5 0 -1 9 10 21 17 19 19 19 22 4 2 -9 1 -32 -3 -51z m-1420 -17 c-27 -66 -49 -91 -139 -160 -36 -28 -65 -72 -54 -82 2 -3 23 12 45 32 22 21 54 46 71 56 l32 18 0 -30 c0 -53 -66 -98 -300 -203 -25 -11 -70 -32 -100 -46 -48 -23 -68 -26 -158 -26 -56 0 -107 5 -112 10 -14 14 5 55 58 127 36 47 48 57 73 57 25 0 28 -2 17 -13 -7 -7 -25 -21 -40 -31 -16 -10 -28 -22 -28 -26 0 -18 54 6 96 43 39 35 56 42 106 48 52 6 192 65 208 88 3 4 15 14 27 22 19 13 53 43 188 161 16 14 31 25 33 23 2 -1 -9 -32 -23 -68z m-417 1 c-53 -63 -64 -81 -89 -148 -17 -47 -28 -60 -50 -60 -25 0 -25 3 17 57 39 51 75 118 93 176 11 33 16 37 48 37 l35 0 -54 -62z m2572 -48 c12 -36 31 -81 43 -100 23 -34 52 -118 45 -126 -3 -2 -13 15 -23 39 -10 23 -30 69 -45 102 -31 68 -60 150 -60 168 0 23 20 -17 40 -83z m-927 32 c3 -24 1 -40 -4 -36 -5 3 -9 24 -9 46 0 51 5 47 13 -10z m-618 -58 c-9 -26 -27 -72 -42 -103 -14 -31 -34 -76 -45 -101 -11 -25 -23 -39 -25 -32 -6 15 16 72 33 87 10 9 26 46 70 169 23 62 31 44 9 -20z m769 33 c15 -19 26 -37 26 -41 0 -3 -12 -24 -26 -46 -25 -37 -28 -39 -40 -23 -8 11 -13 44 -14 81 0 73 14 81 54 29z m-304 -32 c-5 -22 -10 -67 -11 -100 0 -33 -6 -103 -13 -155 -11 -91 -12 -94 -26 -69 -49 87 -58 109 -65 156 -6 44 -4 54 14 72 12 12 20 22 19 24 -2 1 17 28 42 59 24 32 45 56 47 55 1 -1 -2 -20 -7 -42z m1409 -14 c46 -66 52 -103 25 -166 -8 -20 -13 -40 -10 -43 12 -11 44 31 51 66 l7 37 35 -73 c48 -101 51 -153 19 -281 -22 -90 -26 -125 -26 -260 0 -151 -13 -241 -36 -243 -5 -1 -22 23 -38 52 -28 51 -29 59 -26 154 9 255 4 288 -66 398 -80 125 -94 171 -36 115 28 -27 52 -35 52 -18 0 5 -18 25 -40 45 -52 47 -52 70 2 185 24 50 43 91 44 91 1 0 20 -27 43 -59z m114 27 c55 -37 137 -109 147 -128 7 -13 6 -35 -3 -69 l-13 -50 -31 20 c-18 11 -35 30 -39 42 -3 12 -25 56 -48 97 -66 119 -67 126 -13 88z m-504 -58 c1 -14 -8 -38 -20 -55 l-21 -30 7 65 c4 35 9 69 12 74 8 12 21 -21 22 -54z m-1746 -70 c48 -98 48 -120 -4 -170 -24 -23 -38 -44 -34 -50 4 -7 10 -8 14 -3 12 18 71 54 71 43 0 -6 -11 -27 -23 -48 -132 -208 -139 -241 -111 -469 7 -54 -20 -159 -53 -210 l-16 -24 -16 33 c-11 25 -15 73 -16 203 -1 143 -5 183 -24 250 -14 51 -23 109 -23 160 -1 72 3 88 35 155 21 43 36 66 36 54 1 -28 26 -76 51 -99 25 -23 25 -21 -5 59 -14 37 -25 70 -25 75 0 5 21 41 47 81 36 54 49 67 53 53 3 -10 22 -52 43 -93z m-184 53 c-40 -66 -89 -164 -89 -178 0 -7 -14 -21 -32 -29 -33 -17 -46 -20 -35 -10 3 4 3 14 -2 23 -4 9 -11 31 -14 49 -6 29 -2 38 31 71 38 38 140 111 155 111 5 0 -1 -17 -14 -37z m989 -19 c1 -27 -4 -47 -18 -64 l-20 -25 0 52 c0 28 3 59 6 68 11 28 29 10 32 -31z m-468 -64 l0 -45 -20 33 c-21 34 -25 67 -13 98 6 16 9 14 19 -11 7 -17 13 -50 14 -75z m777 -32 c-9 -18 -18 -40 -21 -48 -3 -8 -3 2 0 23 7 50 28 97 32 74 2 -9 -3 -31 -11 -49z m683 41 c0 -5 9 -28 19 -52 11 -23 25 -60 32 -82 7 -22 17 -44 21 -49 4 -6 8 -22 8 -36 0 -15 7 -41 16 -59 13 -26 15 -49 9 -117 l-7 -85 -31 6 c-18 4 -53 19 -79 33 -46 24 -48 27 -48 68 0 24 -7 62 -16 84 -9 22 -16 56 -16 77 1 49 10 154 14 159 2 1 17 18 33 37 28 32 45 38 45 16z m691 -86 c29 -43 64 -87 77 -98 155 -122 207 -182 239 -274 l20 -59 -26 9 c-94 36 -176 116 -231 225 -37 73 -127 174 -155 174 -13 0 -15 5 -10 18 5 9 13 32 19 50 6 17 12 32 13 32 1 0 26 -35 54 -77z m-1215 -1 c7 -24 -20 -72 -44 -80 -19 -6 -25 44 -11 98 l13 51 18 -23 c10 -13 21 -34 24 -46z m-941 -102 c10 -70 10 -91 -1 -119 -8 -18 -14 -58 -14 -88 0 -43 -5 -59 -23 -77 -23 -23 -133 -64 -143 -53 -3 3 -6 47 -7 99 0 89 21 198 44 223 5 5 9 15 9 22 0 8 9 33 20 55 11 23 20 47 20 53 0 6 5 16 11 22 9 9 19 4 42 -20 26 -27 32 -45 42 -117z m580 97 c13 -39 40 -236 33 -243 -4 -4 -15 21 -57 125 -21 53 -27 114 -15 146 10 24 25 13 39 -28z m-1295 10 c0 -7 7 -25 15 -41 13 -24 13 -31 3 -38 -7 -4 -16 -8 -19 -8 -4 0 -25 -18 -47 -39 -35 -34 -78 -98 -122 -184 -30 -58 -84 -109 -152 -142 -37 -18 -68 -31 -68 -28 0 25 29 97 56 138 49 75 161 173 180 157 5 -4 6 -3 2 2 -5 5 1 16 12 23 23 16 120 156 120 173 0 6 5 8 10 5 6 -3 10 -12 10 -18z m1185 -73 c-18 -27 -41 -27 -39 0 1 9 12 32 25 51 l24 35 3 -31 c2 -17 -4 -42 -13 -55z m330 -50 c-24 -57 -25 -58 -19 -19 3 22 13 60 22 85 15 40 17 42 20 19 2 -15 -8 -53 -23 -85z m1268 44 c21 -10 26 -18 21 -33 -4 -11 -9 -79 -11 -152 -4 -116 -2 -138 17 -192 12 -34 20 -71 18 -84 -3 -19 -7 -16 -26 20 -53 101 -75 192 -78 317 -1 65 0 125 3 133 6 14 8 14 56 -9z m-1536 -88 c8 -19 32 -69 53 -111 21 -42 42 -93 45 -115 11 -57 -9 -32 -29 37 -9 31 -32 81 -53 110 -28 41 -37 65 -39 104 -2 27 -1 41 2 30 3 -11 12 -36 21 -55z m303 -14 c-17 -25 -39 -65 -50 -88 -10 -24 -19 -37 -19 -30 -1 8 20 57 47 110 34 70 48 91 50 75 2 -13 -10 -42 -28 -67z m-1460 -43 c0 -130 -25 -238 -76 -338 -30 -57 -49 -81 -41 -50 3 11 9 36 12 55 4 19 11 40 15 45 4 6 14 44 21 86 10 60 10 92 1 147 -20 119 -17 140 21 156 17 8 35 15 40 15 4 1 7 -52 7 -116z m1710 -158 c14 -50 25 -90 40 -138 6 -22 9 -41 7 -44 -8 -7 -73 115 -92 170 -21 62 -24 183 -5 217 13 24 15 19 26 -70 7 -52 18 -113 24 -135z m-584 125 c49 -73 94 -183 94 -230 -1 -30 -14 -48 -58 -79 -32 -22 -34 -23 -47 -5 -8 11 -15 40 -15 65 0 71 -18 158 -47 227 -22 54 -24 67 -14 89 l12 27 23 -25 c12 -13 35 -44 52 -69z m203 -2 c0 -21 -3 -38 -9 -38 -6 0 -10 28 -9 68 1 52 3 60 9 37 4 -16 8 -47 9 -67z m1024 15 c22 -41 22 -50 -6 -83 l-24 -28 -12 77 c-6 42 -11 84 -11 95 0 16 2 16 18 -5 9 -13 25 -38 35 -56z m-800 41 c17 -23 18 -28 3 -71 -9 -26 -16 -80 -16 -122 -1 -87 -10 -109 -65 -150 -48 -37 -52 -37 -89 -6 l-30 24 31 68 c28 62 43 101 49 128 5 26 44 104 54 110 9 6 11 -1 8 -26 -3 -19 -8 -42 -13 -51 -5 -13 -3 -18 9 -18 18 0 40 70 34 112 -5 34 1 35 25 2z m-573 -65 c0 -9 -10 -47 -22 -85 -23 -73 -38 -73 -19 1 6 24 11 68 11 97 1 51 1 52 15 28 8 -14 14 -32 15 -41z m-659 -37 c-5 -46 -11 -85 -13 -87 -8 -9 -48 36 -48 54 0 10 14 37 30 59 17 23 30 47 30 54 0 6 2 9 5 7 2 -3 0 -42 -4 -87z m1950 -44 c9 -41 8 -51 -8 -72 -28 -39 -36 -31 -29 27 3 28 6 79 7 112 1 67 -2 74 30 -67z m-425 0 l27 -38 -34 -49 c-18 -27 -36 -48 -39 -46 -4 2 -12 30 -20 62 -7 32 -16 74 -21 93 -5 19 -9 46 -9 59 0 25 0 24 35 -9 19 -19 47 -51 61 -72z m-973 10 c-2 -24 -9 -63 -16 -88 -6 -25 -12 -47 -12 -50 -1 -3 -5 -20 -9 -39 l-8 -35 -15 30 c-9 16 -24 39 -35 51 -17 18 -18 25 -7 45 11 22 97 128 104 128 2 0 1 -19 -2 -42z m732 -40 c-2 -35 -8 -74 -14 -88 -9 -20 -11 -11 -8 51 3 67 10 99 22 99 1 0 2 -28 0 -62z m-1211 -4 c8 -64 8 -114 -2 -114 -19 0 -32 27 -32 70 0 92 23 121 34 44z m1688 -24 c16 0 44 -7 64 -15 32 -13 35 -17 30 -47 -3 -18 -10 -69 -16 -113 -14 -93 -28 -137 -44 -132 -27 9 -60 93 -72 186 -17 127 -17 148 -2 133 7 -7 25 -12 40 -12z m-1034 -85 c0 -31 -1 -35 -8 -20 -5 11 -8 43 -8 70 0 43 1 46 8 20 4 -16 8 -48 8 -70z m-455 -22 c-9 -133 -50 -257 -83 -251 -20 4 -47 112 -51 208 l-4 74 35 9 c19 4 46 12 60 17 47 15 48 14 43 -57z m1106 -66 c28 -63 29 -71 19 -125 -5 -31 -15 -75 -21 -97 -12 -43 -54 -115 -68 -115 -4 0 -14 19 -20 43 -7 23 -16 46 -21 52 -16 19 -8 120 17 190 13 39 27 94 31 123 7 61 1 69 63 -71z m-682 14 c31 -91 29 -190 -8 -276 -35 -84 -44 -94 -59 -65 -16 29 -40 125 -40 157 0 15 -5 42 -12 60 -9 24 -9 36 -2 41 6 4 13 12 15 17 9 22 74 124 80 125 3 0 15 -27 26 -59z m266 -49 c-4 -82 -11 -87 -61 -37 l-43 44 38 26 c55 37 68 30 66 -33z m257 44 c0 -8 -4 -18 -10 -21 -5 -3 -10 -15 -10 -26 0 -11 5 -17 10 -14 6 4 10 -7 10 -26 l0 -32 -44 39 c-24 22 -45 41 -45 45 -1 6 70 48 82 49 4 0 7 -6 7 -14z m-625 -342 c24 -40 24 -42 6 -58 -18 -17 -20 -15 -35 38 -9 31 -19 93 -21 139 l-5 82 15 -80 c9 -43 27 -98 40 -121z m850 128 c-13 -73 -47 -209 -55 -222 -7 -12 -13 -11 -30 5 -43 39 -44 53 -7 90 43 43 68 95 75 153 4 35 7 41 14 27 6 -9 7 -33 3 -53z m-650 -44 c5 -41 4 -50 -5 -41 -7 6 -14 42 -16 80 -4 77 9 53 21 -39z m214 -3 c-1 -38 -4 -83 -8 -100 -7 -29 -7 -29 -15 -7 -11 32 3 209 15 191 5 -8 8 -45 8 -84z"/>
  </g>
</svg>
